<?xml version="1.0" encoding="UTF-8" standalone="no"?>
<svg
   xmlns:dc="http://purl.org/dc/elements/1.1/"
   xmlns:cc="http://creativecommons.org/ns#"
   xmlns:rdf="http://www.w3.org/1999/02/22-rdf-syntax-ns#"
   xmlns:svg="http://www.w3.org/2000/svg"
   xmlns="http://www.w3.org/2000/svg"
   xmlns:sodipodi="http://sodipodi.sourceforge.net/DTD/sodipodi-0.dtd"
   xmlns:inkscape="http://www.inkscape.org/namespaces/inkscape"
   version="1.1"
   viewBox="0 0 673.65753 281.99213"
   stroke-miterlimit="10"
   id="svg117"
   sodipodi:docname="EntryProcedure.svg"
   width="673.65753"
   height="281.99213"
   style="fill:none;stroke:none;stroke-linecap:square;stroke-miterlimit:10"
   inkscape:version="0.92.3 (2405546, 2018-03-11)">
  <metadata
     id="metadata123">
    <rdf:RDF>
      <cc:Work
         rdf:about="">
        <dc:format>image/svg+xml</dc:format>
        <dc:type
           rdf:resource="http://purl.org/dc/dcmitype/StillImage" />
        <dc:title></dc:title>
      </cc:Work>
    </rdf:RDF>
  </metadata>
  <defs
     id="defs121" />
  <sodipodi:namedview
     pagecolor="#ffffff"
     bordercolor="#666666"
     borderopacity="1"
     objecttolerance="10"
     gridtolerance="10"
     guidetolerance="10"
     inkscape:pageopacity="0"
     inkscape:pageshadow="2"
     inkscape:window-width="1920"
     inkscape:window-height="1001"
     id="namedview119"
     showgrid="false"
     fit-margin-top="0"
     fit-margin-left="0"
     fit-margin-right="0"
     fit-margin-bottom="0"
     inkscape:zoom="0.39333333"
     inkscape:cx="348.37795"
     inkscape:cy="94.89108"
     inkscape:window-x="-9"
     inkscape:window-y="-9"
     inkscape:window-maximized="1"
     inkscape:current-layer="g115" />
  <clipPath
     id="p.0">
    <path
       d="M 0,0 H 800 V 600 H 0 Z"
       id="path2"
       inkscape:connector-curvature="0"
       style="clip-rule:nonzero" />
  </clipPath>
  <g
     clip-path="url(#p.0)"
     id="g115"
     transform="translate(-51.622047,-112.89895)">
    <path
       d="M 343.3701,114.39895 H 677.98427 V 393.39108 H 343.3701 Z"
       id="path7"
       inkscape:connector-curvature="0"
       style="fill:#000000;fill-opacity:0;fill-rule:evenodd" />
    <path
       d="M 343.3701,114.39895 H 677.98427 V 393.39108 H 343.3701 Z"
       id="path9"
       inkscape:connector-curvature="0"
       style="fill-rule:evenodd;stroke:#000000;stroke-width:3;stroke-linecap:butt;stroke-linejoin:round" />
    <path
       d="m 353.7607,141.31895 v -13.35938 h 2.70312 v 5.9375 l 5.4375,-5.9375 h 3.625 l -5.01562,5.20313 5.29687,8.15625 h -3.48437 l -3.67188,-6.26563 -2.1875,2.23438 v 4.03125 z m 19.01981,-3.07813 2.54687,0.42188 q -0.48437,1.40625 -1.54687,2.14062 -1.0625,0.73438 -2.65625,0.73438 -2.51563,0 -3.73438,-1.65625 -0.95312,-1.3125 -0.95312,-3.32813 0,-2.40625 1.25,-3.76562 1.26562,-1.35938 3.1875,-1.35938 2.15625,0 3.40625,1.42188 1.25,1.42187 1.1875,4.375 h -6.40625 q 0.0312,1.14062 0.60937,1.78125 0.59375,0.625 1.48438,0.625 0.59375,0 1,-0.32813 0.42187,-0.32812 0.625,-1.0625 z m 0.15625,-2.59375 q -0.0312,-1.10937 -0.57813,-1.6875 -0.54687,-0.57812 -1.32812,-0.57812 -0.84375,0 -1.39063,0.60937 -0.54687,0.60938 -0.53125,1.65625 z m 7.07885,5.67188 h -2.5625 v -9.67188 h 2.375 v 1.375 q 0.60938,-0.98437 1.09375,-1.28125 0.48438,-0.3125 1.10938,-0.3125 0.875,0 1.6875,0.48438 l -0.79688,2.23437 q -0.64062,-0.42187 -1.20312,-0.42187 -0.53125,0 -0.90625,0.29687 -0.375,0.29688 -0.59375,1.07813 -0.20313,0.76562 -0.20313,3.23437 z m 13.60401,0 h -2.5625 v -4.9375 q 0,-1.5625 -0.17188,-2.01563 -0.15625,-0.46875 -0.53125,-0.71875 -0.35937,-0.26562 -0.875,-0.26562 -0.67187,0 -1.20312,0.375 -0.53125,0.35937 -0.73438,0.96875 -0.1875,0.59375 -0.1875,2.21875 v 4.375 h -2.54687 v -9.67188 h 2.375 v 1.42188 q 1.26562,-1.64063 3.1875,-1.64063 0.84375,0 1.54687,0.3125 0.70313,0.29688 1.0625,0.78125 0.35938,0.46875 0.5,1.07813 0.14063,0.59375 0.14063,1.70312 z m 8.19287,-3.07813 2.54687,0.42188 q -0.48437,1.40625 -1.54687,2.14062 -1.0625,0.73438 -2.65625,0.73438 -2.51563,0 -3.73438,-1.65625 -0.95312,-1.3125 -0.95312,-3.32813 0,-2.40625 1.25,-3.76562 1.26562,-1.35938 3.1875,-1.35938 2.15625,0 3.40625,1.42188 1.25,1.42187 1.1875,4.375 h -6.40625 q 0.0312,1.14062 0.60937,1.78125 0.59375,0.625 1.48438,0.625 0.59375,0 1,-0.32813 0.42187,-0.32812 0.625,-1.0625 z m 0.15625,-2.59375 q -0.0312,-1.10937 -0.57813,-1.6875 -0.54687,-0.57812 -1.32812,-0.57812 -0.84375,0 -1.39063,0.60937 -0.54687,0.60938 -0.53125,1.65625 z m 4.6257,5.67188 v -13.35938 h 2.5625 v 13.35938 z"
       id="path11"
       inkscape:connector-curvature="0"
       style="fill:#000000;fill-rule:nonzero" />
    <path
       d="m 359.12598,160.39896 h 164.06299 v 212 H 359.12598 Z"
       id="path13"
       inkscape:connector-curvature="0"
       style="fill:#cccccc;fill-rule:evenodd" />
    <path
       d="m 359.12598,160.39896 h 164.06299 v 212 H 359.12598 Z"
       id="path15"
       inkscape:connector-curvature="0"
       style="fill-rule:evenodd;stroke:#000000;stroke-width:3;stroke-linecap:butt;stroke-linejoin:round" />
    <path
       d="m 369.48535,187.31895 v -13.35938 h 4.32812 q 2.45313,0 3.20313,0.20313 1.14062,0.29687 1.92187,1.3125 0.78125,1 0.78125,2.59375 0,1.23437 -0.45312,2.07812 -0.45313,0.82813 -1.14063,1.3125 -0.6875,0.46875 -1.39062,0.625 -0.96875,0.20313 -2.79688,0.20313 h -1.76562 v 5.03125 z m 2.6875,-11.09375 v 3.78125 h 1.48437 q 1.59375,0 2.125,-0.20313 0.54688,-0.20312 0.84375,-0.65625 0.3125,-0.45312 0.3125,-1.03125 0,-0.73437 -0.4375,-1.20312 -0.42187,-0.48438 -1.07812,-0.59375 -0.48438,-0.0937 -1.9375,-0.0937 z m 12.19357,11.09375 h -2.5625 v -9.67188 h 2.375 v 1.375 q 0.60938,-0.98437 1.09375,-1.28125 0.48438,-0.3125 1.10938,-0.3125 0.875,0 1.6875,0.48438 l -0.79688,2.23437 q -0.64062,-0.42187 -1.20312,-0.42187 -0.53125,0 -0.90625,0.29687 -0.375,0.29688 -0.59375,1.07813 -0.20313,0.76562 -0.20313,3.23437 z m 4.21341,-4.96875 q 0,-1.28125 0.625,-2.46875 0.625,-1.20313 1.78125,-1.82813 1.15625,-0.625 2.57813,-0.625 2.1875,0 3.59375,1.42188 1.40625,1.42187 1.40625,3.60937 0,2.1875 -1.42188,3.64063 -1.42187,1.4375 -3.5625,1.4375 -1.32812,0 -2.54687,-0.59375 -1.20313,-0.60938 -1.82813,-1.76563 -0.625,-1.17187 -0.625,-2.82812 z m 2.625,0.125 q 0,1.45312 0.67188,2.21875 0.6875,0.75 1.6875,0.75 1,0 1.67187,-0.75 0.6875,-0.76563 0.6875,-2.23438 0,-1.42187 -0.6875,-2.1875 -0.67187,-0.76562 -1.67187,-0.76562 -1,0 -1.6875,0.76562 -0.67188,0.76563 -0.67188,2.20313 z m 17.80222,-1.96875 -2.53125,0.45312 q -0.125,-0.75 -0.57813,-1.125 -0.45312,-0.39062 -1.17187,-0.39062 -0.95313,0 -1.53125,0.65625 -0.5625,0.65625 -0.5625,2.20312 0,1.73438 0.57812,2.4375 0.57813,0.70313 1.54688,0.70313 0.73437,0 1.20312,-0.40625 0.46875,-0.42188 0.65625,-1.42188 l 2.51563,0.42188 q -0.39063,1.73437 -1.51563,2.625 -1.10937,0.875 -2.96875,0.875 -2.125,0 -3.39062,-1.32813 -1.25,-1.34375 -1.25,-3.71875 0,-2.39062 1.26562,-3.71875 1.26563,-1.34375 3.42188,-1.34375 1.76562,0 2.79687,0.76563 1.04688,0.75 1.51563,2.3125 z m 7.53198,3.73437 2.54688,0.42188 q -0.48438,1.40625 -1.54688,2.14062 -1.0625,0.73438 -2.65625,0.73438 -2.51562,0 -3.73437,-1.65625 -0.95313,-1.3125 -0.95313,-3.32813 0,-2.40625 1.25,-3.76562 1.26563,-1.35938 3.1875,-1.35938 2.15625,0 3.40625,1.42188 1.25,1.42187 1.1875,4.375 h -6.40625 q 0.0312,1.14062 0.60938,1.78125 0.59375,0.625 1.48437,0.625 0.59375,0 1,-0.32813 0.42188,-0.32812 0.625,-1.0625 z m 0.15625,-2.59375 q -0.0312,-1.10937 -0.57812,-1.6875 -0.54688,-0.57812 -1.32813,-0.57812 -0.84375,0 -1.39062,0.60937 -0.54688,0.60938 -0.53125,1.65625 z m 13.5007,5.67188 h -2.39062 v -1.42188 q -0.59375,0.82813 -1.40625,1.23438 -0.79688,0.40625 -1.60938,0.40625 -1.67187,0 -2.85937,-1.34375 -1.1875,-1.34375 -1.1875,-3.75 0,-2.45313 1.15625,-3.73438 1.15625,-1.28125 2.92187,-1.28125 1.625,0 2.8125,1.34375 v -4.8125 h 2.5625 z m -6.84375,-5.04688 q 0,1.54688 0.4375,2.23438 0.60938,1.01562 1.71875,1.01562 0.89063,0 1.5,-0.75 0.625,-0.76562 0.625,-2.25 0,-1.67187 -0.60937,-2.40625 -0.59375,-0.73437 -1.53125,-0.73437 -0.90625,0 -1.53125,0.73437 -0.60938,0.71875 -0.60938,2.15625 z m 15.72412,5.04688 v -1.45313 q -0.53125,0.78125 -1.39062,1.23438 -0.85938,0.4375 -1.8125,0.4375 -0.96875,0 -1.75,-0.42188 -0.76563,-0.4375 -1.125,-1.20312 -0.34375,-0.78125 -0.34375,-2.14063 v -6.125 h 2.5625 v 4.4375 q 0,2.04688 0.14062,2.51563 0.14063,0.45312 0.51563,0.71875 0.375,0.26562 0.95312,0.26562 0.65625,0 1.17188,-0.35937 0.51562,-0.35938 0.70312,-0.89063 0.20313,-0.53125 0.20313,-2.60937 v -4.07813 h 2.54687 v 9.67188 z m 7.48972,0 h -2.5625 v -9.67188 h 2.375 v 1.375 q 0.60937,-0.98437 1.09375,-1.28125 0.48437,-0.3125 1.10937,-0.3125 0.875,0 1.6875,0.48438 l -0.79687,2.23437 q -0.64063,-0.42187 -1.20313,-0.42187 -0.53125,0 -0.90625,0.29687 -0.375,0.29688 -0.59375,1.07813 -0.20312,0.76562 -0.20312,3.23437 z m 10.40091,-3.07813 2.54687,0.42188 q -0.48437,1.40625 -1.54687,2.14062 -1.0625,0.73438 -2.65625,0.73438 -2.51563,0 -3.73438,-1.65625 -0.95312,-1.3125 -0.95312,-3.32813 0,-2.40625 1.25,-3.76562 1.26562,-1.35938 3.1875,-1.35938 2.15625,0 3.40625,1.42188 1.25,1.42187 1.1875,4.375 h -6.40625 q 0.0312,1.14062 0.60937,1.78125 0.59375,0.625 1.48438,0.625 0.59375,0 1,-0.32813 0.42187,-0.32812 0.625,-1.0625 z m 0.15625,-2.59375 q -0.0312,-1.10937 -0.57813,-1.6875 -0.54687,-0.57812 -1.32812,-0.57812 -0.84375,0 -1.39063,0.60937 -0.54687,0.60938 -0.53125,1.65625 z"
       id="path17"
       inkscape:connector-curvature="0"
       style="fill:#000000;fill-rule:nonzero" />
    <path
       d="M 372.48535,209.31895 V 198.2252 h -3.95313 v -2.26563 h 10.60938 v 2.26563 h -3.95313 v 11.09375 z m 10.28662,-6.71875 -2.32812,-0.42188 q 0.40625,-1.40625 1.35937,-2.07812 0.95313,-0.67188 2.84375,-0.67188 1.70313,0 2.54688,0.40625 0.84375,0.40625 1.17187,1.03125 0.34375,0.625 0.34375,2.28125 l -0.0156,3 q 0,1.26563 0.10937,1.875 0.125,0.60938 0.46875,1.29688 h -2.53125 q -0.10937,-0.25 -0.25,-0.75 -0.0625,-0.23438 -0.0937,-0.3125 -0.65625,0.64062 -1.40625,0.96875 -0.73437,0.3125 -1.59375,0.3125 -1.48437,0 -2.34375,-0.8125 -0.85937,-0.8125 -0.85937,-2.04688 0,-0.82812 0.39062,-1.46875 0.39063,-0.64062 1.09375,-0.96875 0.70313,-0.34375 2.03125,-0.60937 1.79688,-0.32813 2.48438,-0.625 v -0.25 q 0,-0.75 -0.35938,-1.0625 -0.35937,-0.3125 -1.375,-0.3125 -0.6875,0 -1.07812,0.28125 -0.375,0.26562 -0.60938,0.9375 z m 3.42188,2.07812 q -0.48438,0.15625 -1.5625,0.39063 -1.0625,0.21875 -1.39063,0.4375 -0.5,0.35937 -0.5,0.90625 0,0.53125 0.40625,0.9375 0.40625,0.39062 1.01563,0.39062 0.70312,0 1.32812,-0.46875 0.46875,-0.34375 0.60938,-0.84375 0.0937,-0.32812 0.0937,-1.25 z m 4.9382,4.64063 v -13.35938 h 2.5625 v 4.8125 q 1.17187,-1.34375 2.79687,-1.34375 1.76563,0 2.92188,1.28125 1.15625,1.28125 1.15625,3.67188 0,2.48437 -1.1875,3.82812 -1.17188,1.32813 -2.85938,1.32813 -0.82812,0 -1.64062,-0.40625 -0.79688,-0.42188 -1.375,-1.23438 v 1.42188 z m 2.53125,-5.04688 q 0,1.5 0.48437,2.21875 0.65625,1.03125 1.76563,1.03125 0.84375,0 1.4375,-0.71875 0.59375,-0.73437 0.59375,-2.29687 0,-1.65625 -0.60938,-2.39063 -0.59375,-0.73437 -1.53125,-0.73437 -0.92187,0 -1.53125,0.71875 -0.60937,0.71875 -0.60937,2.17187 z m 8.97412,5.04688 v -13.35938 h 2.5625 v 13.35938 z m 10.77704,-3.07813 2.54687,0.42188 q -0.48437,1.40625 -1.54687,2.14062 -1.0625,0.73438 -2.65625,0.73438 -2.51563,0 -3.73438,-1.65625 -0.95312,-1.3125 -0.95312,-3.32813 0,-2.40625 1.25,-3.76562 1.26562,-1.35938 3.1875,-1.35938 2.15625,0 3.40625,1.42188 1.25,1.42187 1.1875,4.375 h -6.40625 q 0.0312,1.14062 0.60937,1.78125 0.59375,0.625 1.48438,0.625 0.59375,0 1,-0.32813 0.42187,-0.32812 0.625,-1.0625 z m 0.15625,-2.59375 q -0.0312,-1.10937 -0.57813,-1.6875 -0.54687,-0.57812 -1.32812,-0.57812 -0.84375,0 -1.39063,0.60937 -0.54687,0.60938 -0.53125,1.65625 z"
       id="path19"
       inkscape:connector-curvature="0"
       style="fill:#000000;fill-rule:nonzero" />
    <path
       d="m 393.69815,264.39896 c 0,10.51181 0.0158,15.7677 0.0315,21.02362 0.0157,5.25589 0.0315,10.51181 0.0315,21.02362"
       id="path21"
       inkscape:connector-curvature="0"
       style="fill:#000000;fill-opacity:0;fill-rule:evenodd" />
    <path
       d="m 393.69815,264.39896 c 0,10.51181 0.0158,15.7677 0.0315,21.02362 l 0.008,3.02365"
       id="path23"
       inkscape:connector-curvature="0"
       style="fill-rule:evenodd;stroke:#000000;stroke-width:3;stroke-linecap:butt;stroke-linejoin:round" />
    <path
       d="m 388.78214,288.45276 4.97321,13.60773 4.93716,-13.62085 z"
       id="path25"
       inkscape:connector-curvature="0"
       style="fill:#000000;fill-rule:evenodd;stroke:#000000;stroke-width:3;stroke-linecap:butt" />
    <path
       d="m 368.37796,234.40683 h 172.62991 v 41.98425 H 368.37796 Z"
       id="path27"
       inkscape:connector-curvature="0"
       style="fill:#ffffff;fill-rule:evenodd" />
    <path
       d="m 368.37796,234.40683 h 172.62991 v 41.98425 H 368.37796 Z"
       id="path29"
       inkscape:connector-curvature="0"
       style="fill-rule:evenodd;stroke:#000000;stroke-width:3;stroke-linecap:butt;stroke-linejoin:round" />
    <path
       d="m 378.54984,258.7668 v -11.45311 h 8.48438 v 1.9375 h -6.17188 v 2.53125 h 5.75 v 1.9375 h -5.75 v 3.10936 h 6.39063 v 1.9375 z m 18.20313,0 h -2.20313 v -4.23436 q 0,-1.34375 -0.14062,-1.73437 -0.14063,-0.40625 -0.45313,-0.625 -0.3125,-0.21875 -0.76562,-0.21875 -0.5625,0 -1.01563,0.3125 -0.45312,0.3125 -0.625,0.82812 -0.17187,0.51563 -0.17187,1.90625 v 3.76561 h -2.1875 v -8.29686 h 2.03125 v 1.21875 q 1.09375,-1.40625 2.73437,-1.40625 0.73438,0 1.32813,0.26562 0.60937,0.25 0.90625,0.65625 0.3125,0.40625 0.4375,0.92188 0.125,0.51562 0.125,1.48437 z m 6.02343,-8.29686 v 1.75 h -1.5 v 3.34375 q 0,1.01561 0.0469,1.18748 0.0469,0.15625 0.1875,0.26563 0.15625,0.10937 0.375,0.10937 0.3125,0 0.89062,-0.20312 l 0.1875,1.70312 q -0.76562,0.32813 -1.73437,0.32813 -0.59375,0 -1.07813,-0.20313 -0.46875,-0.20312 -0.70312,-0.51562 -0.21875,-0.3125 -0.29688,-0.85938 -0.0781,-0.375 -0.0781,-1.54686 v -3.60937 h -1 v -1.75 h 1 v -1.65625 l 2.20312,-1.28125 v 2.9375 z m 3.625,8.29686 h -2.1875 v -8.29686 h 2.03125 v 1.17187 q 0.53125,-0.82812 0.9375,-1.09375 0.42188,-0.26562 0.95313,-0.26562 0.75,0 1.45312,0.40625 l -0.6875,1.92187 q -0.54687,-0.35937 -1.03125,-0.35937 -0.45312,0 -0.78125,0.25 -0.3125,0.25 -0.5,0.92187 -0.1875,0.65625 -0.1875,2.78124 z m 3.08594,-8.29686 h 2.34375 l 1.98438,5.89061 1.9375,-5.89061 h 2.26562 l -2.92187,7.98436 -0.53125,1.45312 q -0.28125,0.71875 -0.54688,1.09375 -0.26562,0.39063 -0.60937,0.625 -0.32813,0.25 -0.82813,0.375 -0.5,0.14063 -1.125,0.14063 -0.625,0 -1.23437,-0.14063 l -0.20313,-1.71875 q 0.51563,0.10938 0.9375,0.10938 0.76563,0 1.125,-0.45313 0.375,-0.45312 0.5625,-1.14062 z m 14.40625,8.29686 v -11.45311 h 3.70313 q 2.10937,0 2.75,0.17187 0.98437,0.25 1.64062,1.125 0.67188,0.85938 0.67188,2.21875 0,1.0625 -0.39063,1.78125 -0.375,0.71875 -0.96875,1.125 -0.57812,0.40625 -1.1875,0.54688 -0.82812,0.15625 -2.40625,0.15625 h -1.5 v 4.32811 z m 2.3125,-9.51561 v 3.25 h 1.26563 q 1.35937,0 1.8125,-0.17188 0.46875,-0.1875 0.73437,-0.5625 0.26563,-0.39062 0.26563,-0.90625 0,-0.625 -0.375,-1.03125 -0.35938,-0.40625 -0.92188,-0.5 -0.42187,-0.0781 -1.67187,-0.0781 z m 10.4375,9.51561 h -2.1875 v -8.29686 h 2.03125 v 1.17187 q 0.53125,-0.82812 0.9375,-1.09375 0.42188,-0.26562 0.95313,-0.26562 0.75,0 1.45312,0.40625 l -0.6875,1.92187 q -0.54687,-0.35937 -1.03125,-0.35937 -0.45312,0 -0.78125,0.25 -0.3125,0.25 -0.5,0.92187 -0.1875,0.65625 -0.1875,2.78124 z m 3.61719,-4.26561 q 0,-1.09375 0.53125,-2.10937 0.54687,-1.03125 1.53125,-1.5625 1,-0.54688 2.21875,-0.54688 1.875,0 3.07812,1.21875 1.20313,1.21875 1.20313,3.09375 0,1.87498 -1.21875,3.12498 -1.20313,1.23438 -3.04688,1.23438 -1.14062,0 -2.1875,-0.51563 -1.03125,-0.51562 -1.57812,-1.51562 -0.53125,-0.99998 -0.53125,-2.42186 z m 2.25,0.10938 q 0,1.23437 0.57812,1.8906 0.59375,0.65625 1.45313,0.65625 0.85937,0 1.4375,-0.65625 0.59375,-0.65623 0.59375,-1.90623 0,-1.21875 -0.59375,-1.875 -0.57813,-0.65625 -1.4375,-0.65625 -0.85938,0 -1.45313,0.65625 -0.57812,0.65625 -0.57812,1.89063 z m 15.27344,-1.6875 -2.17188,0.39062 q -0.10937,-0.65625 -0.5,-0.98437 -0.375,-0.32813 -1,-0.32813 -0.8125,0 -1.3125,0.57813 -0.48437,0.5625 -0.48437,1.89062 0,1.46875 0.5,2.07811 0.5,0.60937 1.32812,0.60937 0.625,0 1.01563,-0.34375 0.40625,-0.35937 0.57812,-1.23435 l 2.15625,0.375 q -0.34375,1.48435 -1.29687,2.24998 -0.95313,0.75 -2.54688,0.75 -1.82812,0 -2.90625,-1.14063 -1.07812,-1.15625 -1.07812,-3.18748 0,-2.0625 1.07812,-3.20312 1.09375,-1.14063 2.9375,-1.14063 1.51563,0 2.40625,0.65625 0.90625,0.64063 1.29688,1.98438 z m 6.46093,3.2031 2.1875,0.35938 q -0.42187,1.20312 -1.32812,1.84375 -0.90625,0.625 -2.28125,0.625 -2.15625,0 -3.20313,-1.42188 -0.8125,-1.125 -0.8125,-2.85935 0,-2.0625 1.07813,-3.21875 1.07812,-1.17188 2.71875,-1.17188 1.85937,0 2.92187,1.21875 1.07813,1.21875 1.03125,3.75 h -5.5 q 0.0156,0.96874 0.51563,1.51561 0.51562,0.54687 1.28125,0.54687 0.51562,0 0.85937,-0.28125 0.35938,-0.28125 0.53125,-0.90625 z m 0.125,-2.21873 q -0.0156,-0.95312 -0.48437,-1.45312 -0.46875,-0.5 -1.14063,-0.5 -0.71875,0 -1.1875,0.53125 -0.46875,0.51562 -0.46875,1.42187 z m 11.58594,4.85936 h -2.04687 v -1.21875 q -0.5,0.70312 -1.20313,1.0625 -0.6875,0.34375 -1.39062,0.34375 -1.42188,0 -2.45313,-1.15625 -1.01562,-1.15625 -1.01562,-3.21873 0,-2.10938 0.98437,-3.20313 1,-1.09375 2.51563,-1.09375 1.39062,0 2.40625,1.15625 v -4.125 h 2.20312 z m -5.85937,-4.32811 q 0,1.32813 0.35937,1.92186 0.53125,0.85937 1.48438,0.85937 0.76562,0 1.29687,-0.64062 0.53125,-0.65623 0.53125,-1.93748 0,-1.42188 -0.51562,-2.04688 -0.51563,-0.64062 -1.32813,-0.64062 -0.78125,0 -1.3125,0.625 -0.51562,0.625 -0.51562,1.85937 z m 13.47656,4.32811 v -1.25 q -0.45313,0.67187 -1.1875,1.0625 -0.73438,0.375 -1.5625,0.375 -0.82813,0 -1.5,-0.35938 -0.65625,-0.375 -0.95313,-1.03125 -0.29687,-0.67187 -0.29687,-1.84373 v -5.25 h 2.1875 v 3.8125 q 0,1.74998 0.125,2.14061 0.125,0.39062 0.4375,0.625 0.32812,0.23437 0.8125,0.23437 0.5625,0 1,-0.3125 0.45312,-0.3125 0.60937,-0.76562 0.17188,-0.45311 0.17188,-2.23436 v -3.5 h 2.20312 v 8.29686 z m 6.41406,0 h -2.1875 v -8.29686 h 2.03125 v 1.17187 q 0.53125,-0.82812 0.9375,-1.09375 0.42188,-0.26562 0.95313,-0.26562 0.75,0 1.45312,0.40625 l -0.6875,1.92187 q -0.54687,-0.35937 -1.03125,-0.35937 -0.45312,0 -0.78125,0.25 -0.3125,0.25 -0.5,0.92187 -0.1875,0.65625 -0.1875,2.78124 z m 8.92969,-2.64063 2.1875,0.35938 q -0.42188,1.20312 -1.32813,1.84375 -0.90625,0.625 -2.28125,0.625 -2.15625,0 -3.20312,-1.42188 -0.8125,-1.125 -0.8125,-2.85935 0,-2.0625 1.07812,-3.21875 1.07813,-1.17188 2.71875,-1.17188 1.85938,0 2.92188,1.21875 1.07812,1.21875 1.03125,3.75 h -5.5 q 0.0156,0.96874 0.51562,1.51561 0.51563,0.54687 1.28125,0.54687 0.51563,0 0.85938,-0.28125 0.35937,-0.28125 0.53125,-0.90625 z m 0.125,-2.21873 q -0.0156,-0.95312 -0.48438,-1.45312 -0.46875,-0.5 -1.14062,-0.5 -0.71875,0 -1.1875,0.53125 -0.46875,0.51562 -0.46875,1.42187 z"
       id="path31"
       inkscape:connector-curvature="0"
       style="fill:#000000;fill-rule:nonzero" />
    <path
       d="m 294.10236,255.39899 h 63.90552"
       id="path33"
       inkscape:connector-curvature="0"
       style="fill:#000000;fill-opacity:0;fill-rule:evenodd" />
    <path
       d="m 294.10236,255.39899 h 45.90552"
       id="path35"
       inkscape:connector-curvature="0"
       style="fill-rule:evenodd;stroke:#000000;stroke-width:3;stroke-linecap:butt;stroke-linejoin:round" />
    <path
       d="m 340.00787,260.3542 13.61429,-4.9552 -13.61429,-4.9552 z"
       id="path37"
       inkscape:connector-curvature="0"
       style="fill:#000000;fill-rule:evenodd;stroke:#000000;stroke-width:3;stroke-linecap:butt" />
    <path
       d="m 308.74014,207.39896 h 20 v 29.98425 h -20 z"
       id="path39"
       inkscape:connector-curvature="0"
       style="fill:#000000;fill-opacity:0;fill-rule:evenodd" />
    <path
       d="m 327.13077,232.74083 v 1.57812 h -8.82813 q -0.0156,-0.59375 0.1875,-1.14062 0.34375,-0.90625 1.07813,-1.78125 0.75,-0.875 2.15625,-2.01563 2.17187,-1.78125 2.9375,-2.82812 0.76562,-1.04688 0.76562,-1.96875 0,-0.98438 -0.70312,-1.64063 -0.6875,-0.67187 -1.8125,-0.67187 -1.1875,0 -1.90625,0.71875 -0.70313,0.70312 -0.70313,1.95312 l -1.6875,-0.17187 q 0.17188,-1.89063 1.29688,-2.875 1.14062,-0.98438 3.03125,-0.98438 1.92187,0 3.04687,1.0625 1.125,1.0625 1.125,2.64063 0,0.79687 -0.32812,1.57812 -0.32813,0.78125 -1.09375,1.64063 -0.75,0.84375 -2.53125,2.34375 -1.46875,1.23437 -1.89063,1.6875 -0.42187,0.4375 -0.6875,0.875 z"
       id="path41"
       inkscape:connector-curvature="0"
       style="fill:#000000;fill-rule:nonzero" />
    <path
       d="m 589.25195,222.37534 h 116.18896 v 140 H 589.25195 Z"
       id="path43"
       inkscape:connector-curvature="0"
       style="fill:#ffffff;fill-rule:evenodd" />
    <path
       d="m 589.25195,222.37534 h 116.18896 v 140 H 589.25195 Z"
       id="path45"
       inkscape:connector-curvature="0"
       style="fill-rule:evenodd;stroke:#000000;stroke-width:3;stroke-linecap:butt;stroke-linejoin:round" />
    <path
       d="m 598.9238,244.95158 2.625,-0.25 q 0.23438,1.3125 0.95313,1.9375 0.73437,0.60937 1.96875,0.60937 1.29687,0 1.95312,-0.54687 0.67188,-0.54688 0.67188,-1.28125 0,-0.48438 -0.28125,-0.8125 -0.28125,-0.32813 -0.96875,-0.57813 -0.48438,-0.15625 -2.17188,-0.57812 -2.15625,-0.54688 -3.03125,-1.32813 -1.23437,-1.09375 -1.23437,-2.6875 0,-1.01562 0.57812,-1.90625 0.57813,-0.89062 1.65625,-1.34375 1.09375,-0.46875 2.64063,-0.46875 2.51562,0 3.78125,1.10938 1.28125,1.09375 1.34375,2.9375 l -2.70313,0.10937 q -0.17187,-1.03125 -0.75,-1.46875 -0.5625,-0.45312 -1.70312,-0.45312 -1.17188,0 -1.84375,0.46875 -0.42188,0.3125 -0.42188,0.84375 0,0.46875 0.40625,0.79687 0.5,0.4375 2.46875,0.90625 1.96875,0.45313 2.90625,0.95313 0.95313,0.5 1.48438,1.35937 0.53125,0.85938 0.53125,2.125 0,1.15625 -0.64063,2.15625 -0.64062,1 -1.8125,1.48438 -1.15625,0.48437 -2.89062,0.48437 -2.53125,0 -3.89063,-1.17187 -1.35937,-1.17188 -1.625,-3.40625 z m 17.55298,-5.32813 v 2.03125 h -1.75 v 3.90625 q 0,1.1875 0.0469,1.39063 0.0469,0.1875 0.21875,0.3125 0.1875,0.125 0.4375,0.125 0.35938,0 1.03125,-0.25 l 0.21875,2 q -0.89062,0.375 -2.01562,0.375 -0.70313,0 -1.26563,-0.23438 -0.54687,-0.23437 -0.8125,-0.59375 -0.25,-0.375 -0.34375,-1 -0.0937,-0.45312 -0.0937,-1.8125 v -4.21875 h -1.17187 v -2.03125 h 1.17187 v -1.92187 l 2.57813,-1.5 v 3.42187 z m 1.1814,4.70313 q 0,-1.28125 0.625,-2.46875 0.625,-1.20313 1.78125,-1.82813 1.15625,-0.625 2.57812,-0.625 2.1875,0 3.59375,1.42188 1.40625,1.42187 1.40625,3.60937 0,2.1875 -1.42187,3.64063 -1.42188,1.4375 -3.5625,1.4375 -1.32813,0 -2.54688,-0.59375 -1.20312,-0.60938 -1.82812,-1.76563 -0.625,-1.17187 -0.625,-2.82812 z m 2.625,0.125 q 0,1.45312 0.67187,2.21875 0.6875,0.75 1.6875,0.75 1,0 1.67188,-0.75 0.6875,-0.76563 0.6875,-2.23438 0,-1.42187 -0.6875,-2.1875 -0.67188,-0.76562 -1.67188,-0.76562 -1,0 -1.6875,0.76562 -0.67187,0.76563 -0.67187,2.20313 z m 11.81787,4.84375 h -2.5625 v -9.67188 h 2.375 v 1.375 q 0.60937,-0.98437 1.09375,-1.28125 0.48437,-0.3125 1.10937,-0.3125 0.875,0 1.6875,0.48438 l -0.79687,2.23437 q -0.64063,-0.42187 -1.20313,-0.42187 -0.53125,0 -0.90625,0.29687 -0.375,0.29688 -0.59375,1.07813 -0.20312,0.76562 -0.20312,3.23437 z m 6.71338,-6.71875 -2.32813,-0.42188 q 0.40625,-1.40625 1.35938,-2.07812 0.95312,-0.67188 2.84375,-0.67188 1.70312,0 2.54687,0.40625 0.84375,0.40625 1.17188,1.03125 0.34375,0.625 0.34375,2.28125 l -0.0156,3 q 0,1.26563 0.10938,1.875 0.125,0.60938 0.46875,1.29688 h -2.53125 q -0.10938,-0.25 -0.25,-0.75 -0.0625,-0.23438 -0.0937,-0.3125 -0.65625,0.64062 -1.40625,0.96875 -0.73438,0.3125 -1.59375,0.3125 -1.48438,0 -2.34375,-0.8125 -0.85938,-0.8125 -0.85938,-2.04688 0,-0.82812 0.39063,-1.46875 0.39062,-0.64062 1.09375,-0.96875 0.70312,-0.34375 2.03125,-0.60937 1.79687,-0.32813 2.48437,-0.625 v -0.25 q 0,-0.75 -0.35937,-1.0625 -0.35938,-0.3125 -1.375,-0.3125 -0.6875,0 -1.07813,0.28125 -0.375,0.26562 -0.60937,0.9375 z m 3.42187,2.07812 q -0.48437,0.15625 -1.5625,0.39063 -1.0625,0.21875 -1.39062,0.4375 -0.5,0.35937 -0.5,0.90625 0,0.53125 0.40625,0.9375 0.40625,0.39062 1.01562,0.39062 0.70313,0 1.32813,-0.46875 0.46875,-0.34375 0.60937,-0.84375 0.0937,-0.32812 0.0937,-1.25 z m 4.81323,5.28125 2.92188,0.35938 q 0.0625,0.5 0.32812,0.6875 0.375,0.28125 1.15625,0.28125 1,0 1.5,-0.29688 0.32813,-0.20312 0.51563,-0.65625 0.10937,-0.3125 0.10937,-1.17187 v -1.40625 q -1.14062,1.5625 -2.89062,1.5625 -1.95313,0 -3.09375,-1.65625 -0.89063,-1.29688 -0.89063,-3.23438 0,-2.4375 1.17188,-3.71875 1.17187,-1.28125 2.90625,-1.28125 1.79687,0 2.96875,1.57813 v -1.35938 h 2.39062 v 8.67188 q 0,1.71875 -0.28125,2.5625 -0.28125,0.84375 -0.79687,1.32812 -0.5,0.48438 -1.35938,0.75 -0.84375,0.28125 -2.15625,0.28125 -2.45312,0 -3.48437,-0.84375 -1.03125,-0.84375 -1.03125,-2.125 0,-0.14062 0.0156,-0.3125 z m 2.28125,-5.67187 q 0,1.53125 0.59375,2.25 0.59375,0.71875 1.46875,0.71875 0.9375,0 1.57813,-0.73438 0.65625,-0.73437 0.65625,-2.17187 0,-1.51563 -0.625,-2.23438 -0.60938,-0.73437 -1.5625,-0.73437 -0.92188,0 -1.51563,0.71875 -0.59375,0.71875 -0.59375,2.1875 z m 14.94287,1.95312 2.54688,0.42188 q -0.48438,1.40625 -1.54688,2.14062 -1.0625,0.73438 -2.65625,0.73438 -2.51562,0 -3.73437,-1.65625 -0.95313,-1.3125 -0.95313,-3.32813 0,-2.40625 1.25,-3.76562 1.26563,-1.35938 3.1875,-1.35938 2.15625,0 3.40625,1.42188 1.25,1.42187 1.1875,4.375 h -6.40625 q 0.0312,1.14062 0.60938,1.78125 0.59375,0.625 1.48437,0.625 0.59375,0 1,-0.32813 0.42188,-0.32812 0.625,-1.0625 z m 0.15625,-2.59375 q -0.0312,-1.10937 -0.57812,-1.6875 -0.54688,-0.57812 -1.32813,-0.57812 -0.84375,0 -1.39062,0.60937 -0.54688,0.60938 -0.53125,1.65625 z"
       id="path47"
       inkscape:connector-curvature="0"
       style="fill:#000000;fill-rule:nonzero" />
    <path
       d="m 66.115585,243.39764 h 31.012924 c 1.325409,0 2.596542,0.5265 3.533741,1.46371 0.93721,0.93721 1.46373,2.20835 1.46373,3.53376 v 24.98678 c 0,1.9e-4 -1.5e-4,3.4e-4 -3.4e-4,3.4e-4 l -41.00753,-3.4e-4 v 0 c -1.9e-4,0 -3.43e-4,-1.5e-4 -3.43e-4,-3.3e-4 l 3.43e-4,-24.98645 v 0 c 0,-2.76003 2.237446,-4.99747 4.997475,-4.99747 z"
       id="path49"
       inkscape:connector-curvature="0"
       style="fill:#666666;fill-rule:evenodd" />
    <path
       d="m 64.614174,220.40552 v 0 c 0,-9.39319 7.614685,-17.00787 17.007874,-17.00787 v 0 c 4.510765,0 8.836784,1.79188 12.026382,4.98149 3.189598,3.18959 4.981491,7.51561 4.981491,12.02638 v 0 c 0,9.39319 -7.614685,17.00787 -17.007874,17.00787 v 0 c -9.393188,0 -17.007874,-7.61468 -17.007873,-17.00787 z"
       id="path51"
       inkscape:connector-curvature="0"
       style="fill:#666666;fill-rule:evenodd" />
    <path
       d="m 51.622047,273.3819 h 60.000003 v 34.01575 H 51.622047 Z"
       id="path53"
       inkscape:connector-curvature="0"
       style="fill:#000000;fill-opacity:0;fill-rule:evenodd" />
    <path
       d="m 72.13044,286.9425 h 1.765625 v 7.71875 q 0,2.01562 -0.453125,3.20312 -0.453125,1.1875 -1.640625,1.9375 -1.1875,0.73438 -3.125,0.73438 -1.875,0 -3.078125,-0.64063 -1.1875,-0.65625 -1.703125,-1.875 -0.5,-1.23437 -0.5,-3.35937 v -7.71875 h 1.765625 v 7.71875 q 0,1.73437 0.3125,2.5625 0.328125,0.8125 1.109375,1.26562 0.796875,0.45313 1.9375,0.45313 1.953125,0 2.78125,-0.89063 0.828125,-0.89062 0.828125,-3.39062 z m 3.847946,10.46875 1.625,-0.25 q 0.125,0.96875 0.75,1.5 0.625,0.51562 1.75,0.51562 1.125,0 1.671875,-0.45312 0.546875,-0.46875 0.546875,-1.09375 0,-0.54688 -0.484375,-0.875 -0.328125,-0.21875 -1.671875,-0.54688 -1.8125,-0.46875 -2.515625,-0.79687 -0.6875,-0.32813 -1.046875,-0.90625 -0.359375,-0.59375 -0.359375,-1.3125 0,-0.64063 0.296875,-1.1875 0.296875,-0.5625 0.8125,-0.92188 0.375,-0.28125 1.03125,-0.46875 0.671875,-0.20312 1.421875,-0.20312 1.140625,0 2,0.32812 0.859375,0.32813 1.265625,0.89063 0.421875,0.5625 0.578125,1.5 l -1.609375,0.21875 q -0.109375,-0.75 -0.640625,-1.17188 -0.515625,-0.42187 -1.46875,-0.42187 -1.140625,0 -1.625,0.375 -0.46875,0.375 -0.46875,0.875 0,0.3125 0.1875,0.57812 0.203125,0.26563 0.640625,0.4375 0.234375,0.0937 1.4375,0.42188 1.75,0.45312 2.4375,0.75 0.6875,0.29687 1.078125,0.85937 0.390625,0.5625 0.390625,1.40625 0,0.82813 -0.484375,1.54688 -0.46875,0.71875 -1.375,1.125 -0.90625,0.39062 -2.046875,0.39062 -1.875,0 -2.875,-0.78125 -0.984375,-0.78125 -1.25,-2.32812 z m 16.609375,-0.21875 1.6875,0.20312 q -0.40625,1.48438 -1.484375,2.3125 -1.078125,0.8125 -2.765625,0.8125 -2.125,0 -3.375,-1.29687 -1.234375,-1.3125 -1.234375,-3.67188 0,-2.45312 1.25,-3.79687 1.265625,-1.34375 3.265625,-1.34375 1.9375,0 3.15625,1.32812 1.234375,1.3125 1.234375,3.70313 0,0.15625 0,0.4375 h -7.21875 q 0.09375,1.59375 0.90625,2.45312 0.8125,0.84375 2.015625,0.84375 0.90625,0 1.546875,-0.46875 0.640625,-0.48437 1.015625,-1.51562 z m -5.390625,-2.65625 h 5.40625 q -0.109375,-1.21875 -0.625,-1.82813 -0.78125,-0.95312 -2.03125,-0.95312 -1.125,0 -1.90625,0.76562 -0.765625,0.75 -0.84375,2.01563 z m 9.125717,5.76562 V 290.63 h 1.46875 v 1.46875 q 0.5625,-1.03125 1.03125,-1.35938 0.484375,-0.32812 1.0625,-0.32812 0.828127,0 1.687497,0.53125 l -0.5625,1.51562 q -0.60937,-0.35937 -1.203122,-0.35937 -0.546875,0 -0.96875,0.32812 -0.421875,0.32813 -0.609375,0.89063 -0.28125,0.875 -0.28125,1.92187 v 5.0625 z"
       id="path55"
       inkscape:connector-curvature="0"
       style="fill:#000000;fill-rule:nonzero" />
    <path
       d="m 166.10236,175.55647 h 106.66626 l 21.33374,21.33375 v 138.35129 h -128 z"
       id="path57"
       inkscape:connector-curvature="0"
       style="fill:#000000;fill-opacity:0;fill-rule:evenodd" />
    <path
       d="m 166.10236,175.55647 h 106.66626 l 21.33374,21.33375 v 138.35129 h -128 z"
       id="path59"
       inkscape:connector-curvature="0"
       style="fill-rule:evenodd;stroke:#000000;stroke-width:3;stroke-linecap:butt;stroke-linejoin:round" />
    <path
       d="m 166.11023,190.92587 h 128 v 34.01575 h -128 z"
       id="path61"
       inkscape:connector-curvature="0"
       style="fill:#000000;fill-opacity:0;fill-rule:evenodd" />
    <path
       d="m 179.4696,217.84587 v -11.09375 h -3.95312 v -2.26563 h 10.60937 v 2.26563 h -3.95312 v 11.09375 z m 7.14598,0 3.48438,-4.98438 -3.34375,-4.6875 h 3.125 l 1.71875,2.65625 1.79687,-2.65625 h 3.01563 l -3.28125,4.57813 3.57812,5.09375 h -3.14062 l -1.96875,-3 -1.98438,3 z"
       id="path63"
       inkscape:connector-curvature="0"
       style="fill:#000000;fill-rule:nonzero" />
    <path
       d="m 102.12598,258.38977 41.25985,1.07086"
       id="path65"
       inkscape:connector-curvature="0"
       style="fill:#000000;fill-opacity:0;fill-rule:evenodd" />
    <path
       d="m 102.12598,258.38977 23.2659,0.60382"
       id="path67"
       inkscape:connector-curvature="0"
       style="fill-rule:evenodd;stroke:#000000;stroke-width:3;stroke-linecap:butt;stroke-linejoin:round" />
    <path
       d="m 125.26332,263.94714 13.73828,-4.60031 -13.48115,-5.30675 z"
       id="path69"
       inkscape:connector-curvature="0"
       style="fill:#000000;fill-rule:evenodd;stroke:#000000;stroke-width:3;stroke-linecap:butt" />
    <path
       d="m 117.37795,212.45013 h 20.00001 v 29.98425 h -20.00001 z"
       id="path71"
       inkscape:connector-curvature="0"
       style="fill:#000000;fill-opacity:0;fill-rule:evenodd" />
    <path
       d="m 133.33109,239.37013 h -1.64063 V 228.917 q -0.59375,0.5625 -1.5625,1.14063 -0.95312,0.5625 -1.71875,0.84375 v -1.59375 q 1.375,-0.64063 2.40625,-1.5625 1.03125,-0.92188 1.45313,-1.78125 h 1.0625 z"
       id="path73"
       inkscape:connector-curvature="0"
       style="fill:#000000;fill-rule:nonzero" />
    <path
       d="M 177,238.24934 H 285 V 272.2651 H 177 Z"
       id="path75"
       inkscape:connector-curvature="0"
       style="fill:#6d9eeb;fill-rule:evenodd" />
    <path
       d="M 177,238.24934 H 285 V 272.2651 H 177 Z"
       id="path77"
       inkscape:connector-curvature="0"
       style="fill-rule:evenodd;stroke:#000000;stroke-width:3;stroke-linecap:butt;stroke-linejoin:round" />
    <path
       d="m 187.5,262.60934 v -11.45313 h 1.51562 v 11.45313 z m 9.38281,0 v -1.04688 q -0.78125,1.23438 -2.3125,1.23438 -1,0 -1.82812,-0.54688 -0.82813,-0.54687 -1.29688,-1.53125 -0.45312,-0.98437 -0.45312,-2.25 0,-1.25 0.40625,-2.25 0.42187,-1.01562 1.25,-1.54687 0.82812,-0.54688 1.85937,-0.54688 0.75,0 1.32813,0.3125 0.59375,0.3125 0.95312,0.82813 v -4.10938 h 1.40625 v 11.45313 z m -4.4375,-4.14063 q 0,1.59375 0.67188,2.39063 0.67187,0.78125 1.57812,0.78125 0.92188,0 1.5625,-0.75 0.65625,-0.76563 0.65625,-2.3125 0,-1.70313 -0.65625,-2.5 -0.65625,-0.79688 -1.625,-0.79688 -0.9375,0 -1.5625,0.76563 -0.625,0.76562 -0.625,2.42187 z m 8.35156,-2.5625 v -1.59375 h 1.59375 v 1.59375 z m 0,6.70313 v -1.60938 h 1.59375 v 1.60938 z"
       id="path79"
       inkscape:connector-curvature="0"
       style="fill:#000000;fill-rule:nonzero" />
    <path
       d="m 208.23438,262.60934 3.92187,-5.98438 -3.54687,-5.46875 h 2.70312 l 2.29688,3.67188 2.25,-3.67188 h 2.67187 l -3.5625,5.5625 3.92188,5.89063 h -2.79688 l -2.53125,-3.96875 -2.54687,3.96875 z"
       id="path81"
       inkscape:connector-curvature="0"
       style="fill:#000000;fill-rule:nonzero" />
    <path
       d="m 177.84375,279.24933 h 106.39371 v 41.98425 H 177.84375 Z"
       id="path83"
       inkscape:connector-curvature="0"
       style="fill:#000000;fill-opacity:0;fill-rule:evenodd" />
    <path
       d="m 177.84375,279.24933 h 106.39371 v 41.98425 H 177.84375 Z"
       id="path85"
       inkscape:connector-curvature="0"
       style="fill-rule:evenodd;stroke:#000000;stroke-width:3;stroke-linecap:butt;stroke-linejoin:round" />
    <path
       d="m 188.01562,303.60934 v -11.45313 h 3.70313 q 2.10937,0 2.75,0.17188 0.98437,0.25 1.64062,1.125 0.67188,0.85937 0.67188,2.21875 0,1.0625 -0.39063,1.78125 -0.375,0.71875 -0.96875,1.125 -0.57812,0.40625 -1.1875,0.54687 -0.82812,0.15625 -2.40625,0.15625 h -1.5 v 4.32813 z m 2.3125,-9.51563 v 3.25 h 1.26563 q 1.35937,0 1.8125,-0.17187 0.46875,-0.1875 0.73437,-0.5625 0.26563,-0.39063 0.26563,-0.90625 0,-0.625 -0.375,-1.03125 -0.35938,-0.40625 -0.92188,-0.5 -0.42187,-0.0781 -1.67187,-0.0781 z m 9.98438,3.75 -2,-0.35937 q 0.34375,-1.20313 1.15625,-1.78125 0.82812,-0.57813 2.4375,-0.57813 1.46875,0 2.1875,0.34375 0.71875,0.34375 1.01562,0.89063 0.29688,0.53125 0.29688,1.95312 l -0.0312,2.5625 q 0,1.09375 0.10937,1.625 0.10938,0.51563 0.39063,1.10938 h -2.17188 q -0.0781,-0.21875 -0.20312,-0.65625 -0.0625,-0.1875 -0.0781,-0.25 -0.5625,0.54687 -1.20312,0.82812 -0.64063,0.26563 -1.375,0.26563 -1.28125,0 -2.01563,-0.6875 -0.73437,-0.70313 -0.73437,-1.76563 0,-0.70312 0.32812,-1.25 0.34375,-0.5625 0.9375,-0.84375 0.60938,-0.29687 1.75,-0.51562 1.54688,-0.29688 2.14063,-0.54688 v -0.21875 q 0,-0.625 -0.3125,-0.89062 -0.3125,-0.28125 -1.1875,-0.28125 -0.57813,0 -0.90625,0.23437 -0.32813,0.23438 -0.53125,0.8125 z m 2.9375,1.78125 q -0.42188,0.14063 -1.34375,0.34375 -0.90625,0.1875 -1.1875,0.375 -0.4375,0.29688 -0.4375,0.76563 0,0.46875 0.34375,0.8125 0.34375,0.32812 0.875,0.32812 0.59375,0 1.14062,-0.39062 0.39063,-0.29688 0.51563,-0.73438 0.0937,-0.28125 0.0937,-1.0625 z m 3.27343,-4.3125 h 2.34375 l 1.98438,5.89063 1.9375,-5.89063 h 2.26562 l -2.92187,7.98438 -0.53125,1.45312 q -0.28125,0.71875 -0.54688,1.09375 -0.26562,0.39063 -0.60937,0.625 -0.32813,0.25 -0.82813,0.375 -0.5,0.14063 -1.125,0.14063 -0.625,0 -1.23437,-0.14063 l -0.20313,-1.71875 q 0.51563,0.10938 0.9375,0.10938 0.76563,0 1.125,-0.45313 0.375,-0.45312 0.5625,-1.14062 z m 9.94532,8.29688 v -11.45313 h 2.1875 v 11.45313 z m 3.92968,-4.26563 q 0,-1.09375 0.53125,-2.10937 0.54688,-1.03125 1.53125,-1.5625 1,-0.54688 2.21875,-0.54688 1.875,0 3.07813,1.21875 1.20312,1.21875 1.20312,3.09375 0,1.875 -1.21875,3.125 -1.20312,1.23438 -3.04687,1.23438 -1.14063,0 -2.1875,-0.51563 -1.03125,-0.51562 -1.57813,-1.51562 -0.53125,-1 -0.53125,-2.42188 z m 2.25,0.10938 q 0,1.23437 0.57813,1.89062 0.59375,0.65625 1.45312,0.65625 0.85938,0 1.4375,-0.65625 0.59375,-0.65625 0.59375,-1.90625 0,-1.21875 -0.59375,-1.875 -0.57812,-0.65625 -1.4375,-0.65625 -0.85937,0 -1.45312,0.65625 -0.57813,0.65625 -0.57813,1.89063 z m 9.67969,-1.60938 -2,-0.35937 q 0.34375,-1.20313 1.15625,-1.78125 0.82813,-0.57813 2.4375,-0.57813 1.46875,0 2.1875,0.34375 0.71875,0.34375 1.01563,0.89063 0.29687,0.53125 0.29687,1.95312 l -0.0312,2.5625 q 0,1.09375 0.10938,1.625 0.10937,0.51563 0.39062,1.10938 h -2.17187 q -0.0781,-0.21875 -0.20313,-0.65625 -0.0625,-0.1875 -0.0781,-0.25 -0.5625,0.54687 -1.20313,0.82812 -0.64062,0.26563 -1.375,0.26563 -1.28125,0 -2.01562,-0.6875 -0.73438,-0.70313 -0.73438,-1.76563 0,-0.70312 0.32813,-1.25 0.34375,-0.5625 0.9375,-0.84375 0.60937,-0.29687 1.75,-0.51562 1.54687,-0.29688 2.14062,-0.54688 v -0.21875 q 0,-0.625 -0.3125,-0.89062 -0.3125,-0.28125 -1.1875,-0.28125 -0.57812,0 -0.90625,0.23437 -0.32812,0.23438 -0.53125,0.8125 z m 2.9375,1.78125 q -0.42187,0.14063 -1.34375,0.34375 -0.90625,0.1875 -1.1875,0.375 -0.4375,0.29688 -0.4375,0.76563 0,0.46875 0.34375,0.8125 0.34375,0.32812 0.875,0.32812 0.59375,0 1.14063,-0.39062 0.39062,-0.29688 0.51562,-0.73438 0.0937,-0.28125 0.0937,-1.0625 z m 11.92969,3.98438 h -2.04688 v -1.21875 q -0.5,0.70312 -1.20312,1.0625 -0.6875,0.34375 -1.39063,0.34375 -1.42187,0 -2.45312,-1.15625 -1.01563,-1.15625 -1.01563,-3.21875 0,-2.10938 0.98438,-3.20313 1,-1.09375 2.51562,-1.09375 1.39063,0 2.40625,1.15625 v -4.125 h 2.20313 z m -5.85938,-4.32813 q 0,1.32813 0.35938,1.92188 0.53125,0.85937 1.48437,0.85937 0.76563,0 1.29688,-0.64062 0.53125,-0.65625 0.53125,-1.9375 0,-1.42188 -0.51563,-2.04688 -0.51562,-0.64062 -1.32812,-0.64062 -0.78125,0 -1.3125,0.625 -0.51563,0.625 -0.51563,1.85937 z"
       id="path87"
       inkscape:connector-curvature="0"
       style="fill:#000000;fill-rule:nonzero" />
    <path
       d="m 607.5906,296.95013 h 116.18897 v 53.98425 H 607.5906 Z"
       id="path89"
       inkscape:connector-curvature="0"
       style="fill:#fff2cc;fill-rule:evenodd" />
    <path
       d="m 607.5906,296.95013 h 116.18897 v 53.98425 H 607.5906 Z"
       id="path91"
       inkscape:connector-curvature="0"
       style="fill-rule:evenodd;stroke:#000000;stroke-width:3;stroke-linecap:butt;stroke-linejoin:round" />
    <path
       d="m 617.76245,321.31012 v -11.45313 h 2.3125 v 4.5 h 4.53125 v -4.5 h 2.3125 v 11.45313 h -2.3125 v -5.01563 h -4.53125 v 5.01563 z m 16.33594,-2.64063 2.1875,0.35938 q -0.42188,1.20312 -1.32813,1.84375 -0.90625,0.625 -2.28125,0.625 -2.15625,0 -3.20312,-1.42188 -0.8125,-1.125 -0.8125,-2.85937 0,-2.0625 1.07812,-3.21875 1.07813,-1.17188 2.71875,-1.17188 1.85938,0 2.92188,1.21875 1.07812,1.21875 1.03125,3.75 h -5.5 q 0.0156,0.96875 0.51562,1.51563 0.51563,0.54687 1.28125,0.54687 0.51563,0 0.85938,-0.28125 0.35937,-0.28125 0.53125,-0.90625 z m 0.125,-2.21875 q -0.0156,-0.95312 -0.48438,-1.45312 -0.46875,-0.5 -1.14062,-0.5 -0.71875,0 -1.1875,0.53125 -0.46875,0.51562 -0.46875,1.42187 z m 3.97656,4.85938 v -11.45313 h 2.1875 v 11.45313 z m 4.44531,0 v -11.45313 h 2.1875 v 11.45313 z m 3.92969,-4.26563 q 0,-1.09375 0.53125,-2.10937 0.54688,-1.03125 1.53125,-1.5625 1,-0.54688 2.21875,-0.54688 1.875,0 3.07813,1.21875 1.20312,1.21875 1.20312,3.09375 0,1.875 -1.21875,3.125 -1.20312,1.23438 -3.04687,1.23438 -1.14063,0 -2.1875,-0.51563 -1.03125,-0.51562 -1.57813,-1.51562 -0.53125,-1 -0.53125,-2.42188 z m 2.25,0.10938 q 0,1.23437 0.57813,1.89062 0.59375,0.65625 1.45312,0.65625 0.85938,0 1.4375,-0.65625 0.59375,-0.65625 0.59375,-1.90625 0,-1.21875 -0.59375,-1.875 -0.57812,-0.65625 -1.4375,-0.65625 -0.85937,0 -1.45312,0.65625 -0.57813,0.65625 -0.57813,1.89063 z m 14.03125,4.15625 -2.625,-8.29688 h 2.125 l 1.5625,5.4375 1.42188,-5.4375 h 2.125 l 1.375,5.4375 1.59375,-5.4375 h 2.15625 l -2.65625,8.29688 h -2.10938 l -1.4375,-5.34375 -1.40625,5.34375 z m 10.38281,-4.26563 q 0,-1.09375 0.53125,-2.10937 0.54688,-1.03125 1.53125,-1.5625 1,-0.54688 2.21875,-0.54688 1.875,0 3.07813,1.21875 1.20312,1.21875 1.20312,3.09375 0,1.875 -1.21875,3.125 -1.20312,1.23438 -3.04687,1.23438 -1.14063,0 -2.1875,-0.51563 -1.03125,-0.51562 -1.57813,-1.51562 -0.53125,-1 -0.53125,-2.42188 z m 2.25,0.10938 q 0,1.23437 0.57813,1.89062 0.59375,0.65625 1.45312,0.65625 0.85938,0 1.4375,-0.65625 0.59375,-0.65625 0.59375,-1.90625 0,-1.21875 -0.59375,-1.875 -0.57812,-0.65625 -1.4375,-0.65625 -0.85937,0 -1.45312,0.65625 -0.57813,0.65625 -0.57813,1.89063 z m 10.13282,4.15625 h -2.1875 v -8.29688 h 2.03125 v 1.17188 q 0.53125,-0.82813 0.9375,-1.09375 0.42187,-0.26563 0.95312,-0.26563 0.75,0 1.45313,0.40625 l -0.6875,1.92188 q -0.54688,-0.35938 -1.03125,-0.35938 -0.45313,0 -0.78125,0.25 -0.3125,0.25 -0.5,0.92188 -0.1875,0.65625 -0.1875,2.78125 z m 4.13281,0 v -11.45313 h 2.1875 v 11.45313 z m 12.05469,0 h -2.04688 v -1.21875 q -0.5,0.70312 -1.20312,1.0625 -0.6875,0.34375 -1.39063,0.34375 -1.42187,0 -2.45312,-1.15625 -1.01563,-1.15625 -1.01563,-3.21875 0,-2.10938 0.98438,-3.20313 1,-1.09375 2.51562,-1.09375 1.39063,0 2.40625,1.15625 v -4.125 h 2.20313 z m -5.85938,-4.32813 q 0,1.32813 0.35938,1.92188 0.53125,0.85937 1.48437,0.85937 0.76563,0 1.29688,-0.64062 0.53125,-0.65625 0.53125,-1.9375 0,-1.42188 -0.51563,-2.04688 -0.51562,-0.64062 -1.32812,-0.64062 -0.78125,0 -1.3125,0.625 -0.51563,0.625 -0.51563,1.85937 z"
       id="path93"
       inkscape:connector-curvature="0"
       style="fill:#000000;fill-rule:nonzero" />
    <path
       d="M 368.37796,308.44095 H 541.00787 V 350.4252 H 368.37796 Z"
       id="path95"
       inkscape:connector-curvature="0"
       style="fill:#6d9eeb;fill-rule:evenodd" />
    <path
       d="M 368.37796,308.44095 H 541.00787 V 350.4252 H 368.37796 Z"
       id="path97"
       inkscape:connector-curvature="0"
       style="fill-rule:evenodd;stroke:#000000;stroke-width:3;stroke-linecap:butt;stroke-linejoin:round" />
    <path
       d="M 378.54984,332.80093 V 321.3478 h 3.70313 q 2.10937,0 2.75,0.17188 0.98437,0.25 1.64062,1.125 0.67188,0.85937 0.67188,2.21875 0,1.0625 -0.39063,1.78125 -0.375,0.71875 -0.96875,1.125 -0.57812,0.40625 -1.1875,0.54687 -0.82812,0.15625 -2.40625,0.15625 h -1.5 v 4.32813 z m 2.3125,-9.51563 v 3.25 h 1.26563 q 1.35937,0 1.8125,-0.17187 0.46875,-0.1875 0.73437,-0.5625 0.26563,-0.39063 0.26563,-0.90625 0,-0.625 -0.375,-1.03125 -0.35938,-0.40625 -0.92188,-0.5 -0.42187,-0.0781 -1.67187,-0.0781 z m 10.4375,9.51563 h -2.1875 v -8.29688 h 2.03125 v 1.17188 q 0.53125,-0.82813 0.9375,-1.09375 0.42188,-0.26563 0.95313,-0.26563 0.75,0 1.45312,0.40625 l -0.6875,1.92188 q -0.54687,-0.35938 -1.03125,-0.35938 -0.45312,0 -0.78125,0.25 -0.3125,0.25 -0.5,0.92188 -0.1875,0.65625 -0.1875,2.78125 z m 3.61719,-4.26563 q 0,-1.09375 0.53125,-2.10937 0.54687,-1.03125 1.53125,-1.5625 1,-0.54688 2.21875,-0.54688 1.875,0 3.07812,1.21875 1.20313,1.21875 1.20313,3.09375 0,1.875 -1.21875,3.125 -1.20313,1.23438 -3.04688,1.23438 -1.14062,0 -2.1875,-0.51563 -1.03125,-0.51562 -1.57812,-1.51562 -0.53125,-1 -0.53125,-2.42188 z m 2.25,0.10938 q 0,1.23437 0.57812,1.89062 0.59375,0.65625 1.45313,0.65625 0.85937,0 1.4375,-0.65625 0.59375,-0.65625 0.59375,-1.90625 0,-1.21875 -0.59375,-1.875 -0.57813,-0.65625 -1.4375,-0.65625 -0.85938,0 -1.45313,0.65625 -0.57812,0.65625 -0.57812,1.89063 z m 15.27344,-1.6875 -2.17188,0.39062 q -0.10937,-0.65625 -0.5,-0.98437 -0.375,-0.32813 -1,-0.32813 -0.8125,0 -1.3125,0.57813 -0.48437,0.5625 -0.48437,1.89062 0,1.46875 0.5,2.07813 0.5,0.60937 1.32812,0.60937 0.625,0 1.01563,-0.34375 0.40625,-0.35937 0.57812,-1.23437 l 2.15625,0.375 q -0.34375,1.48437 -1.29687,2.25 -0.95313,0.75 -2.54688,0.75 -1.82812,0 -2.90625,-1.14063 -1.07812,-1.15625 -1.07812,-3.1875 0,-2.0625 1.07812,-3.20312 1.09375,-1.14063 2.9375,-1.14063 1.51563,0 2.40625,0.65625 0.90625,0.64063 1.29688,1.98438 z m 6.46093,3.20312 2.1875,0.35938 q -0.42187,1.20312 -1.32812,1.84375 -0.90625,0.625 -2.28125,0.625 -2.15625,0 -3.20313,-1.42188 -0.8125,-1.125 -0.8125,-2.85937 0,-2.0625 1.07813,-3.21875 1.07812,-1.17188 2.71875,-1.17188 1.85937,0 2.92187,1.21875 1.07813,1.21875 1.03125,3.75 h -5.5 q 0.0156,0.96875 0.51563,1.51563 0.51562,0.54687 1.28125,0.54687 0.51562,0 0.85937,-0.28125 0.35938,-0.28125 0.53125,-0.90625 z m 0.125,-2.21875 q -0.0156,-0.95312 -0.48437,-1.45312 -0.46875,-0.5 -1.14063,-0.5 -0.71875,0 -1.1875,0.53125 -0.46875,0.51562 -0.46875,1.42187 z m 11.58594,4.85938 h -2.04687 v -1.21875 q -0.5,0.70312 -1.20313,1.0625 -0.6875,0.34375 -1.39062,0.34375 -1.42188,0 -2.45313,-1.15625 -1.01562,-1.15625 -1.01562,-3.21875 0,-2.10938 0.98437,-3.20313 1,-1.09375 2.51563,-1.09375 1.39062,0 2.40625,1.15625 v -4.125 h 2.20312 z m -5.85937,-4.32813 q 0,1.32813 0.35937,1.92188 0.53125,0.85937 1.48438,0.85937 0.76562,0 1.29687,-0.64062 0.53125,-0.65625 0.53125,-1.9375 0,-1.42188 -0.51562,-2.04688 -0.51563,-0.64062 -1.32813,-0.64062 -0.78125,0 -1.3125,0.625 -0.51562,0.625 -0.51562,1.85937 z m 13.47656,4.32813 v -1.25 q -0.45313,0.67187 -1.1875,1.0625 -0.73438,0.375 -1.5625,0.375 -0.82813,0 -1.5,-0.35938 -0.65625,-0.375 -0.95313,-1.03125 -0.29687,-0.67187 -0.29687,-1.84375 v -5.25 h 2.1875 v 3.8125 q 0,1.75 0.125,2.14063 0.125,0.39062 0.4375,0.625 0.32812,0.23437 0.8125,0.23437 0.5625,0 1,-0.3125 0.45312,-0.3125 0.60937,-0.76562 0.17188,-0.45313 0.17188,-2.23438 v -3.5 h 2.20312 v 8.29688 z m 6.41406,0 h -2.1875 v -8.29688 h 2.03125 v 1.17188 q 0.53125,-0.82813 0.9375,-1.09375 0.42188,-0.26563 0.95313,-0.26563 0.75,0 1.45312,0.40625 l -0.6875,1.92188 q -0.54687,-0.35938 -1.03125,-0.35938 -0.45312,0 -0.78125,0.25 -0.3125,0.25 -0.5,0.92188 -0.1875,0.65625 -0.1875,2.78125 z m 8.92969,-2.64063 2.1875,0.35938 q -0.42188,1.20312 -1.32813,1.84375 -0.90625,0.625 -2.28125,0.625 -2.15625,0 -3.20312,-1.42188 -0.8125,-1.125 -0.8125,-2.85937 0,-2.0625 1.07812,-3.21875 1.07813,-1.17188 2.71875,-1.17188 1.85938,0 2.92188,1.21875 1.07812,1.21875 1.03125,3.75 h -5.5 q 0.0156,0.96875 0.51562,1.51563 0.51563,0.54687 1.28125,0.54687 0.51563,0 0.85938,-0.28125 0.35937,-0.28125 0.53125,-0.90625 z m 0.125,-2.21875 q -0.0156,-0.95312 -0.48438,-1.45312 -0.46875,-0.5 -1.14062,-0.5 -0.71875,0 -1.1875,0.53125 -0.46875,0.51562 -0.46875,1.42187 z m 7.26562,4.85938 3.92188,-5.98438 -3.54688,-5.46875 h 2.70313 l 2.29687,3.67188 2.25,-3.67188 h 2.67188 l -3.5625,5.5625 3.92187,5.89063 h -2.79687 l -2.53125,-3.96875 -2.54688,3.96875 z"
       id="path99"
       inkscape:connector-curvature="0"
       style="fill:#000000;fill-rule:nonzero" />
    <path
       d="m 541.0079,329.43307 c 12.06103,0 18.09064,-9.26773 24.12213,-18.53543 6.03149,-9.26773 12.06494,-18.53543 24.12982,-18.53543"
       id="path101"
       inkscape:connector-curvature="0"
       style="fill:#000000;fill-opacity:0;fill-rule:evenodd" />
    <path
       d="m 541.0079,329.43307 c 12.06103,0 18.09064,-9.26773 24.12213,-18.53543 1.50787,-2.31693 3.01587,-4.63385 4.61816,-6.806 0.80121,-1.08606 1.62592,-2.13589 2.48603,-3.13147 0.21502,-0.2489 0.43225,-0.49438 0.65191,-0.73621 l 0.11915,-0.12945"
       id="path103"
       inkscape:connector-curvature="0"
       style="fill-rule:evenodd;stroke:#000000;stroke-width:3;stroke-linecap:butt;stroke-linejoin:round" />
    <path
       d="m 575.1339,304.5692 10.16547,-10.32303 -14.42273,1.37363 z"
       id="path105"
       inkscape:connector-curvature="0"
       style="fill:#000000;fill-rule:evenodd;stroke:#000000;stroke-width:3;stroke-linecap:butt" />
    <path
       d="m 407.5551,271.3832 h 20 v 29.98425 h -20 z"
       id="path107"
       inkscape:connector-curvature="0"
       style="fill:#000000;fill-opacity:0;fill-rule:evenodd" />
    <path
       d="m 417.33636,294.77194 1.64063,-0.21875 q 0.28125,1.40625 0.95312,2.01562 0.6875,0.60938 1.65625,0.60938 1.15625,0 1.95313,-0.79688 0.79687,-0.79687 0.79687,-1.98437 0,-1.125 -0.73437,-1.85938 -0.73438,-0.73437 -1.875,-0.73437 -0.46875,0 -1.15625,0.17187 l 0.1875,-1.4375 q 0.15625,0.0156 0.26562,0.0156 1.04688,0 1.875,-0.54688 0.84375,-0.54687 0.84375,-1.67187 0,-0.90625 -0.60937,-1.5 -0.60938,-0.59375 -1.57813,-0.59375 -0.95312,0 -1.59375,0.60937 -0.64062,0.59375 -0.8125,1.79688 l -1.64062,-0.29688 q 0.29687,-1.64062 1.35937,-2.54687 1.0625,-0.90625 2.65625,-0.90625 1.09375,0 2,0.46875 0.92188,0.46875 1.40625,1.28125 0.5,0.8125 0.5,1.71875 0,0.85937 -0.46875,1.57812 -0.46875,0.70313 -1.375,1.125 1.1875,0.28125 1.84375,1.14063 0.65625,0.85937 0.65625,2.15625 0,1.73437 -1.28125,2.95312 -1.26562,1.21875 -3.21875,1.21875 -1.76562,0 -2.92187,-1.04687 -1.15625,-1.04688 -1.32813,-2.71875 z"
       id="path109"
       inkscape:connector-curvature="0"
       style="fill:#000000;fill-rule:nonzero" />
    <path
       d="m 538.22046,275.24933 h 20 v 29.98425 h -20 z"
       id="path111"
       inkscape:connector-curvature="0"
       style="fill:#000000;fill-opacity:0;fill-rule:evenodd" />
    <path
       d="m 553.2517,302.16934 v -3.20313 h -5.79687 v -1.5 l 6.09375,-8.65625 h 1.34375 v 8.65625 h 1.79687 v 1.5 h -1.79687 v 3.20313 z m 0,-4.70313 v -6.01562 l -4.1875,6.01562 z"
       id="path113"
       inkscape:connector-curvature="0"
       style="fill:#000000;fill-rule:nonzero" />
  </g>
</svg>
