<?xml version="1.0" encoding="UTF-8" standalone="no"?>
<svg
   xmlns:dc="http://purl.org/dc/elements/1.1/"
   xmlns:cc="http://creativecommons.org/ns#"
   xmlns:rdf="http://www.w3.org/1999/02/22-rdf-syntax-ns#"
   xmlns:svg="http://www.w3.org/2000/svg"
   xmlns="http://www.w3.org/2000/svg"
   xmlns:sodipodi="http://sodipodi.sourceforge.net/DTD/sodipodi-0.dtd"
   xmlns:inkscape="http://www.inkscape.org/namespaces/inkscape"
   version="1.1"
   viewBox="0 0 620.08923 291.10345"
   stroke-miterlimit="10"
   id="svg153"
   sodipodi:docname="ProcedureCreation.svg"
   width="620.08923"
   height="291.10345"
   style="fill:none;stroke:none;stroke-linecap:square;stroke-miterlimit:10"
   inkscape:version="0.92.3 (2405546, 2018-03-11)">
  <metadata
     id="metadata159">
    <rdf:RDF>
      <cc:Work
         rdf:about="">
        <dc:format>image/svg+xml</dc:format>
        <dc:type
           rdf:resource="http://purl.org/dc/dcmitype/StillImage" />
        <dc:title></dc:title>
      </cc:Work>
    </rdf:RDF>
  </metadata>
  <defs
     id="defs157" />
  <sodipodi:namedview
     pagecolor="#ffffff"
     bordercolor="#666666"
     borderopacity="1"
     objecttolerance="10"
     gridtolerance="10"
     guidetolerance="10"
     inkscape:pageopacity="0"
     inkscape:pageshadow="2"
     inkscape:window-width="1920"
     inkscape:window-height="1001"
     id="namedview155"
     showgrid="false"
     fit-margin-top="0"
     fit-margin-left="0"
     fit-margin-right="0"
     fit-margin-bottom="0"
     inkscape:zoom="0.39333333"
     inkscape:cx="359.10236"
     inkscape:cy="305.81764"
     inkscape:window-x="-9"
     inkscape:window-y="-9"
     inkscape:window-maximized="1"
     inkscape:current-layer="g151" />
  <clipPath
     id="p.0">
    <path
       d="M 0,0 H 800 V 600 H 0 Z"
       id="path2"
       inkscape:connector-curvature="0"
       style="clip-rule:nonzero" />
  </clipPath>
  <g
     clip-path="url(#p.0)"
     id="g151"
     transform="translate(-40.897636,-111.32436)">
    <path
       d="M 41.992126,153.89502 H 147.97638 v 138.3356 l -17.6644,17.6644 H 41.992123 Z"
       id="path7"
       inkscape:connector-curvature="0"
       style="fill:#000000;fill-opacity:0;fill-rule:evenodd" />
    <path
       d="m 130.31198,309.89502 3.53288,-14.13153 14.13152,-3.53287 z"
       id="path9"
       inkscape:connector-curvature="0"
       style="fill:#000000;fill-opacity:0;fill-rule:evenodd" />
    <path
       d="m 130.31198,309.89502 3.53288,-14.13153 14.13152,-3.53287 -17.6644,17.6644 H 41.992125 v -156 H 147.97638 v 138.3356"
       id="path11"
       inkscape:connector-curvature="0"
       style="fill:#000000;fill-opacity:0;fill-rule:evenodd" />
    <path
       d="m 130.31198,309.89502 3.53288,-14.13153 14.13152,-3.53287 z"
       id="path13"
       inkscape:connector-curvature="0"
       style="fill:#000000;fill-opacity:0.2;fill-rule:evenodd" />
    <path
       d="m 130.31198,309.89502 3.53288,-14.13153 14.13152,-3.53287 -17.6644,17.6644 H 41.992125 v -156 H 147.97638 v 138.3356"
       id="path15"
       inkscape:connector-curvature="0"
       style="fill-rule:evenodd;stroke:#000000;stroke-width:1;stroke-linecap:butt;stroke-linejoin:round" />
    <path
       d="M 181.5853,147.39896 H 453.99475 V 318.89502 H 181.5853 Z"
       id="path17"
       inkscape:connector-curvature="0"
       style="fill:#000000;fill-opacity:0;fill-rule:evenodd" />
    <path
       d="M 181.5853,147.39896 H 453.99475 V 318.89502 H 181.5853 Z"
       id="path19"
       inkscape:connector-curvature="0"
       style="fill-rule:evenodd;stroke:#000000;stroke-width:1;stroke-linecap:butt;stroke-linejoin:round" />
    <path
       d="m 147.97638,231.89502 46.58267,19.74803"
       id="path21"
       inkscape:connector-curvature="0"
       style="fill:#000000;fill-opacity:0;fill-rule:evenodd" />
    <path
       d="m 147.97638,231.89502 41.05858,17.40616"
       id="path23"
       inkscape:connector-curvature="0"
       style="fill-rule:evenodd;stroke:#000000;stroke-width:1;stroke-linecap:butt;stroke-linejoin:round" />
    <path
       d="m 188.39027,250.82191 4.82283,0.25053 -3.53346,-3.29199 z"
       id="path25"
       inkscape:connector-curvature="0"
       style="fill:#000000;fill-rule:evenodd;stroke:#000000;stroke-width:1;stroke-linecap:butt" />
    <path
       d="M 194.56693,200.39896 H 298.47245 V 302.88715 H 194.56693 Z"
       id="path27"
       inkscape:connector-curvature="0"
       style="fill:#000000;fill-opacity:0;fill-rule:evenodd" />
    <path
       d="M 194.56693,200.39896 H 298.47245 V 302.88715 H 194.56693 Z"
       id="path29"
       inkscape:connector-curvature="0"
       style="fill-rule:evenodd;stroke:#000000;stroke-width:1;stroke-linecap:butt;stroke-linejoin:round" />
    <path
       d="m 209.26094,212.9029 h 73.4803 v 37.98425 h -73.4803 z"
       id="path31"
       inkscape:connector-curvature="0"
       style="fill:#fff2cc;fill-rule:evenodd" />
    <path
       d="m 218.74532,232.186 q 0,-2.10938 1.17187,-3.125 0.98438,-0.84375 2.39063,-0.84375 1.57812,0 2.5625,1.03125 1,1.01562 1,2.82812 0,1.46875 -0.4375,2.3125 -0.4375,0.82813 -1.28125,1.29688 -0.84375,0.46875 -1.84375,0.46875 -1.59375,0 -2.57813,-1.01563 -0.98437,-1.03125 -0.98437,-2.95312 z m 1.32812,0 q 0,1.45312 0.625,2.1875 0.64063,0.71875 1.60938,0.71875 0.96875,0 1.59375,-0.71875 0.64062,-0.73438 0.64062,-2.23438 0,-1.40625 -0.64062,-2.125 -0.64063,-0.73437 -1.59375,-0.73437 -0.96875,0 -1.60938,0.71875 -0.625,0.71875 -0.625,2.1875 z m 7.30736,6.70312 v -10.5 h 1.17188 v 0.98438 q 0.42187,-0.57813 0.9375,-0.85938 0.51562,-0.29687 1.26562,-0.29687 0.96875,0 1.71875,0.5 0.75,0.5 1.125,1.42187 0.375,0.90625 0.375,1.98438 0,1.17187 -0.42187,2.10937 -0.40625,0.92188 -1.21875,1.42188 -0.79688,0.5 -1.67188,0.5 -0.64062,0 -1.15625,-0.26563 -0.51562,-0.28125 -0.84375,-0.6875 v 3.6875 z m 1.15625,-6.65625 q 0,1.45313 0.59375,2.15625 0.60938,0.70313 1.45313,0.70313 0.85937,0 1.46875,-0.71875 0.60937,-0.73438 0.60937,-2.25 0,-1.45313 -0.60937,-2.17188 -0.59375,-0.73437 -1.42188,-0.73437 -0.8125,0 -1.45312,0.78125 -0.64063,0.76562 -0.64063,2.23437 z m 11.94799,0.96875 1.26562,0.15625 q -0.20312,1.3125 -1.0625,2.0625 -0.84375,0.73438 -2.09375,0.73438 -1.5625,0 -2.51562,-1.01563 -0.9375,-1.03125 -0.9375,-2.92187 0,-1.23438 0.40625,-2.15625 0.40625,-0.92188 1.23437,-1.375 0.84375,-0.46875 1.8125,-0.46875 1.25,0 2.03125,0.625 0.78125,0.625 1.01563,1.76562 l -1.26563,0.20313 q -0.17187,-0.76563 -0.625,-1.15625 -0.45312,-0.39063 -1.09375,-0.39063 -0.98437,0 -1.59375,0.70313 -0.60937,0.70312 -0.60937,2.20312 0,1.53125 0.57812,2.23438 0.59375,0.6875 1.54688,0.6875 0.75,0 1.26562,-0.45313 0.51563,-0.46875 0.64063,-1.4375 z m 1.89062,-1.01562 q 0,-2.10938 1.17188,-3.125 0.98437,-0.84375 2.39062,-0.84375 1.57813,0 2.5625,1.03125 1,1.01562 1,2.82812 0,1.46875 -0.4375,2.3125 -0.4375,0.82813 -1.28125,1.29688 -0.84375,0.46875 -1.84375,0.46875 -1.59375,0 -2.57812,-1.01563 -0.98438,-1.03125 -0.98438,-2.95312 z m 1.32813,0 q 0,1.45312 0.625,2.1875 0.64062,0.71875 1.60937,0.71875 0.96875,0 1.59375,-0.71875 0.64063,-0.73438 0.64063,-2.23438 0,-1.40625 -0.64063,-2.125 -0.64062,-0.73437 -1.59375,-0.73437 -0.96875,0 -1.60937,0.71875 -0.625,0.71875 -0.625,2.1875 z m 12.22923,3.79687 v -0.95312 q -0.71875,1.125 -2.125,1.125 -0.90625,0 -1.67188,-0.5 -0.75,-0.5 -1.17187,-1.39063 -0.42188,-0.90625 -0.42188,-2.07812 0,-1.14063 0.375,-2.0625 0.39063,-0.92188 1.14063,-1.40625 0.76562,-0.5 1.70312,-0.5 0.6875,0 1.21875,0.29687 0.53125,0.28125 0.875,0.73438 v -3.75 h 1.28125 v 10.48437 z m -4.0625,-3.79687 q 0,1.46875 0.60937,2.1875 0.625,0.71875 1.45313,0.71875 0.84375,0 1.4375,-0.6875 0.59375,-0.6875 0.59375,-2.10938 0,-1.5625 -0.60938,-2.28125 -0.59375,-0.73437 -1.48437,-0.73437 -0.84375,0 -1.42188,0.70312 -0.57812,0.70313 -0.57812,2.20313 z m 12.49484,1.34375 1.32813,0.17187 q -0.3125,1.17188 -1.17188,1.8125 -0.84375,0.64063 -2.17187,0.64063 -1.67188,0 -2.65625,-1.01563 -0.96875,-1.03125 -0.96875,-2.89062 0,-1.92188 0.98437,-2.96875 1,-1.0625 2.57813,-1.0625 1.51562,0 2.48437,1.03125 0.96875,1.03125 0.96875,2.92187 0,0.10938 -0.0156,0.34375 h -5.65625 q 0.0625,1.25 0.70312,1.92188 0.64063,0.65625 1.59375,0.65625 0.70313,0 1.20313,-0.35938 0.5,-0.375 0.79687,-1.20312 z m -4.23437,-2.07813 h 4.25 q -0.0937,-0.95312 -0.48438,-1.4375 -0.625,-0.75 -1.60937,-0.75 -0.875,0 -1.48438,0.59375 -0.60937,0.59375 -0.67187,1.59375 z"
       id="path33"
       inkscape:connector-curvature="0"
       style="fill:#000000;fill-rule:nonzero" />
    <path
       d="m 54.992126,261.89502 h 70.015754 v 37.98425 H 54.992126 Z"
       id="path35"
       inkscape:connector-curvature="0"
       style="fill:#b7b7b7;fill-rule:evenodd" />
    <path
       d="m 64.44525,282.70938 1.265625,-0.20313 q 0.109375,0.76563 0.59375,1.17188 0.5,0.40625 1.375,0.40625 0.890625,0 1.3125,-0.35938 0.4375,-0.35937 0.4375,-0.84375 0,-0.4375 -0.375,-0.6875 -0.265625,-0.17187 -1.3125,-0.4375 -1.421875,-0.35937 -1.96875,-0.60937 -0.546875,-0.26563 -0.828125,-0.73438 -0.28125,-0.46875 -0.28125,-1.01562 0,-0.51563 0.21875,-0.9375 0.234375,-0.4375 0.640625,-0.73438 0.296875,-0.21875 0.8125,-0.35937 0.53125,-0.15625 1.125,-0.15625 0.890625,0 1.5625,0.26562 0.671875,0.25 1,0.6875 0.328125,0.4375 0.4375,1.17188 l -1.25,0.17187 q -0.09375,-0.57812 -0.5,-0.90625 -0.40625,-0.34375 -1.15625,-0.34375 -0.890625,0 -1.28125,0.29688 -0.375,0.29687 -0.375,0.6875 0,0.25 0.15625,0.45312 0.15625,0.20313 0.5,0.34375 0.1875,0.0781 1.140625,0.32813 1.359375,0.35937 1.890625,0.59375 0.546875,0.23437 0.859375,0.6875 0.3125,0.4375 0.3125,1.09375 0,0.64062 -0.375,1.21875 -0.375,0.5625 -1.09375,0.875 -0.703125,0.3125 -1.59375,0.3125 -1.484375,0 -2.265625,-0.60938 -0.765625,-0.625 -0.984375,-1.82812 z m 7.78125,5.1875 -0.140625,-1.20313 q 0.421875,0.10938 0.734375,0.10938 0.4375,0 0.6875,-0.14063 0.265625,-0.14062 0.421875,-0.40625 0.125,-0.1875 0.390625,-0.95312 0.04687,-0.10938 0.125,-0.3125 l -2.890625,-7.60938 h 1.390625 l 1.578125,4.39063 q 0.3125,0.84375 0.546875,1.76562 0.234375,-0.89062 0.53125,-1.73437 l 1.625,-4.42188 h 1.296875 L 75.63275,285.1 q -0.46875,1.25 -0.734375,1.73438 -0.34375,0.625 -0.78125,0.92187 -0.4375,0.29688 -1.0625,0.29688 -0.375,0 -0.828125,-0.15625 z m 6.875,-5.1875 1.265625,-0.20313 q 0.109375,0.76563 0.59375,1.17188 0.5,0.40625 1.375,0.40625 0.890625,0 1.3125,-0.35938 0.4375,-0.35937 0.4375,-0.84375 0,-0.4375 -0.375,-0.6875 -0.265625,-0.17187 -1.3125,-0.4375 -1.421875,-0.35937 -1.96875,-0.60937 -0.546875,-0.26563 -0.828125,-0.73438 -0.28125,-0.46875 -0.28125,-1.01562 0,-0.51563 0.21875,-0.9375 0.234375,-0.4375 0.640625,-0.73438 0.296875,-0.21875 0.8125,-0.35937 0.53125,-0.15625 1.125,-0.15625 0.890625,0 1.5625,0.26562 0.671875,0.25 1,0.6875 0.328125,0.4375 0.4375,1.17188 l -1.25,0.17187 q -0.09375,-0.57812 -0.5,-0.90625 -0.40625,-0.34375 -1.15625,-0.34375 -0.890625,0 -1.28125,0.29688 -0.375,0.29687 -0.375,0.6875 0,0.25 0.15625,0.45312 0.15625,0.20313 0.5,0.34375 0.1875,0.0781 1.140625,0.32813 1.359375,0.35937 1.890625,0.59375 0.546875,0.23437 0.859375,0.6875 0.3125,0.4375 0.3125,1.09375 0,0.64062 -0.375,1.21875 -0.375,0.5625 -1.09375,0.875 -0.703125,0.3125 -1.59375,0.3125 -1.484375,0 -2.265625,-0.60938 -0.765625,-0.625 -0.984375,-1.82812 z M 91.898375,282.19375 93.164,282.35 q -0.203125,1.3125 -1.0625,2.0625 -0.84375,0.73438 -2.09375,0.73438 -1.5625,0 -2.515625,-1.01563 -0.9375,-1.03125 -0.9375,-2.92187 0,-1.23438 0.40625,-2.15625 0.40625,-0.92188 1.234375,-1.375 0.84375,-0.46875 1.8125,-0.46875 1.25,0 2.03125,0.625 0.78125,0.625 1.015625,1.76562 L 91.789,279.80313 q -0.171875,-0.76563 -0.625,-1.15625 -0.453125,-0.39063 -1.09375,-0.39063 -0.984375,0 -1.59375,0.70313 -0.609375,0.70312 -0.609375,2.20312 0,1.53125 0.578125,2.23438 0.59375,0.6875 1.546875,0.6875 0.75,0 1.265625,-0.45313 0.515625,-0.46875 0.640625,-1.4375 z m 7.328125,1.84375 q -0.71875,0.60938 -1.375,0.85938 -0.65625,0.25 -1.421875,0.25 -1.25,0 -1.921875,-0.60938 -0.671875,-0.60937 -0.671875,-1.5625 0,-0.5625 0.25,-1.01562 0.25,-0.46875 0.65625,-0.75 0.421875,-0.28125 0.9375,-0.42188 0.375,-0.0937 1.140625,-0.1875 1.5625,-0.1875 2.296875,-0.45312 0.01563,-0.26563 0.01563,-0.32813 0,-0.79687 -0.375,-1.10937 -0.484375,-0.4375 -1.453125,-0.4375 -0.921875,0 -1.359375,0.32812 -0.421875,0.3125 -0.625,1.10938 L 94.05463,279.5375 q 0.171875,-0.79687 0.5625,-1.29687 0.390625,-0.5 1.140625,-0.76563 0.75,-0.26562 1.71875,-0.26562 0.984375,0 1.59375,0.23437 0.609375,0.21875 0.890625,0.5625 0.28126,0.34375 0.40626,0.875 0.0625,0.32813 0.0625,1.1875 v 1.71875 q 0,1.79688 0.0781,2.28125 0.0781,0.46875 0.32813,0.90625 H 99.492125 Q 99.289,284.56875 99.2265,284.0375 Z m -0.109375,-2.875 q -0.703125,0.28125 -2.09375,0.48438 -0.796875,0.10937 -1.125,0.26562 -0.328125,0.14063 -0.515625,0.42188 -0.171875,0.26562 -0.171875,0.59375 0,0.51562 0.390625,0.85937 0.390625,0.34375 1.140625,0.34375 0.734375,0 1.3125,-0.3125 0.59375,-0.32812 0.859375,-0.89062 0.203125,-0.4375 0.203125,-1.29688 z m 3.276105,3.8125 v -10.48437 h 1.28125 V 284.975 Z m 3.25615,0 v -10.48437 h 1.28125 V 284.975 Z"
       id="path37"
       inkscape:connector-curvature="0"
       style="fill:#000000;fill-rule:nonzero" />
    <path
       d="m 207.69078,254.9029 h 73.4803 v 37.98425 h -73.4803 z"
       id="path39"
       inkscape:connector-curvature="0"
       style="fill:#ffe599;fill-rule:evenodd" />
    <path
       d="m 217.1439,275.71725 1.26562,-0.20313 q 0.10938,0.76563 0.59375,1.17188 0.5,0.40625 1.375,0.40625 0.89063,0 1.3125,-0.35938 0.4375,-0.35937 0.4375,-0.84375 0,-0.4375 -0.375,-0.6875 -0.26562,-0.17187 -1.3125,-0.4375 -1.42187,-0.35937 -1.96875,-0.60937 -0.54687,-0.26563 -0.82812,-0.73438 -0.28125,-0.46875 -0.28125,-1.01562 0,-0.51563 0.21875,-0.9375 0.23437,-0.4375 0.64062,-0.73438 0.29688,-0.21875 0.8125,-0.35937 0.53125,-0.15625 1.125,-0.15625 0.89063,0 1.5625,0.26562 0.67188,0.25 1,0.6875 0.32813,0.4375 0.4375,1.17188 l -1.25,0.17187 q -0.0937,-0.57812 -0.5,-0.90625 -0.40625,-0.34375 -1.15625,-0.34375 -0.89062,0 -1.28125,0.29688 -0.375,0.29687 -0.375,0.6875 0,0.25 0.15625,0.45312 0.15625,0.20313 0.5,0.34375 0.1875,0.0781 1.14063,0.32813 1.35937,0.35937 1.89062,0.59375 0.54688,0.23437 0.85938,0.6875 0.3125,0.4375 0.3125,1.09375 0,0.64062 -0.375,1.21875 -0.375,0.5625 -1.09375,0.875 -0.70313,0.3125 -1.59375,0.3125 -1.48438,0 -2.26563,-0.60938 -0.76562,-0.625 -0.98437,-1.82812 z m 7.78125,5.1875 -0.14063,-1.20313 q 0.42188,0.10938 0.73438,0.10938 0.4375,0 0.6875,-0.14063 0.26562,-0.14062 0.42187,-0.40625 0.125,-0.1875 0.39063,-0.95312 0.0469,-0.10938 0.125,-0.3125 l -2.89063,-7.60938 h 1.39063 l 1.57812,4.39063 q 0.3125,0.84375 0.54688,1.76562 0.23437,-0.89062 0.53125,-1.73437 l 1.625,-4.42188 h 1.29687 l -2.89062,7.71875 q -0.46875,1.25 -0.73438,1.73438 -0.34375,0.625 -0.78125,0.92187 -0.4375,0.29688 -1.0625,0.29688 -0.375,0 -0.82812,-0.15625 z m 6.875,-5.1875 1.26562,-0.20313 q 0.10938,0.76563 0.59375,1.17188 0.5,0.40625 1.375,0.40625 0.89063,0 1.3125,-0.35938 0.4375,-0.35937 0.4375,-0.84375 0,-0.4375 -0.375,-0.6875 -0.26562,-0.17187 -1.3125,-0.4375 -1.42187,-0.35937 -1.96875,-0.60937 -0.54687,-0.26563 -0.82812,-0.73438 -0.28125,-0.46875 -0.28125,-1.01562 0,-0.51563 0.21875,-0.9375 0.23437,-0.4375 0.64062,-0.73438 0.29688,-0.21875 0.8125,-0.35937 0.53125,-0.15625 1.125,-0.15625 0.89063,0 1.5625,0.26562 0.67188,0.25 1,0.6875 0.32813,0.4375 0.4375,1.17188 l -1.25,0.17187 q -0.0937,-0.57812 -0.5,-0.90625 -0.40625,-0.34375 -1.15625,-0.34375 -0.89062,0 -1.28125,0.29688 -0.375,0.29687 -0.375,0.6875 0,0.25 0.15625,0.45312 0.15625,0.20313 0.5,0.34375 0.1875,0.0781 1.14063,0.32813 1.35937,0.35937 1.89062,0.59375 0.54688,0.23437 0.85938,0.6875 0.3125,0.4375 0.3125,1.09375 0,0.64062 -0.375,1.21875 -0.375,0.5625 -1.09375,0.875 -0.70313,0.3125 -1.59375,0.3125 -1.48438,0 -2.26563,-0.60938 -0.76562,-0.625 -0.98437,-1.82812 z m 12.79687,-0.51563 1.26563,0.15625 q -0.20313,1.3125 -1.0625,2.0625 -0.84375,0.73438 -2.09375,0.73438 -1.5625,0 -2.51563,-1.01563 -0.9375,-1.03125 -0.9375,-2.92187 0,-1.23438 0.40625,-2.15625 0.40625,-0.92188 1.23438,-1.375 0.84375,-0.46875 1.8125,-0.46875 1.25,0 2.03125,0.625 0.78125,0.625 1.01562,1.76562 l -1.26562,0.20313 q -0.17188,-0.76563 -0.625,-1.15625 -0.45313,-0.39063 -1.09375,-0.39063 -0.98438,0 -1.59375,0.70313 -0.60938,0.70312 -0.60938,2.20312 0,1.53125 0.57813,2.23438 0.59375,0.6875 1.54687,0.6875 0.75,0 1.26563,-0.45313 0.51562,-0.46875 0.64062,-1.4375 z m 7.32813,1.84375 q -0.71875,0.60938 -1.375,0.85938 -0.65625,0.25 -1.42188,0.25 -1.25,0 -1.92187,-0.60938 -0.67188,-0.60937 -0.67188,-1.5625 0,-0.5625 0.25,-1.01562 0.25,-0.46875 0.65625,-0.75 0.42188,-0.28125 0.9375,-0.42188 0.375,-0.0937 1.14063,-0.1875 1.5625,-0.1875 2.29687,-0.45312 0.0156,-0.26563 0.0156,-0.32813 0,-0.79687 -0.375,-1.10937 -0.48438,-0.4375 -1.45313,-0.4375 -0.92187,0 -1.35937,0.32812 -0.42188,0.3125 -0.625,1.10938 l -1.26563,-0.17188 q 0.17188,-0.79687 0.5625,-1.29687 0.39063,-0.5 1.14063,-0.76563 0.75,-0.26562 1.71875,-0.26562 0.98437,0 1.59375,0.23437 0.60937,0.21875 0.89062,0.5625 0.28125,0.34375 0.40625,0.875 0.0625,0.32813 0.0625,1.1875 v 1.71875 q 0,1.79688 0.0781,2.28125 0.0781,0.46875 0.32812,0.90625 h -1.34375 q -0.20312,-0.40625 -0.26562,-0.9375 z m -0.10938,-2.875 q -0.70312,0.28125 -2.09375,0.48438 -0.79687,0.10937 -1.125,0.26562 -0.32812,0.14063 -0.51562,0.42188 -0.17188,0.26562 -0.17188,0.59375 0,0.51562 0.39063,0.85937 0.39062,0.34375 1.14062,0.34375 0.73438,0 1.3125,-0.3125 0.59375,-0.32812 0.85938,-0.89062 0.20312,-0.4375 0.20312,-1.29688 z m 3.27611,3.8125 V 267.4985 h 1.28125 v 10.48437 z m 3.25614,0 V 267.4985 h 1.28125 v 10.48437 z"
       id="path41"
       inkscape:connector-curvature="0"
       style="fill:#000000;fill-rule:nonzero" />
    <path
       d="M 40.897636,153.89502 H 147.98426 v 76 H 40.897636 Z"
       id="path43"
       inkscape:connector-curvature="0"
       style="fill:#000000;fill-opacity:0;fill-rule:evenodd" />
    <path
       d="m 60.10076,167.45564 h 1.765625 v 7.71875 q 0,2.01562 -0.453125,3.20312 -0.453125,1.1875 -1.640625,1.9375 -1.1875,0.73438 -3.125,0.73438 -1.875,0 -3.078125,-0.64063 -1.1875,-0.65625 -1.703125,-1.875 -0.5,-1.23437 -0.5,-3.35937 v -7.71875 h 1.765625 v 7.71875 q 0,1.73437 0.3125,2.5625 0.328125,0.8125 1.109375,1.26562 0.796875,0.45313 1.9375,0.45313 1.953125,0 2.78125,-0.89063 0.828125,-0.89062 0.828125,-3.39062 z m 4.504196,13.35937 v -9.67187 h 1.46875 v 1.375 q 1.0625,-1.59375 3.078125,-1.59375 0.875,0 1.609375,0.3125 0.734375,0.3125 1.09375,0.82812 0.375,0.5 0.515625,1.20313 0.09375,0.45312 0.09375,1.59375 v 5.95312 h -1.640625 v -5.89062 q 0,-1 -0.203125,-1.48438 -0.1875,-0.5 -0.671875,-0.79687 -0.484375,-0.29688 -1.140625,-0.29688 -1.046875,0 -1.8125,0.67188 -0.75,0.65625 -0.75,2.51562 v 5.28125 z m 13.953842,-1.46875 0.234375,1.45313 q -0.6875,0.14062 -1.234375,0.14062 -0.890625,0 -1.390625,-0.28125 -0.484375,-0.28125 -0.6875,-0.73437 -0.203125,-0.46875 -0.203125,-1.9375 v -5.57813 h -1.203125 v -1.26562 h 1.203125 v -2.39063 l 1.625,-0.98437 v 3.375 h 1.65625 v 1.26562 h -1.65625 v 5.67188 q 0,0.6875 0.07813,0.89062 0.09375,0.20313 0.28125,0.32813 0.203125,0.10937 0.578125,0.10937 0.265625,0 0.71875,-0.0625 z m 1.589554,1.46875 v -9.67187 h 1.46875 v 1.46875 q 0.5625,-1.03125 1.03125,-1.35938 0.484375,-0.32812 1.0625,-0.32812 0.828125,0 1.6875,0.53125 l -0.5625,1.51562 q -0.609375,-0.35937 -1.203125,-0.35937 -0.546875,0 -0.96875,0.32812 -0.421875,0.32813 -0.609375,0.89063 -0.28125,0.875 -0.28125,1.92187 v 5.0625 z m 12.556427,0 v -1.42187 q -1.125,1.64062 -3.0625,1.64062 -0.859375,0 -1.609375,-0.32812 -0.734375,-0.32813 -1.09375,-0.82813 -0.359375,-0.5 -0.5,-1.21875 -0.109375,-0.46875 -0.109375,-1.53125 v -5.98437 h 1.640625 v 5.35937 q 0,1.28125 0.109375,1.73438 0.15625,0.64062 0.65625,1.01562 0.5,0.375 1.234375,0.375 0.734375,0 1.375,-0.375 0.65625,-0.39062 0.921875,-1.03125 0.265625,-0.65625 0.265625,-1.89062 v -5.1875 h 1.640625 v 9.67187 z m 3.391342,-2.89062 1.625,-0.25 q 0.125,0.96875 0.75,1.5 0.625,0.51562 1.749999,0.51562 1.125,0 1.67188,-0.45312 0.54687,-0.46875 0.54687,-1.09375 0,-0.54688 -0.48437,-0.875 -0.32813,-0.21875 -1.67188,-0.54688 -1.812499,-0.46875 -2.515624,-0.79687 -0.6875,-0.32813 -1.046875,-0.90625 -0.359375,-0.59375 -0.359375,-1.3125 0,-0.64063 0.296875,-1.1875 0.296875,-0.5625 0.8125,-0.92188 0.375,-0.28125 1.03125,-0.46875 0.671875,-0.20312 1.421875,-0.20312 1.140624,0 2.000004,0.32812 0.85937,0.32813 1.26562,0.89063 0.42188,0.5625 0.57813,1.5 l -1.60938,0.21875 q -0.10937,-0.75 -0.64062,-1.17188 -0.51563,-0.42187 -1.46875,-0.42187 -1.140629,0 -1.625004,0.375 -0.46875,0.375 -0.46875,0.875 0,0.3125 0.1875,0.57812 0.203125,0.26563 0.640625,0.4375 0.234375,0.0937 1.437499,0.42188 1.75,0.45312 2.4375,0.75 0.6875,0.29687 1.07813,0.85937 0.39062,0.5625 0.39062,1.40625 0,0.82813 -0.48437,1.54688 -0.46875,0.71875 -1.375,1.125 -0.90625,0.39062 -2.04688,0.39062 -1.874999,0 -2.874999,-0.78125 -0.984375,-0.78125 -1.25,-2.32812 z m 13.562499,1.42187 0.23438,1.45313 q -0.6875,0.14062 -1.23438,0.14062 -0.89062,0 -1.39062,-0.28125 -0.48438,-0.28125 -0.6875,-0.73437 -0.20313,-0.46875 -0.20313,-1.9375 v -5.57813 h -1.20312 v -1.26562 h 1.20312 v -2.39063 l 1.625,-0.98437 v 3.375 h 1.65625 v 1.26562 h -1.65625 v 5.67188 q 0,0.6875 0.0781,0.89062 0.0937,0.20313 0.28125,0.32813 0.20312,0.10937 0.57812,0.10937 0.26563,0 0.71875,-0.0625 z m 8.23018,-1.64062 1.6875,0.20312 q -0.40625,1.48438 -1.48437,2.3125 -1.07813,0.8125 -2.76563,0.8125 -2.125,0 -3.375,-1.29687 -1.23437,-1.3125 -1.23437,-3.67188 0,-2.45312 1.25,-3.79687 1.26562,-1.34375 3.26562,-1.34375 1.9375,0 3.15625,1.32812 1.23438,1.3125 1.23438,3.70313 0,0.15625 0,0.4375 h -7.21875 q 0.0937,1.59375 0.90625,2.45312 0.8125,0.84375 2.01562,0.84375 0.90625,0 1.54688,-0.46875 0.64062,-0.48437 1.01562,-1.51562 z m -5.39062,-2.65625 h 5.40625 q -0.10938,-1.21875 -0.625,-1.82813 -0.78125,-0.95312 -2.03125,-0.95312 -1.125,0 -1.90625,0.76562 -0.76563,0.75 -0.84375,2.01563 z m 15.40696,5.76562 v -1.21875 q -0.90625,1.4375 -2.70312,1.4375 -1.15625,0 -2.125,-0.64062 -0.96875,-0.64063 -1.5,-1.78125 -0.53125,-1.14063 -0.53125,-2.625 0,-1.45313 0.48437,-2.625 0.48438,-1.1875 1.4375,-1.8125 0.96875,-0.625 2.17188,-0.625 0.875,0 1.54687,0.375 0.6875,0.35937 1.10938,0.95312 v -4.79687 h 1.64063 v 13.35937 z m -5.17187,-4.82812 q 0,1.85937 0.78125,2.78125 0.78125,0.92187 1.84375,0.92187 1.07812,0 1.82812,-0.875 0.75,-0.89062 0.75,-2.6875 0,-1.98437 -0.76562,-2.90625 -0.76563,-0.9375 -1.89063,-0.9375 -1.07812,0 -1.8125,0.89063 -0.73437,0.89062 -0.73437,2.8125 z"
       id="path45"
       inkscape:connector-curvature="0"
       style="fill:#000000;fill-rule:nonzero" />
    <path
       d="m 60.866386,198.12752 1.765625,0.45312 q -0.5625,2.17188 -2,3.32813 -1.4375,1.14062 -3.53125,1.14062 -2.15625,0 -3.515625,-0.875 -1.34375,-0.89062 -2.0625,-2.54687 -0.703125,-1.67188 -0.703125,-3.59375 0,-2.07813 0.796875,-3.625 0.796875,-1.5625 2.265625,-2.35938 1.484375,-0.8125 3.25,-0.8125 2,0 3.359375,1.01563 1.375,1.01562 1.90625,2.875 l -1.734375,0.40625 q -0.46875,-1.45313 -1.359375,-2.10938 -0.875,-0.67187 -2.203125,-0.67187 -1.546875,0 -2.578125,0.73437 -1.03125,0.73438 -1.453125,1.98438 -0.421875,1.23437 -0.421875,2.5625 0,1.70312 0.5,2.96875 0.5,1.26562 1.546875,1.90625 1.046875,0.625 2.265625,0.625 1.484375,0 2.515625,-0.85938 1.03125,-0.85937 1.390625,-2.54687 z m 3.129196,-0.15625 q 0,-2.6875 1.484375,-3.96875 1.25,-1.07813 3.046875,-1.07813 2,0 3.265625,1.3125 1.265625,1.29688 1.265625,3.60938 0,1.85937 -0.5625,2.9375 -0.5625,1.0625 -1.640625,1.65625 -1.0625,0.59375 -2.328125,0.59375 -2.03125,0 -3.28125,-1.29688 -1.25,-1.3125 -1.25,-3.76562 z m 1.6875,0 q 0,1.85937 0.796875,2.79687 0.8125,0.92188 2.046875,0.92188 1.21875,0 2.03125,-0.92188 0.8125,-0.9375 0.8125,-2.84375 0,-1.79687 -0.8125,-2.71875 -0.8125,-0.92187 -2.03125,-0.92187 -1.234375,0 -2.046875,0.92187 -0.796875,0.90625 -0.796875,2.76563 z m 9.297592,4.84375 v -9.67188 h 1.46875 v 1.375 q 1.0625,-1.59375 3.078125,-1.59375 0.875,0 1.609375,0.3125 0.734375,0.3125 1.09375,0.82813 0.375,0.5 0.515625,1.20312 0.09375,0.45313 0.09375,1.59375 v 5.95313 h -1.640625 v -5.89063 q 0,-1 -0.203125,-1.48437 -0.1875,-0.5 -0.671875,-0.79688 -0.484375,-0.29687 -1.140625,-0.29687 -1.046875,0 -1.8125,0.67187 -0.75,0.65625 -0.75,2.51563 v 5.28125 z m 13.953842,-1.46875 0.234375,1.45312 q -0.6875,0.14063 -1.234375,0.14063 -0.890625,0 -1.390625,-0.28125 -0.484375,-0.28125 -0.6875,-0.73438 -0.203125,-0.46875 -0.203125,-1.9375 v -5.57812 h -1.203125 v -1.26563 h 1.203125 v -2.39062 l 1.625,-0.98438 v 3.375 h 1.65625 v 1.26563 h -1.65625 v 5.67187 q 0,0.6875 0.07813,0.89063 0.09375,0.20312 0.28125,0.32812 0.203125,0.10938 0.578125,0.10938 0.265625,0 0.71875,-0.0625 z m 1.589554,1.46875 v -9.67188 h 1.46875 v 1.46875 q 0.5625,-1.03125 1.03125,-1.35937 0.484375,-0.32813 1.0625,-0.32813 0.828125,0 1.6875,0.53125 l -0.5625,1.51563 q -0.609375,-0.35938 -1.203125,-0.35938 -0.546875,0 -0.96875,0.32813 -0.421875,0.32812 -0.609375,0.89062 -0.28125,0.875 -0.28125,1.92188 v 5.0625 z m 12.5408,-1.1875 q -0.92187,0.76562 -1.76562,1.09375 -0.82813,0.3125 -1.796878,0.3125 -1.59375,0 -2.453125,-0.78125 -0.859375,-0.78125 -0.859375,-1.98438 0,-0.71875 0.328125,-1.29687 0.328125,-0.59375 0.84375,-0.9375 0.53125,-0.35938 1.1875,-0.54688 0.46875,-0.125 1.453123,-0.25 1.98438,-0.23437 2.92188,-0.5625 0.0156,-0.34375 0.0156,-0.42187 0,-1 -0.46875,-1.42188 -0.625,-0.54687 -1.875,-0.54687 -1.156248,0 -1.703123,0.40625 -0.546875,0.40625 -0.8125,1.42187 l -1.609375,-0.21875 q 0.21875,-1.01562 0.71875,-1.64062 0.5,-0.64063 1.453125,-0.98438 0.953125,-0.34375 2.187503,-0.34375 1.25,0 2.01562,0.29688 0.78125,0.28125 1.14063,0.73437 0.375,0.4375 0.51562,1.10938 0.0781,0.42187 0.0781,1.51562 v 2.1875 q 0,2.28125 0.10937,2.89063 0.10938,0.59375 0.40625,1.15625 H 103.393 q -0.26563,-0.51563 -0.32813,-1.1875 z m -0.14062,-3.67188 q -0.89063,0.375 -2.67188,0.625 -1.015623,0.14063 -1.437498,0.32813 -0.421875,0.1875 -0.65625,0.53125 -0.21875,0.34375 -0.21875,0.78125 0,0.65625 0.5,1.09375 0.5,0.4375 1.453125,0.4375 0.937503,0 1.671873,-0.40625 0.75,-0.42188 1.09375,-1.14063 0.26563,-0.5625 0.26563,-1.64062 z m 10.51634,1.3125 1.60937,0.21875 q -0.26562,1.65625 -1.35937,2.60938 -1.07813,0.9375 -2.67188,0.9375 -1.98437,0 -3.1875,-1.29688 -1.20312,-1.29687 -1.20312,-3.71875 0,-1.57812 0.51562,-2.75 0.51563,-1.17187 1.57813,-1.75 1.0625,-0.59375 2.3125,-0.59375 1.57812,0 2.57812,0.79688 1,0.79687 1.28125,2.26562 l -1.59375,0.23438 q -0.23437,-0.96875 -0.8125,-1.45313 -0.57812,-0.5 -1.39062,-0.5 -1.23438,0 -2.01563,0.89063 -0.78125,0.89062 -0.78125,2.8125 0,1.95312 0.75,2.84375 0.75,0.875 1.95313,0.875 0.96875,0 1.60937,-0.59375 0.65625,-0.59375 0.82813,-1.82813 z m 6.59375,2.07813 0.23437,1.45312 q -0.6875,0.14063 -1.23437,0.14063 -0.89063,0 -1.39063,-0.28125 -0.48437,-0.28125 -0.6875,-0.73438 -0.20312,-0.46875 -0.20312,-1.9375 v -5.57812 h -1.20313 v -1.26563 h 1.20313 v -2.39062 l 1.625,-0.98438 v 3.375 h 1.65625 v 1.26563 h -1.65625 v 5.67187 q 0,0.6875 0.0781,0.89063 0.0937,0.20312 0.28125,0.32812 0.20313,0.10938 0.57813,0.10938 0.26562,0 0.71875,-0.0625 z"
       id="path47"
       inkscape:connector-curvature="0"
       style="fill:#000000;fill-rule:nonzero" />
    <path
       d="m 185.2441,145.89557 h 138.5512 v 37.98425 H 185.2441 Z"
       id="path49"
       inkscape:connector-curvature="0"
       style="fill:#000000;fill-opacity:0;fill-rule:evenodd" />
    <path
       d="m 195.60347,172.81557 v -13.35938 h 1.78125 v 6.625 l 6.625,-6.625 h 2.39062 l -5.59375,5.42188 5.84375,7.9375 h -2.32812 l -4.76563,-6.76563 -2.17187,2.14063 v 4.625 z m 18.94357,-3.10938 1.6875,0.20313 q -0.40625,1.48437 -1.48437,2.3125 -1.07813,0.8125 -2.76563,0.8125 -2.125,0 -3.375,-1.29688 -1.23437,-1.3125 -1.23437,-3.67187 0,-2.45313 1.25,-3.79688 1.26562,-1.34375 3.26562,-1.34375 1.9375,0 3.15625,1.32813 1.23438,1.3125 1.23438,3.70312 0,0.15625 0,0.4375 h -7.21875 q 0.0937,1.59375 0.90625,2.45313 0.8125,0.84375 2.01562,0.84375 0.90625,0 1.54688,-0.46875 0.64062,-0.48438 1.01562,-1.51563 z m -5.39062,-2.65625 h 5.40625 q -0.10938,-1.21875 -0.625,-1.82812 -0.78125,-0.95313 -2.03125,-0.95313 -1.125,0 -1.90625,0.76563 -0.76563,0.75 -0.84375,2.01562 z m 9.12571,5.76563 v -9.67188 h 1.46875 v 1.46875 q 0.5625,-1.03125 1.03125,-1.35937 0.48438,-0.32813 1.0625,-0.32813 0.82813,0 1.6875,0.53125 l -0.5625,1.51563 q -0.60937,-0.35938 -1.20312,-0.35938 -0.54688,0 -0.96875,0.32813 -0.42188,0.32812 -0.60938,0.89062 -0.28125,0.875 -0.28125,1.92188 v 5.0625 z m 6.22831,0 v -9.67188 h 1.46875 v 1.375 q 1.0625,-1.59375 3.07812,-1.59375 0.875,0 1.60938,0.3125 0.73437,0.3125 1.09375,0.82813 0.375,0.5 0.51562,1.20312 0.0937,0.45313 0.0937,1.59375 v 5.95313 h -1.64062 v -5.89063 q 0,-1 -0.20313,-1.48437 -0.1875,-0.5 -0.67187,-0.79688 -0.48438,-0.29687 -1.14063,-0.29687 -1.04687,0 -1.8125,0.67187 -0.75,0.65625 -0.75,2.51563 v 5.28125 z m 17.00071,-3.10938 1.6875,0.20313 q -0.40625,1.48437 -1.48437,2.3125 -1.07813,0.8125 -2.76563,0.8125 -2.125,0 -3.375,-1.29688 -1.23437,-1.3125 -1.23437,-3.67187 0,-2.45313 1.25,-3.79688 1.26562,-1.34375 3.26562,-1.34375 1.9375,0 3.15625,1.32813 1.23438,1.3125 1.23438,3.70312 0,0.15625 0,0.4375 h -7.21875 q 0.0937,1.59375 0.90625,2.45313 0.8125,0.84375 2.01562,0.84375 0.90625,0 1.54688,-0.46875 0.64062,-0.48438 1.01562,-1.51563 z m -5.39062,-2.65625 h 5.40625 q -0.10938,-1.21875 -0.625,-1.82812 -0.78125,-0.95313 -2.03125,-0.95313 -1.125,0 -1.90625,0.76563 -0.76563,0.75 -0.84375,2.01562 z m 9.09447,5.76563 v -13.35938 h 1.64062 v 13.35938 z"
       id="path51"
       inkscape:connector-curvature="0"
       style="fill:#000000;fill-rule:nonzero" />
    <path
       d="M 328.5118,162.39896 H 432.41732 V 302.9029 H 328.5118 Z"
       id="path53"
       inkscape:connector-curvature="0"
       style="fill:#000000;fill-opacity:0;fill-rule:evenodd" />
    <path
       d="M 328.5118,162.39896 H 432.41732 V 302.9029 H 328.5118 Z"
       id="path55"
       inkscape:connector-curvature="0"
       style="fill-rule:evenodd;stroke:#000000;stroke-width:1;stroke-linecap:butt;stroke-linejoin:round" />
    <path
       d="m 342.1547,212.9029 h 73.48032 v 37.98425 H 342.1547 Z"
       id="path57"
       inkscape:connector-curvature="0"
       style="fill:#d9ead3;fill-rule:evenodd" />
    <path
       d="m 351.63907,232.186 q 0,-2.10938 1.17187,-3.125 0.98438,-0.84375 2.39063,-0.84375 1.57812,0 2.5625,1.03125 1,1.01562 1,2.82812 0,1.46875 -0.4375,2.3125 -0.4375,0.82813 -1.28125,1.29688 -0.84375,0.46875 -1.84375,0.46875 -1.59375,0 -2.57813,-1.01563 -0.98437,-1.03125 -0.98437,-2.95312 z m 1.32812,0 q 0,1.45312 0.625,2.1875 0.64063,0.71875 1.60938,0.71875 0.96875,0 1.59375,-0.71875 0.64062,-0.73438 0.64062,-2.23438 0,-1.40625 -0.64062,-2.125 -0.64063,-0.73437 -1.59375,-0.73437 -0.96875,0 -1.60938,0.71875 -0.625,0.71875 -0.625,2.1875 z m 7.30735,6.70312 v -10.5 h 1.17187 v 0.98438 q 0.42188,-0.57813 0.9375,-0.85938 0.51563,-0.29687 1.26563,-0.29687 0.96875,0 1.71875,0.5 0.75,0.5 1.125,1.42187 0.375,0.90625 0.375,1.98438 0,1.17187 -0.42188,2.10937 -0.40625,0.92188 -1.21875,1.42188 -0.79687,0.5 -1.67187,0.5 -0.64063,0 -1.15625,-0.26563 -0.51563,-0.28125 -0.84375,-0.6875 v 3.6875 z m 1.15625,-6.65625 q 0,1.45313 0.59375,2.15625 0.60937,0.70313 1.45312,0.70313 0.85938,0 1.46875,-0.71875 0.60938,-0.73438 0.60938,-2.25 0,-1.45313 -0.60938,-2.17188 -0.59375,-0.73437 -1.42187,-0.73437 -0.8125,0 -1.45313,0.78125 -0.64062,0.76562 -0.64062,2.23437 z m 11.948,0.96875 1.26562,0.15625 q -0.20312,1.3125 -1.0625,2.0625 -0.84375,0.73438 -2.09375,0.73438 -1.5625,0 -2.51562,-1.01563 -0.9375,-1.03125 -0.9375,-2.92187 0,-1.23438 0.40625,-2.15625 0.40625,-0.92188 1.23437,-1.375 0.84375,-0.46875 1.8125,-0.46875 1.25,0 2.03125,0.625 0.78125,0.625 1.01563,1.76562 l -1.26563,0.20313 q -0.17187,-0.76563 -0.625,-1.15625 -0.45312,-0.39063 -1.09375,-0.39063 -0.98437,0 -1.59375,0.70313 -0.60937,0.70312 -0.60937,2.20312 0,1.53125 0.57812,2.23438 0.59375,0.6875 1.54688,0.6875 0.75,0 1.26562,-0.45313 0.51563,-0.46875 0.64063,-1.4375 z m 1.89062,-1.01562 q 0,-2.10938 1.17188,-3.125 0.98437,-0.84375 2.39062,-0.84375 1.57813,0 2.5625,1.03125 1,1.01562 1,2.82812 0,1.46875 -0.4375,2.3125 -0.4375,0.82813 -1.28125,1.29688 -0.84375,0.46875 -1.84375,0.46875 -1.59375,0 -2.57812,-1.01563 -0.98438,-1.03125 -0.98438,-2.95312 z m 1.32813,0 q 0,1.45312 0.625,2.1875 0.64062,0.71875 1.60937,0.71875 0.96875,0 1.59375,-0.71875 0.64063,-0.73438 0.64063,-2.23438 0,-1.40625 -0.64063,-2.125 -0.64062,-0.73437 -1.59375,-0.73437 -0.96875,0 -1.60937,0.71875 -0.625,0.71875 -0.625,2.1875 z m 12.22921,3.79687 v -0.95312 q -0.71875,1.125 -2.125,1.125 -0.90625,0 -1.67187,-0.5 -0.75,-0.5 -1.17188,-1.39063 -0.42187,-0.90625 -0.42187,-2.07812 0,-1.14063 0.375,-2.0625 0.39062,-0.92188 1.14062,-1.40625 0.76563,-0.5 1.70313,-0.5 0.6875,0 1.21875,0.29687 0.53125,0.28125 0.875,0.73438 v -3.75 h 1.28125 v 10.48437 z m -4.0625,-3.79687 q 0,1.46875 0.60938,2.1875 0.625,0.71875 1.45312,0.71875 0.84375,0 1.4375,-0.6875 0.59375,-0.6875 0.59375,-2.10938 0,-1.5625 -0.60937,-2.28125 -0.59375,-0.73437 -1.48438,-0.73437 -0.84375,0 -1.42187,0.70312 -0.57813,0.70313 -0.57813,2.20313 z m 12.49488,1.34375 1.32812,0.17187 q -0.3125,1.17188 -1.17187,1.8125 -0.84375,0.64063 -2.17188,0.64063 -1.67187,0 -2.65625,-1.01563 -0.96875,-1.03125 -0.96875,-2.89062 0,-1.92188 0.98438,-2.96875 1,-1.0625 2.57812,-1.0625 1.51563,0 2.48438,1.03125 0.96875,1.03125 0.96875,2.92187 0,0.10938 -0.0156,0.34375 h -5.65625 q 0.0625,1.25 0.70313,1.92188 0.64062,0.65625 1.59375,0.65625 0.70312,0 1.20312,-0.35938 0.5,-0.375 0.79688,-1.20312 z m -4.23438,-2.07813 h 4.25 q -0.0937,-0.95312 -0.48437,-1.4375 -0.625,-0.75 -1.60938,-0.75 -0.875,0 -1.48437,0.59375 -0.60938,0.59375 -0.67188,1.59375 z"
       id="path59"
       inkscape:connector-curvature="0"
       style="fill:#000000;fill-rule:nonzero" />
    <path
       d="m 341.63406,254.9029 h 73.48032 v 37.98425 h -73.48032 z"
       id="path61"
       inkscape:connector-curvature="0"
       style="fill:#b6d7a8;fill-rule:evenodd" />
    <path
       d="m 351.0872,275.71725 1.26562,-0.20313 q 0.10938,0.76563 0.59375,1.17188 0.5,0.40625 1.375,0.40625 0.89063,0 1.3125,-0.35938 0.4375,-0.35937 0.4375,-0.84375 0,-0.4375 -0.375,-0.6875 -0.26562,-0.17187 -1.3125,-0.4375 -1.42187,-0.35937 -1.96875,-0.60937 -0.54687,-0.26563 -0.82812,-0.73438 -0.28125,-0.46875 -0.28125,-1.01562 0,-0.51563 0.21875,-0.9375 0.23437,-0.4375 0.64062,-0.73438 0.29688,-0.21875 0.8125,-0.35937 0.53125,-0.15625 1.125,-0.15625 0.89063,0 1.5625,0.26562 0.67188,0.25 1,0.6875 0.32813,0.4375 0.4375,1.17188 l -1.25,0.17187 q -0.0937,-0.57812 -0.5,-0.90625 -0.40625,-0.34375 -1.15625,-0.34375 -0.89062,0 -1.28125,0.29688 -0.375,0.29687 -0.375,0.6875 0,0.25 0.15625,0.45312 0.15625,0.20313 0.5,0.34375 0.1875,0.0781 1.14063,0.32813 1.35937,0.35937 1.89062,0.59375 0.54688,0.23437 0.85938,0.6875 0.3125,0.4375 0.3125,1.09375 0,0.64062 -0.375,1.21875 -0.375,0.5625 -1.09375,0.875 -0.70313,0.3125 -1.59375,0.3125 -1.48438,0 -2.26563,-0.60938 -0.76562,-0.625 -0.98437,-1.82812 z m 7.78125,5.1875 -0.14063,-1.20313 q 0.42188,0.10938 0.73438,0.10938 0.4375,0 0.6875,-0.14063 0.26562,-0.14062 0.42187,-0.40625 0.125,-0.1875 0.39063,-0.95312 0.0469,-0.10938 0.125,-0.3125 l -2.89063,-7.60938 h 1.39063 l 1.57812,4.39063 q 0.3125,0.84375 0.54688,1.76562 0.23437,-0.89062 0.53125,-1.73437 l 1.625,-4.42188 h 1.29687 l -2.89062,7.71875 q -0.46875,1.25 -0.73438,1.73438 -0.34375,0.625 -0.78125,0.92187 -0.4375,0.29688 -1.0625,0.29688 -0.375,0 -0.82812,-0.15625 z m 6.875,-5.1875 1.26562,-0.20313 q 0.10938,0.76563 0.59375,1.17188 0.5,0.40625 1.375,0.40625 0.89063,0 1.3125,-0.35938 0.4375,-0.35937 0.4375,-0.84375 0,-0.4375 -0.375,-0.6875 -0.26562,-0.17187 -1.3125,-0.4375 -1.42187,-0.35937 -1.96875,-0.60937 -0.54687,-0.26563 -0.82812,-0.73438 -0.28125,-0.46875 -0.28125,-1.01562 0,-0.51563 0.21875,-0.9375 0.23437,-0.4375 0.64062,-0.73438 0.29688,-0.21875 0.8125,-0.35937 0.53125,-0.15625 1.125,-0.15625 0.89063,0 1.5625,0.26562 0.67188,0.25 1,0.6875 0.32813,0.4375 0.4375,1.17188 l -1.25,0.17187 q -0.0937,-0.57812 -0.5,-0.90625 -0.40625,-0.34375 -1.15625,-0.34375 -0.89062,0 -1.28125,0.29688 -0.375,0.29687 -0.375,0.6875 0,0.25 0.15625,0.45312 0.15625,0.20313 0.5,0.34375 0.1875,0.0781 1.14063,0.32813 1.35937,0.35937 1.89062,0.59375 0.54688,0.23437 0.85938,0.6875 0.3125,0.4375 0.3125,1.09375 0,0.64062 -0.375,1.21875 -0.375,0.5625 -1.09375,0.875 -0.70313,0.3125 -1.59375,0.3125 -1.48438,0 -2.26563,-0.60938 -0.76562,-0.625 -0.98437,-1.82812 z m 12.79687,-0.51563 1.26563,0.15625 q -0.20313,1.3125 -1.0625,2.0625 -0.84375,0.73438 -2.09375,0.73438 -1.5625,0 -2.51563,-1.01563 -0.9375,-1.03125 -0.9375,-2.92187 0,-1.23438 0.40625,-2.15625 0.40625,-0.92188 1.23438,-1.375 0.84375,-0.46875 1.8125,-0.46875 1.25,0 2.03125,0.625 0.78125,0.625 1.01562,1.76562 l -1.26562,0.20313 q -0.17188,-0.76563 -0.625,-1.15625 -0.45313,-0.39063 -1.09375,-0.39063 -0.98438,0 -1.59375,0.70313 -0.60938,0.70312 -0.60938,2.20312 0,1.53125 0.57813,2.23438 0.59375,0.6875 1.54687,0.6875 0.75,0 1.26563,-0.45313 0.51562,-0.46875 0.64062,-1.4375 z m 7.32813,1.84375 q -0.71875,0.60938 -1.375,0.85938 -0.65625,0.25 -1.42188,0.25 -1.25,0 -1.92187,-0.60938 -0.67188,-0.60937 -0.67188,-1.5625 0,-0.5625 0.25,-1.01562 0.25,-0.46875 0.65625,-0.75 0.42188,-0.28125 0.9375,-0.42188 0.375,-0.0937 1.14063,-0.1875 1.5625,-0.1875 2.29687,-0.45312 0.0156,-0.26563 0.0156,-0.32813 0,-0.79687 -0.375,-1.10937 -0.48438,-0.4375 -1.45313,-0.4375 -0.92187,0 -1.35937,0.32812 -0.42188,0.3125 -0.625,1.10938 l -1.26563,-0.17188 q 0.17188,-0.79687 0.5625,-1.29687 0.39063,-0.5 1.14063,-0.76563 0.75,-0.26562 1.71875,-0.26562 0.98437,0 1.59375,0.23437 0.60937,0.21875 0.89062,0.5625 0.28125,0.34375 0.40625,0.875 0.0625,0.32813 0.0625,1.1875 v 1.71875 q 0,1.79688 0.0781,2.28125 0.0781,0.46875 0.32812,0.90625 h -1.34375 q -0.20312,-0.40625 -0.26562,-0.9375 z m -0.10938,-2.875 q -0.70312,0.28125 -2.09375,0.48438 -0.79687,0.10937 -1.125,0.26562 -0.32812,0.14063 -0.51562,0.42188 -0.17188,0.26562 -0.17188,0.59375 0,0.51562 0.39063,0.85937 0.39062,0.34375 1.14062,0.34375 0.73438,0 1.3125,-0.3125 0.59375,-0.32812 0.85938,-0.89062 0.20312,-0.4375 0.20312,-1.29688 z m 3.2761,3.8125 V 267.4985 h 1.28125 v 10.48437 z m 3.25616,0 V 267.4985 h 1.28125 v 10.48437 z"
       id="path63"
       inkscape:connector-curvature="0"
       style="fill:#000000;fill-rule:nonzero" />
    <path
       d="m 281.17108,273.89502 h 60.47244"
       id="path65"
       inkscape:connector-curvature="0"
       style="fill:#000000;fill-opacity:0;fill-rule:evenodd" />
    <path
       d="m 281.17108,273.89502 h 54.47244"
       id="path67"
       inkscape:connector-curvature="0"
       style="fill-rule:evenodd;stroke:#000000;stroke-width:1;stroke-linecap:butt;stroke-linejoin:round" />
    <path
       d="m 335.64352,275.54675 4.53812,-1.65173 -4.53812,-1.65174 z"
       id="path69"
       inkscape:connector-curvature="0"
       style="fill:#000000;fill-rule:evenodd;stroke:#000000;stroke-width:1;stroke-linecap:butt" />
    <path
       d="m 488.5223,172.97244 h 51.40158 v 58.3622 H 488.5223 Z"
       id="path71"
       inkscape:connector-curvature="0"
       style="fill:#000000;fill-opacity:0;fill-rule:evenodd" />
    <path
       d="m 488.5223,172.97244 h 51.40158 v 58.3622 H 488.5223 Z"
       id="path73"
       inkscape:connector-curvature="0"
       style="fill-rule:evenodd;stroke:#000000;stroke-width:1;stroke-linecap:butt;stroke-linejoin:round" />
    <path
       d="m 492.36334,193.6443 h 43.71655 v 11.02362 h -43.71655 z"
       id="path75"
       inkscape:connector-curvature="0"
       style="fill:#d9ead3;fill-rule:evenodd" />
    <path
       d="m 432.41733,232.65092 56.09448,-30.48819"
       id="path77"
       inkscape:connector-curvature="0"
       style="fill:#000000;fill-opacity:0;fill-rule:evenodd" />
    <path
       d="m 432.41733,232.65092 50.82281,-27.62297"
       id="path79"
       inkscape:connector-curvature="0"
       style="fill-rule:evenodd;stroke:#000000;stroke-width:1;stroke-linecap:butt;stroke-linejoin:round" />
    <path
       d="m 484.0289,206.47919 3.19846,-3.61835 -4.77597,0.71588 z"
       id="path81"
       inkscape:connector-curvature="0"
       style="fill:#000000;fill-rule:evenodd;stroke:#000000;stroke-width:1;stroke-linecap:butt" />
    <path
       d="m 466.95276,253.52214 h 103.90552 v 90.55119 H 466.95276 Z"
       id="path83"
       inkscape:connector-curvature="0"
       style="fill:#000000;fill-opacity:0;fill-rule:evenodd" />
    <path
       d="m 466.95276,253.52214 h 103.90552 v 90.55119 H 466.95276 Z"
       id="path85"
       inkscape:connector-curvature="0"
       style="fill-rule:evenodd;stroke:#000000;stroke-width:1;stroke-linecap:butt;stroke-linejoin:round" />
    <path
       d="m 467.47507,344.0656 h 193.51181 v 58.36221 H 467.47507 Z"
       id="path87"
       inkscape:connector-curvature="0"
       style="fill:#000000;fill-opacity:0;fill-rule:evenodd" />
    <path
       d="m 477.91257,370.98563 v -13.35937 h 5.04688 q 1.32812,0 2.03125,0.125 0.96875,0.17187 1.64062,0.64062 0.67188,0.45313 1.07813,1.28125 0.40625,0.82813 0.40625,1.82813 0,1.70312 -1.09375,2.89062 -1.07813,1.17188 -3.92188,1.17188 h -3.42187 v 5.42187 z m 1.76563,-7 h 3.45312 q 1.71875,0 2.4375,-0.64062 0.71875,-0.64063 0.71875,-1.79688 0,-0.84375 -0.42187,-1.4375 -0.42188,-0.59375 -1.125,-0.78125 -0.4375,-0.125 -1.64063,-0.125 h -3.42187 z m 10.45919,7 v -9.67187 h 1.46875 v 1.46875 q 0.5625,-1.03125 1.03125,-1.35938 0.48438,-0.32812 1.0625,-0.32812 0.82813,0 1.6875,0.53125 l -0.5625,1.51562 q -0.60937,-0.35937 -1.20312,-0.35937 -0.54688,0 -0.96875,0.32812 -0.42188,0.32813 -0.60938,0.89063 -0.28125,0.875 -0.28125,1.92187 v 5.0625 z m 5.61893,-4.84375 q 0,-2.6875 1.48438,-3.96875 1.25,-1.07812 3.04687,-1.07812 2,0 3.26563,1.3125 1.26562,1.29687 1.26562,3.60937 0,1.85938 -0.5625,2.9375 -0.5625,1.0625 -1.64062,1.65625 -1.0625,0.59375 -2.32813,0.59375 -2.03125,0 -3.28125,-1.29687 -1.25,-1.3125 -1.25,-3.76563 z m 1.6875,0 q 0,1.85938 0.79688,2.79688 0.8125,0.92187 2.04687,0.92187 1.21875,0 2.03125,-0.92187 0.8125,-0.9375 0.8125,-2.84375 0,-1.79688 -0.8125,-2.71875 -0.8125,-0.92188 -2.03125,-0.92188 -1.23437,0 -2.04687,0.92188 -0.79688,0.90625 -0.79688,2.76562 z m 15.61008,1.29688 1.60937,0.21875 q -0.26562,1.65625 -1.35937,2.60937 -1.07813,0.9375 -2.67188,0.9375 -1.98437,0 -3.1875,-1.29687 -1.20312,-1.29688 -1.20312,-3.71875 0,-1.57813 0.51562,-2.75 0.51563,-1.17188 1.57813,-1.75 1.0625,-0.59375 2.3125,-0.59375 1.57812,0 2.57812,0.79687 1,0.79688 1.28125,2.26563 l -1.59375,0.23437 q -0.23437,-0.96875 -0.8125,-1.45312 -0.57812,-0.5 -1.39062,-0.5 -1.23438,0 -2.01563,0.89062 -0.78125,0.89063 -0.78125,2.8125 0,1.95313 0.75,2.84375 0.75,0.875 1.95313,0.875 0.96875,0 1.60937,-0.59375 0.65625,-0.59375 0.82813,-1.82812 z m 9.64062,0.4375 1.6875,0.20312 q -0.40625,1.48438 -1.48437,2.3125 -1.07813,0.8125 -2.76563,0.8125 -2.125,0 -3.375,-1.29687 -1.23437,-1.3125 -1.23437,-3.67188 0,-2.45312 1.25,-3.79687 1.26562,-1.34375 3.26562,-1.34375 1.9375,0 3.15625,1.32812 1.23438,1.3125 1.23438,3.70313 0,0.15625 0,0.4375 h -7.21875 q 0.0937,1.59375 0.90625,2.45312 0.8125,0.84375 2.01562,0.84375 0.90625,0 1.54688,-0.46875 0.64062,-0.48437 1.01562,-1.51562 z m -5.39062,-2.65625 h 5.40625 q -0.10938,-1.21875 -0.625,-1.82813 -0.78125,-0.95312 -2.03125,-0.95312 -1.125,0 -1.90625,0.76562 -0.76563,0.75 -0.84375,2.01563 z m 15.40698,5.76562 v -1.21875 q -0.90625,1.4375 -2.70313,1.4375 -1.15625,0 -2.125,-0.64062 -0.96875,-0.64063 -1.5,-1.78125 -0.53125,-1.14063 -0.53125,-2.625 0,-1.45313 0.48438,-2.625 0.48437,-1.1875 1.4375,-1.8125 0.96875,-0.625 2.17187,-0.625 0.875,0 1.54688,0.375 0.6875,0.35937 1.10937,0.95312 v -4.79687 h 1.64063 v 13.35937 z m -5.17188,-4.82812 q 0,1.85937 0.78125,2.78125 0.78125,0.92187 1.84375,0.92187 1.07813,0 1.82813,-0.875 0.75,-0.89062 0.75,-2.6875 0,-1.98437 -0.76563,-2.90625 -0.76562,-0.9375 -1.89062,-0.9375 -1.07813,0 -1.8125,0.89063 -0.73438,0.89062 -0.73438,2.8125 z m 15.61011,4.82812 v -1.42187 q -1.125,1.64062 -3.0625,1.64062 -0.85937,0 -1.60937,-0.32812 -0.73438,-0.32813 -1.09375,-0.82813 -0.35938,-0.5 -0.5,-1.21875 -0.10938,-0.46875 -0.10938,-1.53125 v -5.98437 h 1.64063 v 5.35937 q 0,1.28125 0.10937,1.73438 0.15625,0.64062 0.65625,1.01562 0.5,0.375 1.23438,0.375 0.73437,0 1.375,-0.375 0.65625,-0.39062 0.92187,-1.03125 0.26563,-0.65625 0.26563,-1.89062 v -5.1875 h 1.64062 v 9.67187 z m 4.03192,0 v -9.67187 h 1.46875 v 1.46875 q 0.5625,-1.03125 1.03125,-1.35938 0.48438,-0.32812 1.0625,-0.32812 0.82813,0 1.6875,0.53125 l -0.5625,1.51562 q -0.60937,-0.35937 -1.20312,-0.35937 -0.54688,0 -0.96875,0.32812 -0.42188,0.32813 -0.60938,0.89063 -0.28125,0.875 -0.28125,1.92187 v 5.0625 z m 12.85333,-3.10937 1.6875,0.20312 q -0.40625,1.48438 -1.48437,2.3125 -1.07813,0.8125 -2.76563,0.8125 -2.125,0 -3.375,-1.29687 -1.23437,-1.3125 -1.23437,-3.67188 0,-2.45312 1.25,-3.79687 1.26562,-1.34375 3.26562,-1.34375 1.9375,0 3.15625,1.32812 1.23438,1.3125 1.23438,3.70313 0,0.15625 0,0.4375 h -7.21875 q 0.0937,1.59375 0.90625,2.45312 0.8125,0.84375 2.01562,0.84375 0.90625,0 1.54688,-0.46875 0.64062,-0.48437 1.01562,-1.51562 z m -5.39062,-2.65625 h 5.40625 q -0.10938,-1.21875 -0.625,-1.82813 -0.78125,-0.95312 -2.03125,-0.95312 -1.125,0 -1.90625,0.76562 -0.76563,0.75 -0.84375,2.01563 z"
       id="path89"
       inkscape:connector-curvature="0"
       style="fill:#000000;fill-rule:nonzero" />
    <path
       d="m 481.31882,392.98563 v -11.78125 h -4.40625 v -1.57812 h 10.57813 v 1.57812 h -4.40625 v 11.78125 z m 14.09909,-1.1875 q -0.92187,0.76563 -1.76562,1.09375 -0.82813,0.3125 -1.79688,0.3125 -1.59375,0 -2.45312,-0.78125 -0.85938,-0.78125 -0.85938,-1.98437 0,-0.71875 0.32813,-1.29688 0.32812,-0.59375 0.84375,-0.9375 0.53125,-0.35937 1.1875,-0.54687 0.46875,-0.125 1.45312,-0.25 1.98438,-0.23438 2.92188,-0.5625 0.0156,-0.34375 0.0156,-0.42188 0,-1 -0.46875,-1.42187 -0.625,-0.54688 -1.875,-0.54688 -1.15625,0 -1.70312,0.40625 -0.54688,0.40625 -0.8125,1.42188 l -1.60938,-0.21875 q 0.21875,-1.01563 0.71875,-1.64063 0.5,-0.64062 1.45313,-0.98437 0.95312,-0.34375 2.1875,-0.34375 1.25,0 2.01562,0.29687 0.78125,0.28125 1.14063,0.73438 0.375,0.4375 0.51562,1.10937 0.0781,0.42188 0.0781,1.51563 v 2.1875 q 0,2.28125 0.10937,2.89062 0.10938,0.59375 0.40625,1.15625 h -1.70312 q -0.26563,-0.51562 -0.32813,-1.1875 z m -0.14062,-3.67187 q -0.89063,0.375 -2.67188,0.625 -1.01562,0.14062 -1.4375,0.32812 -0.42187,0.1875 -0.65625,0.53125 -0.21875,0.34375 -0.21875,0.78125 0,0.65625 0.5,1.09375 0.5,0.4375 1.45313,0.4375 0.9375,0 1.67187,-0.40625 0.75,-0.42187 1.09375,-1.14062 0.26563,-0.5625 0.26563,-1.64063 z m 5.70385,4.85937 h -1.51562 v -13.35937 h 1.64062 v 4.76562 q 1.04688,-1.29687 2.65625,-1.29687 0.89063,0 1.6875,0.35937 0.79688,0.35938 1.3125,1.01563 0.51563,0.64062 0.79688,1.5625 0.29687,0.92187 0.29687,1.96875 0,2.48437 -1.23437,3.84375 -1.21875,1.35937 -2.95313,1.35937 -1.70312,0 -2.6875,-1.4375 z m -0.0156,-4.90625 q 0,1.73438 0.48437,2.51563 0.76563,1.26562 2.09375,1.26562 1.07813,0 1.85938,-0.9375 0.78125,-0.9375 0.78125,-2.78125 0,-1.89062 -0.75,-2.79687 -0.75,-0.90625 -1.82813,-0.90625 -1.0625,0 -1.85937,0.9375 -0.78125,0.9375 -0.78125,2.70312 z m 8.84445,4.90625 v -13.35937 h 1.64063 v 13.35937 z m 10.81668,-3.10937 1.6875,0.20312 q -0.40625,1.48438 -1.48437,2.3125 -1.07813,0.8125 -2.76563,0.8125 -2.125,0 -3.375,-1.29687 -1.23437,-1.3125 -1.23437,-3.67188 0,-2.45312 1.25,-3.79687 1.26562,-1.34375 3.26562,-1.34375 1.9375,0 3.15625,1.32812 1.23438,1.3125 1.23438,3.70313 0,0.15625 0,0.4375 h -7.21875 q 0.0937,1.59375 0.90625,2.45312 0.8125,0.84375 2.01562,0.84375 0.90625,0 1.54688,-0.46875 0.64062,-0.48437 1.01562,-1.51562 z m -5.39062,-2.65625 h 5.40625 q -0.10938,-1.21875 -0.625,-1.82813 -0.78125,-0.95312 -2.03125,-0.95312 -1.125,0 -1.90625,0.76562 -0.76563,0.75 -0.84375,2.01563 z"
       id="path91"
       inkscape:connector-curvature="0"
       style="fill:#000000;fill-rule:nonzero" />
    <path
       d="m 539.9239,202.15355 c 34.53796,0 61.698,19.81102 69.07593,39.62204 7.37793,19.81102 -5.02618,39.62205 -10.05231,39.62205"
       id="path93"
       inkscape:connector-curvature="0"
       style="fill:#000000;fill-opacity:0;fill-rule:evenodd" />
    <path
       d="m 539.9239,202.15355 c 34.53796,0 61.698,19.81102 69.07593,39.62204 3.68903,9.90552 2.43243,19.81102 -0.37463,27.24016 -0.70172,1.85727 -1.50037,3.55978 -2.34296,5.06885 -0.42126,0.75451 -0.85345,1.46066 -1.29004,2.11361 -0.21826,0.32648 -0.43762,0.63965 -0.65723,0.93894 -0.10986,0.14962 -0.21972,0.29577 -0.32952,0.43838 l -0.21796,0.27603"
       id="path95"
       inkscape:connector-curvature="0"
       style="fill-rule:evenodd;stroke:#000000;stroke-width:1;stroke-linecap:butt;stroke-linejoin:round" />
    <path
       d="m 602.8113,276.51917 -2.68451,4.01447 4.6369,-1.34968 z"
       id="path97"
       inkscape:connector-curvature="0"
       style="fill:#000000;fill-rule:evenodd;stroke:#000000;stroke-width:1;stroke-linecap:butt" />
    <path
       d="m 478.22833,262.39896 h 120.72443 v 37.98425 H 478.22833 Z"
       id="path99"
       inkscape:connector-curvature="0"
       style="fill:#cccccc;fill-rule:evenodd" />
    <path
       d="m 488.3377,285.47894 v -10.48437 h 1.4375 l 5.5,8.23437 v -8.23437 h 1.32812 v 10.48437 h -1.42187 l -5.5,-8.25 v 8.25 z m 15.64679,-2.45312 1.32812,0.17187 q -0.3125,1.17188 -1.17187,1.8125 -0.84375,0.64063 -2.17188,0.64063 -1.67187,0 -2.65625,-1.01563 -0.96875,-1.03125 -0.96875,-2.89062 0,-1.92188 0.98438,-2.96875 1,-1.0625 2.57812,-1.0625 1.51563,0 2.48438,1.03125 0.96875,1.03125 0.96875,2.92187 0,0.10938 -0.0156,0.34375 h -5.65625 q 0.0625,1.25 0.70313,1.92188 0.64062,0.65625 1.59375,0.65625 0.70312,0 1.20312,-0.35938 0.5,-0.375 0.79688,-1.20312 z m -4.23438,-2.07813 h 4.25 q -0.0937,-0.95312 -0.48437,-1.4375 -0.625,-0.75 -1.60938,-0.75 -0.875,0 -1.48437,0.59375 -0.60938,0.59375 -0.67188,1.59375 z m 8.5886,4.53125 -2.32813,-7.59375 h 1.32813 l 1.20312,4.375 0.45313,1.64063 q 0.0312,-0.125 0.39062,-1.57813 l 1.21875,-4.4375 h 1.32813 l 1.12503,4.40625 0.39062,1.45313 0.4375,-1.46875 1.29688,-4.39063 h 1.25 l -2.375,7.59375 h -1.34375 l -1.20316,-4.54687 -0.29687,-1.29688 -1.53125,5.84375 z m 13.40628,0 v -10.48437 h 3.96875 q 1.04687,0 1.59375,0.0937 0.76562,0.125 1.28125,0.48437 0.53125,0.35938 0.84375,1.01563 0.32812,0.65625 0.32812,1.4375 0,1.32812 -0.85937,2.26562 -0.84375,0.92188 -3.07813,0.92188 h -2.6875 v 4.26562 z m 1.39062,-5.5 h 2.71875 q 1.34375,0 1.90625,-0.5 0.5625,-0.5 0.5625,-1.40625 0,-0.67187 -0.32812,-1.14062 -0.32813,-0.46875 -0.875,-0.60938 -0.35938,-0.0937 -1.29688,-0.0937 h -2.6875 z m 8.21308,5.5 v -7.59375 h 1.15625 v 1.14063 q 0.45312,-0.79688 0.82812,-1.04688 0.375,-0.26562 0.8125,-0.26562 0.65625,0 1.32813,0.40625 l -0.4375,1.20312 q -0.46875,-0.28125 -0.95313,-0.28125 -0.42187,0 -0.76562,0.25 -0.32813,0.25 -0.46875,0.70313 -0.21875,0.6875 -0.21875,1.5 v 3.98437 z m 4.41192,-3.79687 q 0,-2.10938 1.17188,-3.125 0.98437,-0.84375 2.39062,-0.84375 1.57813,0 2.5625,1.03125 1,1.01562 1,2.82812 0,1.46875 -0.4375,2.3125 -0.4375,0.82813 -1.28125,1.29688 -0.84375,0.46875 -1.84375,0.46875 -1.59375,0 -2.57812,-1.01563 -0.98438,-1.03125 -0.98438,-2.95312 z m 1.32813,0 q 0,1.45312 0.625,2.1875 0.64062,0.71875 1.60937,0.71875 0.96875,0 1.59375,-0.71875 0.64063,-0.73438 0.64063,-2.23438 0,-1.40625 -0.64063,-2.125 -0.64062,-0.73437 -1.59375,-0.73437 -0.96875,0 -1.60937,0.71875 -0.625,0.71875 -0.625,2.1875 z m 12.26044,1.01562 1.26562,0.15625 q -0.20312,1.3125 -1.0625,2.0625 -0.84375,0.73438 -2.09375,0.73438 -1.5625,0 -2.51562,-1.01563 -0.9375,-1.03125 -0.9375,-2.92187 0,-1.23438 0.40625,-2.15625 0.40625,-0.92188 1.23437,-1.375 0.84375,-0.46875 1.8125,-0.46875 1.25,0 2.03125,0.625 0.78125,0.625 1.01563,1.76562 l -1.26563,0.20313 q -0.17187,-0.76563 -0.625,-1.15625 -0.45312,-0.39063 -1.09375,-0.39063 -0.98437,0 -1.59375,0.70313 -0.60937,0.70312 -0.60937,2.20312 0,1.53125 0.57812,2.23438 0.59375,0.6875 1.54688,0.6875 0.75,0 1.26562,-0.45313 0.51563,-0.46875 0.64063,-1.4375 z m 7.57812,0.32813 1.32813,0.17187 q -0.3125,1.17188 -1.17188,1.8125 -0.84375,0.64063 -2.17187,0.64063 -1.67188,0 -2.65625,-1.01563 -0.96875,-1.03125 -0.96875,-2.89062 0,-1.92188 0.98437,-2.96875 1,-1.0625 2.57813,-1.0625 1.51562,0 2.48437,1.03125 0.96875,1.03125 0.96875,2.92187 0,0.10938 -0.0156,0.34375 h -5.65625 q 0.0625,1.25 0.70312,1.92188 0.64063,0.65625 1.59375,0.65625 0.70313,0 1.20313,-0.35938 0.5,-0.375 0.79687,-1.20312 z m -4.23437,-2.07813 h 4.25 q -0.0937,-0.95312 -0.48438,-1.4375 -0.625,-0.75 -1.60937,-0.75 -0.875,0 -1.48438,0.59375 -0.60937,0.59375 -0.67187,1.59375 z m 12.10424,4.53125 v -0.95312 q -0.71875,1.125 -2.125,1.125 -0.90625,0 -1.67187,-0.5 -0.75,-0.5 -1.17188,-1.39063 -0.42187,-0.90625 -0.42187,-2.07812 0,-1.14063 0.375,-2.0625 0.39062,-0.92188 1.14062,-1.40625 0.76563,-0.5 1.70313,-0.5 0.6875,0 1.21875,0.29687 0.53125,0.28125 0.875,0.73438 v -3.75 h 1.28125 v 10.48437 z m -4.0625,-3.79687 q 0,1.46875 0.60938,2.1875 0.625,0.71875 1.45312,0.71875 0.84375,0 1.4375,-0.6875 0.59375,-0.6875 0.59375,-2.10938 0,-1.5625 -0.60937,-2.28125 -0.59375,-0.73437 -1.48438,-0.73437 -0.84375,0 -1.42187,0.70312 -0.57813,0.70313 -0.57813,2.20313 z m 12.27613,3.79687 v -1.10937 q -0.89063,1.28125 -2.42188,1.28125 -0.67187,0 -1.25,-0.25 -0.57812,-0.26563 -0.875,-0.65625 -0.28125,-0.39063 -0.39062,-0.95313 -0.0781,-0.375 -0.0781,-1.20312 v -4.70313 h 1.28125 v 4.20313 q 0,1.01562 0.0781,1.35937 0.125,0.51563 0.51562,0.8125 0.40625,0.28125 0.98438,0.28125 0.57812,0 1.07812,-0.29687 0.51563,-0.29688 0.71875,-0.8125 0.21875,-0.51563 0.21875,-1.48438 v -4.0625 h 1.28125 v 7.59375 z m 3.15112,0 v -7.59375 h 1.15625 v 1.14063 q 0.45312,-0.79688 0.82812,-1.04688 0.375,-0.26562 0.8125,-0.26562 0.65625,0 1.32813,0.40625 l -0.4375,1.20312 q -0.46875,-0.28125 -0.95313,-0.28125 -0.42187,0 -0.76562,0.25 -0.32813,0.25 -0.46875,0.70313 -0.21875,0.6875 -0.21875,1.5 v 3.98437 z m 10.09936,-2.45312 1.32813,0.17187 q -0.3125,1.17188 -1.17188,1.8125 -0.84375,0.64063 -2.17187,0.64063 -1.67188,0 -2.65625,-1.01563 -0.96875,-1.03125 -0.96875,-2.89062 0,-1.92188 0.98437,-2.96875 1,-1.0625 2.57813,-1.0625 1.51562,0 2.48437,1.03125 0.96875,1.03125 0.96875,2.92187 0,0.10938 -0.0156,0.34375 h -5.65625 q 0.0625,1.25 0.70312,1.92188 0.64063,0.65625 1.59375,0.65625 0.70313,0 1.20313,-0.35938 0.5,-0.375 0.79687,-1.20312 z m -4.23437,-2.07813 h 4.25 q -0.0937,-0.95312 -0.48438,-1.4375 -0.625,-0.75 -1.60937,-0.75 -0.875,0 -1.48438,0.59375 -0.60937,0.59375 -0.67187,1.59375 z"
       id="path101"
       inkscape:connector-curvature="0"
       style="fill:#000000;fill-rule:nonzero" />
    <path
       d="m 480,305.39896 h 73.48029 v 11.02362 H 480 Z"
       id="path103"
       inkscape:connector-curvature="0"
       style="fill:#999999;fill-rule:evenodd" />
    <path
       d="m 480,322.23227 h 73.48029 v 11.02365 H 480 Z"
       id="path105"
       inkscape:connector-curvature="0"
       style="fill:#999999;fill-rule:evenodd" />
    <path
       d="m 478.19946,111.32436 h 138.55121 v 58.36219 H 478.19946 Z"
       id="path107"
       inkscape:connector-curvature="0"
       style="fill:#000000;fill-opacity:0;fill-rule:evenodd" />
    <path
       d="M 492.0432,138.24435 V 126.4631 h -4.40625 v -1.57813 h 10.57813 v 1.57813 h -4.40625 v 11.78125 z m 7.771,0 v -9.67188 h 1.46875 v 1.46875 q 0.5625,-1.03125 1.03125,-1.35937 0.48437,-0.32813 1.0625,-0.32813 0.82812,0 1.6875,0.53125 l -0.5625,1.51563 q -0.60938,-0.35938 -1.20313,-0.35938 -0.54687,0 -0.96875,0.32813 -0.42187,0.32812 -0.60937,0.89062 -0.28125,0.875 -0.28125,1.92188 v 5.0625 z m 12.55639,0 v -1.42188 q -1.12497,1.64063 -3.06247,1.64063 -0.85937,0 -1.60937,-0.32813 -0.73438,-0.32812 -1.09375,-0.82812 -0.35938,-0.5 -0.5,-1.21875 -0.10938,-0.46875 -0.10938,-1.53125 v -5.98438 h 1.64063 v 5.35938 q 0,1.28125 0.10937,1.73437 0.15625,0.64063 0.65625,1.01563 0.5,0.375 1.23438,0.375 0.73437,0 1.375,-0.375 0.65625,-0.39063 0.92187,-1.03125 0.2656,-0.65625 0.2656,-1.89063 v -5.1875 h 1.64062 v 9.67188 z m 3.39136,-2.89063 1.625,-0.25 q 0.125,0.96875 0.75,1.5 0.625,0.51563 1.75,0.51563 1.125,0 1.67187,-0.45313 0.54688,-0.46875 0.54688,-1.09375 0,-0.54687 -0.48438,-0.875 -0.32812,-0.21875 -1.67187,-0.54687 -1.8125,-0.46875 -2.51563,-0.79688 -0.6875,-0.32812 -1.04687,-0.90625 -0.35938,-0.59375 -0.35938,-1.3125 0,-0.64062 0.29688,-1.1875 0.29687,-0.5625 0.8125,-0.92187 0.375,-0.28125 1.03125,-0.46875 0.67187,-0.20313 1.42187,-0.20313 1.14063,0 2,0.32813 0.85938,0.32812 1.26563,0.89062 0.42187,0.5625 0.57812,1.5 l -1.60937,0.21875 q -0.10938,-0.75 -0.64063,-1.17187 -0.51562,-0.42188 -1.46875,-0.42188 -1.14062,0 -1.625,0.375 -0.46875,0.375 -0.46875,0.875 0,0.3125 0.1875,0.57813 0.20313,0.26562 0.64063,0.4375 0.23437,0.0937 1.4375,0.42187 1.75,0.45313 2.4375,0.75 0.6875,0.29688 1.07812,0.85938 0.39063,0.5625 0.39063,1.40625 0,0.82812 -0.48438,1.54687 -0.46875,0.71875 -1.375,1.125 -0.90625,0.39063 -2.04687,0.39063 -1.875,0 -2.875,-0.78125 -0.98438,-0.78125 -1.25,-2.32813 z m 13.5625,1.42188 0.23437,1.45312 q -0.6875,0.14063 -1.23437,0.14063 -0.89063,0 -1.39063,-0.28125 -0.48437,-0.28125 -0.6875,-0.73438 -0.20312,-0.46875 -0.20312,-1.9375 v -5.57812 h -1.20313 v -1.26563 h 1.20313 v -2.39062 l 1.625,-0.98438 v 3.375 h 1.65625 v 1.26563 h -1.65625 v 5.67187 q 0,0.6875 0.0781,0.89063 0.0937,0.20312 0.28125,0.32812 0.20313,0.10938 0.57813,0.10938 0.26562,0 0.71875,-0.0625 z m 8.23016,-1.64063 1.6875,0.20313 q -0.40625,1.48437 -1.48437,2.3125 -1.07813,0.8125 -2.76563,0.8125 -2.125,0 -3.375,-1.29688 -1.23437,-1.3125 -1.23437,-3.67187 0,-2.45313 1.25,-3.79688 1.26562,-1.34375 3.26562,-1.34375 1.9375,0 3.15625,1.32813 1.23438,1.3125 1.23438,3.70312 0,0.15625 0,0.4375 h -7.21875 q 0.0937,1.59375 0.90625,2.45313 0.8125,0.84375 2.01562,0.84375 0.90625,0 1.54688,-0.46875 0.64062,-0.48438 1.01562,-1.51563 z m -5.39062,-2.65625 h 5.40625 q -0.10938,-1.21875 -0.625,-1.82812 -0.78125,-0.95313 -2.03125,-0.95313 -1.125,0 -1.90625,0.76563 -0.76563,0.75 -0.84375,2.01562 z m 15.40698,5.76563 v -1.21875 q -0.90625,1.4375 -2.70312,1.4375 -1.15625,0 -2.125,-0.64063 -0.96875,-0.64062 -1.5,-1.78125 -0.53125,-1.14062 -0.53125,-2.625 0,-1.45312 0.48437,-2.625 0.48438,-1.1875 1.4375,-1.8125 0.96875,-0.625 2.17188,-0.625 0.875,0 1.54687,0.375 0.6875,0.35938 1.10938,0.95313 v -4.79688 h 1.64062 v 13.35938 z m -5.17187,-4.82813 q 0,1.85938 0.78125,2.78125 0.78125,0.92188 1.84375,0.92188 1.07812,0 1.82812,-0.875 0.75,-0.89063 0.75,-2.6875 0,-1.98438 -0.76562,-2.90625 -0.76563,-0.9375 -1.89063,-0.9375 -1.07812,0 -1.8125,0.89062 -0.73437,0.89063 -0.73437,2.8125 z"
       id="path109"
       inkscape:connector-curvature="0"
       style="fill:#000000;fill-rule:nonzero" />
    <path
       d="m 498.1682,155.55685 1.76563,0.45312 q -0.5625,2.17188 -2,3.32813 -1.4375,1.14062 -3.53125,1.14062 -2.15625,0 -3.51563,-0.875 -1.34375,-0.89062 -2.0625,-2.54687 -0.70312,-1.67188 -0.70312,-3.59375 0,-2.07813 0.79687,-3.625 0.79688,-1.5625 2.26563,-2.35938 1.48437,-0.8125 3.25,-0.8125 2,0 3.35937,1.01563 1.375,1.01562 1.90625,2.875 l -1.73437,0.40625 q -0.46875,-1.45313 -1.35938,-2.10938 -0.875,-0.67187 -2.20312,-0.67187 -1.54688,0 -2.57813,0.73437 -1.03125,0.73438 -1.45312,1.98438 -0.42188,1.23437 -0.42188,2.5625 0,1.70312 0.5,2.96875 0.5,1.26562 1.54688,1.90625 1.04687,0.625 2.26562,0.625 1.48438,0 2.51563,-0.85938 1.03125,-0.85937 1.39062,-2.54687 z m 3.12921,-0.15625 q 0,-2.6875 1.48438,-3.96875 1.25,-1.07813 3.04687,-1.07813 2,0 3.26563,1.3125 1.26562,1.29688 1.26562,3.60938 0,1.85937 -0.5625,2.9375 -0.5625,1.0625 -1.64062,1.65625 -1.0625,0.59375 -2.32813,0.59375 -2.03125,0 -3.28125,-1.29688 -1.25,-1.3125 -1.25,-3.76562 z m 1.6875,0 q 0,1.85937 0.79688,2.79687 0.8125,0.92188 2.04687,0.92188 1.21875,0 2.03125,-0.92188 0.8125,-0.9375 0.8125,-2.84375 0,-1.79687 -0.8125,-2.71875 -0.8125,-0.92187 -2.03125,-0.92187 -1.23437,0 -2.04687,0.92187 -0.79688,0.90625 -0.79688,2.76563 z m 9.29761,4.84375 v -9.67188 h 1.46875 v 1.375 q 1.0625,-1.59375 3.07812,-1.59375 0.875,0 1.60938,0.3125 0.73437,0.3125 1.09375,0.82813 0.375,0.5 0.51562,1.20312 0.0937,0.45313 0.0937,1.59375 v 5.95313 h -1.64062 v -5.89063 q 0,-1 -0.20313,-1.48437 -0.1875,-0.5 -0.67187,-0.79688 -0.48438,-0.29687 -1.14063,-0.29687 -1.04687,0 -1.8125,0.67187 -0.75,0.65625 -0.75,2.51563 v 5.28125 z m 13.95379,-1.46875 0.23438,1.45312 q -0.6875,0.14063 -1.23438,0.14063 -0.89062,0 -1.39062,-0.28125 -0.48438,-0.28125 -0.6875,-0.73438 -0.20313,-0.46875 -0.20313,-1.9375 v -5.57812 h -1.20312 v -1.26563 h 1.20312 v -2.39062 l 1.625,-0.98438 v 3.375 h 1.65625 v 1.26563 h -1.65625 v 5.67187 q 0,0.6875 0.0781,0.89063 0.0937,0.20312 0.28125,0.32812 0.20312,0.10938 0.57812,0.10938 0.26563,0 0.71875,-0.0625 z m 1.5896,1.46875 v -9.67188 h 1.46875 v 1.46875 q 0.5625,-1.03125 1.03125,-1.35937 0.48438,-0.32813 1.0625,-0.32813 0.82813,0 1.6875,0.53125 l -0.5625,1.51563 q -0.60937,-0.35938 -1.20312,-0.35938 -0.54688,0 -0.96875,0.32813 -0.42188,0.32812 -0.60938,0.89062 -0.28125,0.875 -0.28125,1.92188 v 5.0625 z m 12.54078,-1.1875 q -0.92188,0.76562 -1.76563,1.09375 -0.82812,0.3125 -1.79687,0.3125 -1.59375,0 -2.45313,-0.78125 -0.85937,-0.78125 -0.85937,-1.98438 0,-0.71875 0.32812,-1.29687 0.32813,-0.59375 0.84375,-0.9375 0.53125,-0.35938 1.1875,-0.54688 0.46875,-0.125 1.45313,-0.25 1.98437,-0.23437 2.92187,-0.5625 0.0156,-0.34375 0.0156,-0.42187 0,-1 -0.46875,-1.42188 -0.625,-0.54687 -1.875,-0.54687 -1.15625,0 -1.70313,0.40625 -0.54687,0.40625 -0.8125,1.42187 l -1.60937,-0.21875 q 0.21875,-1.01562 0.71875,-1.64062 0.5,-0.64063 1.45312,-0.98438 0.95313,-0.34375 2.1875,-0.34375 1.25,0 2.01563,0.29688 0.78125,0.28125 1.14062,0.73437 0.375,0.4375 0.51563,1.10938 0.0781,0.42187 0.0781,1.51562 v 2.1875 q 0,2.28125 0.10938,2.89063 0.10937,0.59375 0.40625,1.15625 h -1.70313 q -0.26562,-0.51563 -0.32812,-1.1875 z m -0.14063,-3.67188 q -0.89062,0.375 -2.67187,0.625 -1.01563,0.14063 -1.4375,0.32813 -0.42188,0.1875 -0.65625,0.53125 -0.21875,0.34375 -0.21875,0.78125 0,0.65625 0.5,1.09375 0.5,0.4375 1.45312,0.4375 0.9375,0 1.67188,-0.40625 0.75,-0.42188 1.09375,-1.14063 0.26562,-0.5625 0.26562,-1.64062 z m 10.51636,1.3125 1.60937,0.21875 q -0.26562,1.65625 -1.35937,2.60938 -1.07813,0.9375 -2.67188,0.9375 -1.98437,0 -3.1875,-1.29688 -1.20312,-1.29687 -1.20312,-3.71875 0,-1.57812 0.51562,-2.75 0.51563,-1.17187 1.57813,-1.75 1.0625,-0.59375 2.3125,-0.59375 1.57812,0 2.57812,0.79688 1,0.79687 1.28125,2.26562 l -1.59375,0.23438 q -0.23437,-0.96875 -0.8125,-1.45313 -0.57812,-0.5 -1.39062,-0.5 -1.23438,0 -2.01563,0.89063 -0.78125,0.89062 -0.78125,2.8125 0,1.95312 0.75,2.84375 0.75,0.875 1.95313,0.875 0.96875,0 1.60937,-0.59375 0.65625,-0.59375 0.82813,-1.82813 z m 6.59375,2.07813 0.23437,1.45312 q -0.6875,0.14063 -1.23437,0.14063 -0.89063,0 -1.39063,-0.28125 -0.48437,-0.28125 -0.6875,-0.73438 -0.20312,-0.46875 -0.20312,-1.9375 v -5.57812 h -1.20313 v -1.26563 h 1.20313 v -2.39062 l 1.625,-0.98438 v 3.375 h 1.65625 v 1.26563 h -1.65625 v 5.67187 q 0,0.6875 0.0781,0.89063 0.0937,0.20312 0.28125,0.32812 0.20313,0.10938 0.57813,0.10938 0.26562,0 0.71875,-0.0625 z"
       id="path111"
       inkscape:connector-curvature="0"
       style="fill:#000000;fill-rule:nonzero" />
    <path
       d="m 153.25328,204.91864 h 23.05511 v 27.96851 h -23.05511 z"
       id="path113"
       inkscape:connector-curvature="0"
       style="fill:#000000;fill-opacity:0;fill-rule:evenodd" />
    <path
       d="m 167.22203,226.71863 h -1.17188 v -7.46875 q -0.42187,0.40625 -1.10937,0.8125 -0.6875,0.40625 -1.23438,0.60937 v -1.14062 q 0.98438,-0.45313 1.71875,-1.10938 0.73438,-0.67187 1.03125,-1.28125 h 0.76563 z"
       id="path115"
       inkscape:connector-curvature="0"
       style="fill:#000000;fill-rule:nonzero" />
    <path
       d="m 294.19684,194.72704 h 46.5827 v 27.96851 h -46.5827 z"
       id="path117"
       inkscape:connector-curvature="0"
       style="fill:#000000;fill-opacity:0;fill-rule:evenodd" />
    <path
       d="m 309.89996,215.40204 v 1.125 h -6.29687 q -0.0156,-0.42188 0.14062,-0.8125 0.23438,-0.64063 0.76563,-1.26563 0.53125,-0.625 1.53125,-1.45312 1.5625,-1.26563 2.10937,-2.01563 0.54688,-0.75 0.54688,-1.40625 0,-0.70312 -0.5,-1.17187 -0.5,-0.48438 -1.29688,-0.48438 -0.85937,0 -1.375,0.51563 -0.5,0.5 -0.5,1.39062 l -1.20312,-0.10937 q 0.125,-1.35938 0.92187,-2.0625 0.8125,-0.70313 2.17188,-0.70313 1.375,0 2.17187,0.76563 0.8125,0.75 0.8125,1.875 0,0.57812 -0.23437,1.14062 -0.23438,0.54688 -0.78125,1.15625 -0.54688,0.60938 -1.8125,1.67188 -1.04688,0.89062 -1.35938,1.21875 -0.29687,0.3125 -0.48437,0.625 z"
       id="path119"
       inkscape:connector-curvature="0"
       style="fill:#000000;fill-rule:nonzero" />
    <path
       d="m 452.22702,171.2546 h 23.05514 v 27.96851 h -23.05514 z"
       id="path121"
       inkscape:connector-curvature="0"
       style="fill:#000000;fill-opacity:0;fill-rule:evenodd" />
    <path
       d="m 461.78952,190.53897 1.17187,-0.15625 q 0.20313,1 0.6875,1.4375 0.48438,0.4375 1.17188,0.4375 0.82812,0 1.39062,-0.57813 0.57813,-0.57812 0.57813,-1.42187 0,-0.79688 -0.53125,-1.3125 -0.51563,-0.53125 -1.32813,-0.53125 -0.34375,0 -0.82812,0.125 l 0.125,-1.03125 q 0.125,0.0156 0.1875,0.0156 0.75,0 1.34375,-0.39062 0.60937,-0.39063 0.60937,-1.20313 0,-0.64062 -0.4375,-1.0625 -0.4375,-0.42187 -1.125,-0.42187 -0.6875,0 -1.14062,0.4375 -0.45313,0.42187 -0.59375,1.28125 l -1.17188,-0.21875 q 0.21875,-1.17188 0.98438,-1.8125 0.76562,-0.65625 1.89062,-0.65625 0.78125,0 1.4375,0.34375 0.65625,0.32812 1,0.90625 0.35938,0.57812 0.35938,1.23437 0,0.60938 -0.34375,1.125 -0.32813,0.5 -0.96875,0.79688 0.84375,0.20312 1.3125,0.82812 0.46875,0.60938 0.46875,1.53125 0,1.25 -0.92188,2.125 -0.90625,0.85938 -2.29687,0.85938 -1.25,0 -2.09375,-0.75 -0.82813,-0.75 -0.9375,-1.9375 z"
       id="path123"
       inkscape:connector-curvature="0"
       style="fill:#000000;fill-rule:nonzero" />
    <path
       d="m 575.89764,225.44226 h 23.05512 v 27.96851 h -23.05512 z"
       id="path125"
       inkscape:connector-curvature="0"
       style="fill:#000000;fill-opacity:0;fill-rule:evenodd" />
    <path
       d="m 589.21014,247.24226 v -2.28125 h -4.14062 v -1.07813 l 4.34375,-6.1875 h 0.96875 v 6.1875 h 1.28125 v 1.07813 h -1.28125 v 2.28125 z m 0,-3.35938 v -4.29687 l -2.98437,4.29687 z"
       id="path127"
       inkscape:connector-curvature="0"
       style="fill:#000000;fill-rule:nonzero" />
    <path
       d="m 54.992126,219.4357 h 70.015754 v 37.98425 H 54.992126 Z"
       id="path129"
       inkscape:connector-curvature="0"
       style="fill:#efefef;fill-rule:evenodd" />
    <path
       d="m 64.4765,238.71883 q 0,-2.10938 1.171875,-3.125 0.984375,-0.84375 2.390625,-0.84375 1.578125,0 2.5625,1.03125 1,1.01562 1,2.82812 0,1.46875 -0.4375,2.3125 -0.4375,0.82813 -1.28125,1.29688 -0.84375,0.46875 -1.84375,0.46875 -1.59375,0 -2.578125,-1.01563 Q 64.4765,240.6407 64.4765,238.71883 Z m 1.328125,0 q 0,1.45312 0.625,2.1875 0.640625,0.71875 1.609375,0.71875 0.96875,0 1.59375,-0.71875 0.640625,-0.73438 0.640625,-2.23438 0,-1.40625 -0.640625,-2.125 -0.640625,-0.73437 -1.59375,-0.73437 -0.96875,0 -1.609375,0.71875 -0.625,0.71875 -0.625,2.1875 z m 7.307358,6.70312 v -10.5 h 1.171875 v 0.98438 q 0.421875,-0.57813 0.9375,-0.85938 0.515625,-0.29687 1.265625,-0.29687 0.96875,0 1.71875,0.5 0.75,0.5 1.125,1.42187 0.375,0.90625 0.375,1.98438 0,1.17187 -0.421875,2.10937 -0.40625,0.92188 -1.21875,1.42188 -0.796875,0.5 -1.671875,0.5 -0.640625,0 -1.15625,-0.26563 -0.515625,-0.28125 -0.84375,-0.6875 v 3.6875 z m 1.15625,-6.65625 q 0,1.45313 0.59375,2.15625 0.609375,0.70313 1.453125,0.70313 0.859375,0 1.46875,-0.71875 0.609375,-0.73438 0.609375,-2.25 0,-1.45313 -0.609375,-2.17188 -0.59375,-0.73437 -1.421875,-0.73437 -0.8125,0 -1.453125,0.78125 -0.640625,0.76562 -0.640625,2.23437 z m 11.947983,0.96875 1.265625,0.15625 q -0.203125,1.3125 -1.0625,2.0625 -0.84375,0.73438 -2.09375,0.73438 -1.5625,0 -2.515625,-1.01563 -0.9375,-1.03125 -0.9375,-2.92187 0,-1.23438 0.40625,-2.15625 0.40625,-0.92188 1.234375,-1.375 0.84375,-0.46875 1.8125,-0.46875 1.25,0 2.03125,0.625 0.78125,0.625 1.015625,1.76562 l -1.265625,0.20313 q -0.171875,-0.76563 -0.625,-1.15625 -0.453125,-0.39063 -1.09375,-0.39063 -0.984375,0 -1.59375,0.70313 -0.609375,0.70312 -0.609375,2.20312 0,1.53125 0.578125,2.23438 0.59375,0.6875 1.546875,0.6875 0.75,0 1.265625,-0.45313 0.515625,-0.46875 0.640625,-1.4375 z m 1.890625,-1.01562 q 0,-2.10938 1.171875,-3.125 0.984375,-0.84375 2.390625,-0.84375 1.578125,0 2.5625,1.03125 1,1.01562 1,2.82812 0,1.46875 -0.4375,2.3125 -0.4375,0.82813 -1.28125,1.29688 -0.84375,0.46875 -1.84375,0.46875 -1.59375,0 -2.578125,-1.01563 -0.984375,-1.03125 -0.984375,-2.95312 z m 1.328125,0 q 0,1.45312 0.625,2.1875 0.640625,0.71875 1.609375,0.71875 0.96875,0 1.59375,-0.71875 0.640625,-0.73438 0.640625,-2.23438 0,-1.40625 -0.640625,-2.125 -0.640625,-0.73437 -1.59375,-0.73437 -0.96875,0 -1.609375,0.71875 -0.625,0.71875 -0.625,2.1875 z m 12.229234,3.79687 v -0.95312 q -0.71875,1.125 -2.125001,1.125 -0.90625,0 -1.671875,-0.5 -0.75,-0.5 -1.171875,-1.39063 -0.421875,-0.90625 -0.421875,-2.07812 0,-1.14063 0.375,-2.0625 0.390625,-0.92188 1.140625,-1.40625 0.765625,-0.5 1.703125,-0.5 0.687496,0 1.218746,0.29687 0.53125,0.28125 0.875,0.73438 v -3.75 h 1.28125 v 10.48437 z m -4.062501,-3.79687 q 0,1.46875 0.609375,2.1875 0.625,0.71875 1.453125,0.71875 0.843751,0 1.437501,-0.6875 0.59375,-0.6875 0.59375,-2.10938 0,-1.5625 -0.60938,-2.28125 -0.59375,-0.73437 -1.484371,-0.73437 -0.84375,0 -1.421875,0.70312 -0.578125,0.70313 -0.578125,2.20313 z m 12.494861,1.34375 1.32812,0.17187 q -0.3125,1.17188 -1.17187,1.8125 -0.84375,0.64063 -2.17188,0.64063 -1.67187,0 -2.65625,-1.01563 -0.96875,-1.03125 -0.96875,-2.89062 0,-1.92188 0.98438,-2.96875 1,-1.0625 2.57812,-1.0625 1.51563,0 2.48438,1.03125 0.96875,1.03125 0.96875,2.92187 0,0.10938 -0.0156,0.34375 h -5.65625 q 0.0625,1.25 0.70313,1.92188 0.64062,0.65625 1.59375,0.65625 0.70312,0 1.20312,-0.35938 0.5,-0.375 0.79688,-1.20312 z m -4.23438,-2.07813 h 4.25 q -0.0937,-0.95312 -0.48437,-1.4375 -0.625,-0.75 -1.60938,-0.75 -0.875,0 -1.48437,0.59375 -0.60938,0.59375 -0.67188,1.59375 z"
       id="path131"
       inkscape:connector-curvature="0"
       style="fill:#000000;fill-rule:nonzero" />
    <path
       d="m 408.79022,274.90555 15.11175,-13.50638 3.11164,3.63294 -15.11179,13.50637 z"
       id="path133"
       inkscape:connector-curvature="0"
       style="fill:#6aa84f;fill-rule:evenodd" />
    <path
       d="m 402.5091,268.77756 3.55789,-3.17725 8.81418,10.27854 -3.55792,3.17721 z"
       id="path135"
       inkscape:connector-curvature="0"
       style="fill:#6aa84f;fill-rule:evenodd" />
    <path
       d="m 282.74124,231.89502 h 59.40158"
       id="path137"
       inkscape:connector-curvature="0"
       style="fill:#000000;fill-opacity:0;fill-rule:evenodd" />
    <path
       d="m 282.74124,231.89502 h 53.40158"
       id="path139"
       inkscape:connector-curvature="0"
       style="fill-rule:evenodd;stroke:#000000;stroke-width:1;stroke-linecap:butt;stroke-linejoin:round" />
    <path
       d="m 336.14282,233.54675 4.53809,-1.65173 -4.53809,-1.65174 z"
       id="path141"
       inkscape:connector-curvature="0"
       style="fill:#000000;fill-rule:evenodd;stroke:#000000;stroke-width:1;stroke-linecap:butt" />
    <path
       d="m 342.1547,170.9029 h 73.48032 v 37.98425 H 342.1547 Z"
       id="path143"
       inkscape:connector-curvature="0"
       style="fill:#9fc5e8;fill-rule:evenodd" />
    <path
       d="m 351.63907,190.186 q 0,-2.10938 1.17187,-3.125 0.98438,-0.84375 2.39063,-0.84375 1.57812,0 2.5625,1.03125 1,1.01562 1,2.82812 0,1.46875 -0.4375,2.3125 -0.4375,0.82813 -1.28125,1.29688 -0.84375,0.46875 -1.84375,0.46875 -1.59375,0 -2.57813,-1.01563 -0.98437,-1.03125 -0.98437,-2.95312 z m 1.32812,0 q 0,1.45312 0.625,2.1875 0.64063,0.71875 1.60938,0.71875 0.96875,0 1.59375,-0.71875 0.64062,-0.73438 0.64062,-2.23438 0,-1.40625 -0.64062,-2.125 -0.64063,-0.73437 -1.59375,-0.73437 -0.96875,0 -1.60938,0.71875 -0.625,0.71875 -0.625,2.1875 z m 8.7136,3.79687 -2.32813,-7.59375 h 1.32813 l 1.20312,4.375 0.45313,1.64063 q 0.0312,-0.125 0.39062,-1.57813 l 1.21875,-4.4375 h 1.32813 l 1.125,4.40625 0.39062,1.45313 0.4375,-1.46875 1.29688,-4.39063 h 1.25 l -2.375,7.59375 h -1.34375 l -1.20313,-4.54687 -0.29687,-1.29688 -1.53125,5.84375 z m 9.17804,0 v -7.59375 h 1.15625 v 1.07813 q 0.84375,-1.25 2.42187,-1.25 0.6875,0 1.26563,0.25 0.57812,0.23437 0.85937,0.64062 0.28125,0.40625 0.40625,0.95313 0.0625,0.35937 0.0625,1.25 v 4.67187 h -1.28125 v -4.625 q 0,-0.78125 -0.15625,-1.17187 -0.15625,-0.39063 -0.54687,-0.625 -0.375,-0.23438 -0.89063,-0.23438 -0.8125,0 -1.42187,0.53125 -0.59375,0.51563 -0.59375,1.96875 v 4.15625 z m 13.35422,-2.45312 1.32812,0.17187 q -0.3125,1.17188 -1.17187,1.8125 -0.84375,0.64063 -2.17188,0.64063 -1.67187,0 -2.65625,-1.01563 -0.96875,-1.03125 -0.96875,-2.89062 0,-1.92188 0.98438,-2.96875 1,-1.0625 2.57812,-1.0625 1.51563,0 2.48438,1.03125 0.96875,1.03125 0.96875,2.92187 0,0.10938 -0.0156,0.34375 h -5.65625 q 0.0625,1.25 0.70313,1.92188 0.64062,0.65625 1.59375,0.65625 0.70312,0 1.20312,-0.35938 0.5,-0.375 0.79688,-1.20312 z m -4.23438,-2.07813 h 4.25 q -0.0937,-0.95312 -0.48437,-1.4375 -0.625,-0.75 -1.60938,-0.75 -0.875,0 -1.48437,0.59375 -0.60938,0.59375 -0.67188,1.59375 z m 7.16675,4.53125 v -7.59375 h 1.15625 v 1.14063 q 0.45312,-0.79688 0.82812,-1.04688 0.375,-0.26562 0.8125,-0.26562 0.65625,0 1.32813,0.40625 l -0.4375,1.20312 q -0.46875,-0.28125 -0.95313,-0.28125 -0.42187,0 -0.76562,0.25 -0.32813,0.25 -0.46875,0.70313 -0.21875,0.6875 -0.21875,1.5 v 3.98437 z"
       id="path145"
       inkscape:connector-curvature="0"
       style="fill:#000000;fill-rule:nonzero" />
    <path
       d="m 492.36072,179.72829 h 43.71655 v 11.02362 h -43.71655 z"
       id="path147"
       inkscape:connector-curvature="0"
       style="fill:#6fa8dc;fill-rule:evenodd" />
    <path
       d="m 492.36072,207.5603 h 43.71655 v 11.02362 h -43.71655 z"
       id="path149"
       inkscape:connector-curvature="0"
       style="fill:#93c47d;fill-rule:evenodd" />
  </g>
</svg>
