<?xml version="1.0" encoding="UTF-8" standalone="no"?>
<svg
   xmlns:dc="http://purl.org/dc/elements/1.1/"
   xmlns:cc="http://creativecommons.org/ns#"
   xmlns:rdf="http://www.w3.org/1999/02/22-rdf-syntax-ns#"
   xmlns:svg="http://www.w3.org/2000/svg"
   xmlns="http://www.w3.org/2000/svg"
   xmlns:sodipodi="http://sodipodi.sourceforge.net/DTD/sodipodi-0.dtd"
   xmlns:inkscape="http://www.inkscape.org/namespaces/inkscape"
   version="1.1"
   viewBox="0 0 345.94489 259.9462"
   stroke-miterlimit="10"
   id="svg85"
   sodipodi:docname="BeakerKernelOverview.svg"
   width="345.94489"
   height="259.9462"
   style="fill:none;stroke:none;stroke-linecap:square;stroke-miterlimit:10"
   inkscape:version="0.92.3 (2405546, 2018-03-11)">
  <metadata
     id="metadata91">
    <rdf:RDF>
      <cc:Work
         rdf:about="">
        <dc:format>image/svg+xml</dc:format>
        <dc:type
           rdf:resource="http://purl.org/dc/dcmitype/StillImage" />
        <dc:title></dc:title>
      </cc:Work>
    </rdf:RDF>
  </metadata>
  <defs
     id="defs89" />
  <sodipodi:namedview
     pagecolor="#ffffff"
     bordercolor="#666666"
     borderopacity="1"
     objecttolerance="10"
     gridtolerance="10"
     guidetolerance="10"
     inkscape:pageopacity="0"
     inkscape:pageshadow="2"
     inkscape:window-width="1920"
     inkscape:window-height="1001"
     id="namedview87"
     showgrid="false"
     fit-margin-top="0"
     fit-margin-left="0"
     fit-margin-right="0"
     fit-margin-bottom="0"
     inkscape:zoom="1.1125147"
     inkscape:cx="442.14336"
     inkscape:cy="152.36323"
     inkscape:window-x="-9"
     inkscape:window-y="-9"
     inkscape:window-maximized="1"
     inkscape:current-layer="g83" />
  <clipPath
     id="p.0">
    <path
       d="M 0,0 H 800 V 600 H 0 Z"
       id="path2"
       inkscape:connector-curvature="0"
       style="clip-rule:nonzero" />
  </clipPath>
  <g
     clip-path="url(#p.0)"
     id="g83"
     transform="translate(-22.562992,-166.6811)">
    <path
       d="M 23.062992,225.0373 H 368.00789 V 330.64359 H 23.062992 Z"
       id="path7"
       inkscape:connector-curvature="0"
       style="fill:#c9daf8;fill-rule:evenodd" />
    <path
       d="M 23.062992,225.0373 H 368.00789 V 330.64359 H 23.062992 Z"
       id="path9"
       inkscape:connector-curvature="0"
       style="fill-rule:evenodd;stroke:#434343;stroke-width:1;stroke-linecap:butt;stroke-linejoin:round" />
    <path
       d="m 118.76378,261.87665 h 155.2126 v 32 h -155.2126 z"
       id="path11"
       inkscape:connector-curvature="0"
       style="fill:#000000;fill-opacity:0;fill-rule:evenodd" />
    <path
       d="M 134.39743,286.23663 V 274.7835 h 4.29688 q 1.3125,0 2.10937,0.34375 0.79688,0.34375 1.23438,1.07813 0.45312,0.71875 0.45312,1.5 0,0.73437 -0.40625,1.39062 -0.39062,0.64063 -1.1875,1.04688 1.03125,0.29687 1.59375,1.03125 0.5625,0.73437 0.5625,1.73437 0,0.8125 -0.34375,1.5 -0.34375,0.6875 -0.84375,1.0625 -0.5,0.375 -1.25,0.57813 -0.75,0.1875 -1.84375,0.1875 z m 1.51563,-6.64063 h 2.48437 q 1,0 1.4375,-0.14062 0.57813,-0.17188 0.875,-0.5625 0.29688,-0.40625 0.29688,-1 0,-0.57813 -0.28125,-1 -0.26563,-0.4375 -0.78125,-0.59375 -0.5,-0.17188 -1.73438,-0.17188 h -2.29687 z m 0,5.28125 h 2.85937 q 0.73438,0 1.03125,-0.0469 0.51563,-0.0937 0.85938,-0.3125 0.35937,-0.21875 0.57812,-0.64063 0.23438,-0.42187 0.23438,-0.96875 0,-0.64062 -0.32813,-1.10937 -0.32812,-0.46875 -0.90625,-0.65625 -0.57812,-0.20313 -1.67187,-0.20313 h -2.65625 z m 14.71875,-1.3125 1.45312,0.17188 q -0.34375,1.28125 -1.28125,1.98437 -0.92187,0.70313 -2.35937,0.70313 -1.82813,0 -2.89063,-1.125 -1.0625,-1.125 -1.0625,-3.14063 0,-2.09375 1.07813,-3.25 1.07812,-1.15625 2.79687,-1.15625 1.65625,0 2.70313,1.14063 1.0625,1.125 1.0625,3.17187 0,0.125 0,0.375 h -6.1875 q 0.0781,1.375 0.76562,2.10938 0.70313,0.71875 1.73438,0.71875 0.78125,0 1.32812,-0.40625 0.54688,-0.40625 0.85938,-1.29688 z m -4.60938,-2.28125 h 4.625 q -0.0937,-1.04687 -0.53125,-1.5625 -0.67187,-0.8125 -1.73437,-0.8125 -0.96875,0 -1.64063,0.65625 -0.65625,0.64063 -0.71875,1.71875 z m 13.24219,3.92188 q -0.78125,0.67187 -1.5,0.95312 -0.71875,0.26563 -1.54688,0.26563 -1.375,0 -2.10937,-0.67188 -0.73438,-0.67187 -0.73438,-1.70312 0,-0.60938 0.28125,-1.10938 0.28125,-0.51562 0.71875,-0.8125 0.45313,-0.3125 1.01563,-0.46875 0.42187,-0.10937 1.25,-0.20312 1.70312,-0.20313 2.51562,-0.48438 0,-0.29687 0,-0.375 0,-0.85937 -0.39062,-1.20312 -0.54688,-0.48438 -1.60938,-0.48438 -0.98437,0 -1.46875,0.35938 -0.46875,0.34375 -0.6875,1.21875 l -1.375,-0.1875 q 0.1875,-0.875 0.60938,-1.42188 0.4375,-0.54687 1.25,-0.82812 0.8125,-0.29688 1.875,-0.29688 1.0625,0 1.71875,0.25 0.67187,0.25 0.98437,0.625 0.3125,0.375 0.4375,0.95313 0.0781,0.35937 0.0781,1.29687 v 1.875 q 0,1.96875 0.0781,2.48438 0.0937,0.51562 0.35938,1 h -1.46875 q -0.21875,-0.4375 -0.28125,-1.03125 z m -0.10938,-3.14063 q -0.76562,0.3125 -2.29687,0.53125 -0.875,0.125 -1.23438,0.28125 -0.35937,0.15625 -0.5625,0.46875 -0.1875,0.29688 -0.1875,0.65625 0,0.5625 0.42188,0.9375 0.4375,0.375 1.25,0.375 0.8125,0 1.4375,-0.34375 0.64062,-0.35937 0.9375,-0.98437 0.23437,-0.46875 0.23437,-1.40625 z m 3.60157,4.17188 V 274.7835 h 1.40625 v 6.53125 l 3.32812,-3.375 h 1.82813 l -3.17188,3.07813 3.48438,5.21875 h -1.73438 l -2.73437,-4.25 -1,0.95312 v 3.29688 z m 13.67187,-2.67188 1.45313,0.17188 q -0.34375,1.28125 -1.28125,1.98437 -0.92188,0.70313 -2.35938,0.70313 -1.82812,0 -2.89062,-1.125 -1.0625,-1.125 -1.0625,-3.14063 0,-2.09375 1.07812,-3.25 1.07813,-1.15625 2.79688,-1.15625 1.65625,0 2.70312,1.14063 1.0625,1.125 1.0625,3.17187 0,0.125 0,0.375 h -6.1875 q 0.0781,1.375 0.76563,2.10938 0.70312,0.71875 1.73437,0.71875 0.78125,0 1.32813,-0.40625 0.54687,-0.40625 0.85937,-1.29688 z m -4.60937,-2.28125 h 4.625 q -0.0937,-1.04687 -0.53125,-1.5625 -0.67188,-0.8125 -1.73438,-0.8125 -0.96875,0 -1.64062,0.65625 -0.65625,0.64063 -0.71875,1.71875 z m 7.82031,4.95313 v -8.29688 h 1.26562 v 1.25 q 0.48438,-0.875 0.89063,-1.15625 0.40625,-0.28125 0.90625,-0.28125 0.70312,0 1.4375,0.45313 l -0.48438,1.29687 q -0.51562,-0.29687 -1.03125,-0.29687 -0.45312,0 -0.82812,0.28125 -0.35938,0.26562 -0.51563,0.76562 -0.23437,0.75 -0.23437,1.64063 v 4.34375 z m 9.99219,0 V 274.7835 h 8.28125 v 1.34375 h -6.76563 v 3.51563 h 6.34375 v 1.34375 h -6.34375 v 3.89062 h 7.03125 v 1.35938 z m 9.53125,0 3.03125,-4.3125 -2.8125,-3.98438 h 1.76562 l 1.26563,1.9375 q 0.35937,0.5625 0.57812,0.9375 0.34375,-0.51562 0.64063,-0.92187 l 1.39062,-1.95313 h 1.6875 l -2.875,3.90625 3.09375,4.39063 h -1.73437 l -1.70313,-2.57813 -0.45312,-0.70312 -2.17188,3.28125 z m 8.40625,-4.15625 q 0,-2.29688 1.28125,-3.40625 1.07812,-0.92188 2.60937,-0.92188 1.71875,0 2.79688,1.125 1.09375,1.10938 1.09375,3.09375 0,1.59375 -0.48438,2.51563 -0.48437,0.92187 -1.40625,1.4375 -0.90625,0.5 -2,0.5 -1.73437,0 -2.8125,-1.10938 -1.07812,-1.125 -1.07812,-3.23437 z m 1.45312,0 q 0,1.59375 0.6875,2.39062 0.70313,0.79688 1.75,0.79688 1.04688,0 1.73438,-0.79688 0.70312,-0.79687 0.70312,-2.4375 0,-1.53125 -0.70312,-2.32812 -0.6875,-0.79688 -1.73438,-0.79688 -1.04687,0 -1.75,0.79688 -0.6875,0.78125 -0.6875,2.375 z m 7.97656,4.15625 V 274.7835 h 1.40625 v 6.53125 l 3.32813,-3.375 h 1.82812 l -3.17187,3.07813 3.48437,5.21875 h -1.73437 l -2.73438,-4.25 -1,0.95312 v 3.29688 z m 13.67188,-2.67188 1.45312,0.17188 q -0.34375,1.28125 -1.28125,1.98437 -0.92187,0.70313 -2.35937,0.70313 -1.82813,0 -2.89063,-1.125 -1.0625,-1.125 -1.0625,-3.14063 0,-2.09375 1.07813,-3.25 1.07812,-1.15625 2.79687,-1.15625 1.65625,0 2.70313,1.14063 1.0625,1.125 1.0625,3.17187 0,0.125 0,0.375 h -6.1875 q 0.0781,1.375 0.76562,2.10938 0.70313,0.71875 1.73438,0.71875 0.78125,0 1.32812,-0.40625 0.54688,-0.40625 0.85938,-1.29688 z m -4.60938,-2.28125 h 4.625 q -0.0937,-1.04687 -0.53125,-1.5625 -0.67187,-0.8125 -1.73437,-0.8125 -0.96875,0 -1.64063,0.65625 -0.65625,0.64063 -0.71875,1.71875 z m 7.82032,4.95313 v -8.29688 h 1.26562 v 1.25 q 0.48438,-0.875 0.89063,-1.15625 0.40625,-0.28125 0.90625,-0.28125 0.70312,0 1.4375,0.45313 l -0.48438,1.29687 q -0.51562,-0.29687 -1.03125,-0.29687 -0.45312,0 -0.82812,0.28125 -0.35938,0.26562 -0.51563,0.76562 -0.23437,0.75 -0.23437,1.64063 v 4.34375 z m 5.34375,0 v -8.29688 h 1.26562 v 1.17188 q 0.90625,-1.35938 2.64063,-1.35938 0.75,0 1.375,0.26563 0.625,0.26562 0.9375,0.70312 0.3125,0.4375 0.4375,1.04688 0.0781,0.39062 0.0781,1.35937 v 5.10938 h -1.40625 v -5.04688 q 0,-0.85937 -0.17187,-1.28125 -0.15625,-0.4375 -0.57813,-0.6875 -0.40625,-0.25 -0.96875,-0.25 -0.90625,0 -1.5625,0.57813 -0.64062,0.5625 -0.64062,2.15625 v 4.53125 z m 14.57029,-2.67188 1.45313,0.17188 q -0.34375,1.28125 -1.28125,1.98437 -0.92188,0.70313 -2.35938,0.70313 -1.82812,0 -2.89062,-1.125 -1.0625,-1.125 -1.0625,-3.14063 0,-2.09375 1.07812,-3.25 1.07813,-1.15625 2.79688,-1.15625 1.65625,0 2.70312,1.14063 1.0625,1.125 1.0625,3.17187 0,0.125 0,0.375 h -6.1875 q 0.0781,1.375 0.76563,2.10938 0.70312,0.71875 1.73437,0.71875 0.78125,0 1.32813,-0.40625 0.54687,-0.40625 0.85937,-1.29688 z m -4.60937,-2.28125 h 4.625 q -0.0937,-1.04687 -0.53125,-1.5625 -0.67188,-0.8125 -1.73438,-0.8125 -0.96875,0 -1.64062,0.65625 -0.65625,0.64063 -0.71875,1.71875 z m 7.8047,4.95313 V 274.7835 h 1.40625 v 11.45313 z"
       id="path13"
       inkscape:connector-curvature="0"
       style="fill:#000000;fill-rule:nonzero" />
    <path
       d="M 23.062992,336.69846 H 134.2126 v 51.87402 H 23.062992 Z"
       id="path15"
       inkscape:connector-curvature="0"
       style="fill:#d9d9d9;fill-rule:evenodd" />
    <path
       d="M 23.062992,336.69846 H 134.2126 v 51.87402 H 23.062992 Z"
       id="path17"
       inkscape:connector-curvature="0"
       style="fill-rule:evenodd;stroke:#434343;stroke-width:1;stroke-linecap:butt;stroke-linejoin:round" />
    <path
       d="m 25.67443,343.69043 h 105.92126 v 32 H 25.67443 Z"
       id="path19"
       inkscape:connector-curvature="0"
       style="fill:#000000;fill-opacity:0;fill-rule:evenodd" />
    <path
       d="m 51.33428,364.3629 1.4375,-0.125 q 0.09375,0.85938 0.46875,1.42188 0.375,0.54687 1.15625,0.89062 0.78125,0.32813 1.75,0.32813 0.875,0 1.53125,-0.25 0.671875,-0.26563 0.984375,-0.70313 0.328125,-0.45312 0.328125,-0.98437 0,-0.54688 -0.3125,-0.9375 -0.3125,-0.40625 -1.03125,-0.6875 -0.453125,-0.17188 -2.03125,-0.54688 -1.578125,-0.39062 -2.21875,-0.71875 -0.8125,-0.4375 -1.21875,-1.0625 -0.40625,-0.64062 -0.40625,-1.4375 0,-0.85937 0.484375,-1.60937 0.5,-0.76563 1.4375,-1.15625 0.953125,-0.39063 2.109375,-0.39063 1.28125,0 2.25,0.42188 0.96875,0.40625 1.484375,1.20312 0.53125,0.79688 0.578125,1.79688 l -1.453125,0.10937 q -0.125,-1.07812 -0.796875,-1.625 -0.671875,-0.5625 -2,-0.5625 -1.375,0 -2,0.5 -0.625,0.5 -0.625,1.21875 0,0.60938 0.4375,1.01563 0.4375,0.39062 2.28125,0.8125 1.859375,0.42187 2.546875,0.73437 1,0.45313 1.46875,1.17188 0.484375,0.70312 0.484375,1.625 0,0.90625 -0.53125,1.71875 -0.515625,0.8125 -1.5,1.26562 -0.984375,0.45313 -2.203125,0.45313 -1.5625,0 -2.609375,-0.45313 -1.046875,-0.46875 -1.65625,-1.375 -0.59375,-0.90625 -0.625,-2.0625 z m 14.078129,2.42188 0.203125,1.25 q -0.59375,0.125 -1.0625,0.125 -0.765629,0 -1.187504,-0.23438 -0.421875,-0.25 -0.59375,-0.64062 -0.171875,-0.40625 -0.171875,-1.67188 v -4.76562 h -1.03125 v -1.09375 h 1.03125 v -2.0625 l 1.406254,-0.84375 v 2.90625 h 1.40625 v 1.09375 h -1.40625 v 4.84375 q 0,0.60937 0.0625,0.78125 0.07813,0.17187 0.25,0.28125 0.171875,0.0937 0.484375,0.0937 0.234375,0 0.609375,-0.0625 z m 0.851562,-2.89063 q 0,-2.29687 1.28125,-3.40625 1.078125,-0.92187 2.609375,-0.92187 1.71875,0 2.796875,1.125 1.09375,1.10937 1.09375,3.09375 0,1.59375 -0.484375,2.51562 -0.484375,0.92188 -1.40625,1.4375 -0.90625,0.5 -2,0.5 -1.734375,0 -2.8125,-1.10937 -1.078125,-1.125 -1.078125,-3.23438 z m 1.453125,0 q 0,1.59375 0.6875,2.39063 0.703125,0.79687 1.75,0.79687 1.046875,0 1.734375,-0.79687 0.703125,-0.79688 0.703125,-2.4375 0,-1.53125 -0.703125,-2.32813 -0.6875,-0.79687 -1.734375,-0.79687 -1.046875,0 -1.75,0.79687 -0.6875,0.78125 -0.6875,2.375 z m 7.960938,4.15625 v -8.29687 h 1.265625 v 1.25 q 0.484375,-0.875 0.890625,-1.15625 0.40625,-0.28125 0.90625,-0.28125 0.703125,0 1.4375,0.45312 l -0.484375,1.29688 q -0.515625,-0.29688 -1.03125,-0.29688 -0.453125,0 -0.828125,0.28125 -0.359375,0.26563 -0.515625,0.76563 -0.234375,0.75 -0.234375,1.64062 v 4.34375 z m 10.75,-1.03125 q -0.78125,0.67188 -1.5,0.95313 -0.71875,0.26562 -1.546875,0.26562 -1.375,0 -2.109375,-0.67187 -0.734375,-0.67188 -0.734375,-1.70313 0,-0.60937 0.28125,-1.10937 0.28125,-0.51563 0.71875,-0.8125 0.453125,-0.3125 1.015625,-0.46875 0.421875,-0.10938 1.25,-0.20313 1.703125,-0.20312 2.515625,-0.48437 0,-0.29688 0,-0.375 0,-0.85938 -0.390625,-1.20313 -0.546875,-0.48437 -1.609375,-0.48437 -0.984375,0 -1.46875,0.35937 -0.46875,0.34375 -0.6875,1.21875 l -1.375,-0.1875 q 0.1875,-0.875 0.609375,-1.42187 0.4375,-0.54688 1.25,-0.82813 0.8125,-0.29687 1.875,-0.29687 1.0625,0 1.71875,0.25 0.671875,0.25 0.984375,0.625 0.3125,0.375 0.4375,0.95312 0.07813,0.35938 0.07813,1.29688 v 1.875 q 0,1.96875 0.07813,2.48437 0.09375,0.51563 0.359375,1 h -1.46875 q -0.21875,-0.4375 -0.28125,-1.03125 z m -0.109375,-3.14062 q -0.765625,0.3125 -2.296875,0.53125 -0.875,0.125 -1.234375,0.28125 -0.359375,0.15625 -0.5625,0.46875 -0.1875,0.29687 -0.1875,0.65625 0,0.5625 0.421875,0.9375 0.4375,0.375 1.25,0.375 0.8125,0 1.4375,-0.34375 0.640625,-0.35938 0.9375,-0.98438 0.234375,-0.46875 0.234375,-1.40625 z m 3.335937,4.85937 1.375,0.20313 q 0.07813,0.64062 0.46875,0.92187 0.53125,0.39063 1.4375,0.39063 0.96875,0 1.5,-0.39063 0.53125,-0.39062 0.71875,-1.09375 0.109375,-0.42187 0.109375,-1.8125 -0.921875,1.09375 -2.296875,1.09375 -1.71875,0 -2.65625,-1.23437 -0.9375,-1.23438 -0.9375,-2.96875 0,-1.1875 0.421875,-2.1875 0.4375,-1 1.25,-1.54688 0.828125,-0.54687 1.921875,-0.54687 1.46875,0 2.421875,1.1875 v -1 h 1.296875 v 7.17187 q 0,1.9375 -0.390625,2.75 -0.390625,0.8125 -1.25,1.28125 -0.859375,0.46875 -2.109375,0.46875 -1.484375,0 -2.40625,-0.67187 -0.90625,-0.67188 -0.875,-2.01563 z m 1.171875,-4.98437 q 0,1.625 0.640625,2.375 0.65625,0.75 1.625,0.75 0.96875,0 1.625,-0.73438 0.65625,-0.75 0.65625,-2.34375 0,-1.53125 -0.671875,-2.29687 -0.671875,-0.78125 -1.625,-0.78125 -0.9375,0 -1.59375,0.76562 -0.65625,0.76563 -0.65625,2.26563 z m 13.664059,1.625 1.45313,0.17187 q -0.34375,1.28125 -1.28125,1.98438 -0.92188,0.70312 -2.35938,0.70312 -1.82812,0 -2.890621,-1.125 -1.0625,-1.125 -1.0625,-3.14062 0,-2.09375 1.078125,-3.25 1.078126,-1.15625 2.796876,-1.15625 1.65625,0 2.70312,1.14062 1.0625,1.125 1.0625,3.17188 0,0.125 0,0.375 h -6.187496 q 0.07813,1.375 0.765626,2.10937 0.70312,0.71875 1.73437,0.71875 0.78125,0 1.32813,-0.40625 0.54687,-0.40625 0.85937,-1.29687 z m -4.609371,-2.28125 h 4.625001 q -0.0937,-1.04688 -0.53125,-1.5625 -0.67188,-0.8125 -1.73438,-0.8125 -0.96875,0 -1.64062,0.65625 -0.656251,0.64062 -0.718751,1.71875 z"
       id="path21"
       inkscape:connector-curvature="0"
       style="fill:#000000;fill-rule:nonzero" />
    <path
       d="m 139.9595,336.62497 h 111.1496 v 51.87402 H 139.9595 Z"
       id="path23"
       inkscape:connector-curvature="0"
       style="fill:#d9d9d9;fill-rule:evenodd" />
    <path
       d="m 139.9595,336.62497 h 111.1496 v 51.87402 H 139.9595 Z"
       id="path25"
       inkscape:connector-curvature="0"
       style="fill-rule:evenodd;stroke:#434343;stroke-width:1;stroke-linecap:butt;stroke-linejoin:round" />
    <path
       d="m 143.41066,343.6169 h 105.92126 v 32 H 143.41066 Z"
       id="path27"
       inkscape:connector-curvature="0"
       style="fill:#000000;fill-opacity:0;fill-rule:evenodd" />
    <path
       d="M 173.17989,367.97693 V 356.5238 h 8.28125 v 1.34375 h -6.76563 v 3.51563 h 6.34375 v 1.34375 h -6.34375 v 3.89062 h 7.03125 v 1.35938 z m 12.76562,0 -3.15625,-8.29688 h 1.48438 l 1.78125,4.96875 q 0.29687,0.79688 0.53125,1.67188 0.1875,-0.65625 0.53125,-1.57813 l 1.84375,-5.0625 h 1.4375 l -3.14063,8.29688 z m 11.375,-2.67188 1.45313,0.17188 q -0.34375,1.28125 -1.28125,1.98437 -0.92188,0.70313 -2.35938,0.70313 -1.82812,0 -2.89062,-1.125 -1.0625,-1.125 -1.0625,-3.14063 0,-2.09375 1.07812,-3.25 1.07813,-1.15625 2.79688,-1.15625 1.65625,0 2.70312,1.14063 1.0625,1.125 1.0625,3.17187 0,0.125 0,0.375 h -6.1875 q 0.0781,1.375 0.76563,2.10938 0.70312,0.71875 1.73437,0.71875 0.78125,0 1.32813,-0.40625 0.54687,-0.40625 0.85937,-1.29688 z m -4.60937,-2.28125 h 4.625 q -0.0937,-1.04687 -0.53125,-1.5625 -0.67188,-0.8125 -1.73438,-0.8125 -0.96875,0 -1.64062,0.65625 -0.65625,0.64063 -0.71875,1.71875 z m 7.83594,4.95313 v -8.29688 h 1.26562 v 1.17188 q 0.90625,-1.35938 2.64063,-1.35938 0.75,0 1.375,0.26563 0.625,0.26562 0.9375,0.70312 0.3125,0.4375 0.4375,1.04688 0.0781,0.39062 0.0781,1.35937 v 5.10938 h -1.40625 v -5.04688 q 0,-0.85937 -0.17187,-1.28125 -0.15625,-0.4375 -0.57813,-0.6875 -0.40625,-0.25 -0.96875,-0.25 -0.90625,0 -1.5625,0.57813 -0.64062,0.5625 -0.64062,2.15625 v 4.53125 z m 11.96093,-1.26563 0.20313,1.25 q -0.59375,0.125 -1.0625,0.125 -0.76563,0 -1.1875,-0.23437 -0.42188,-0.25 -0.59375,-0.64063 -0.17188,-0.40625 -0.17188,-1.67187 v -4.76563 h -1.03125 v -1.09375 h 1.03125 v -2.0625 l 1.40625,-0.84375 v 2.90625 h 1.40625 v 1.09375 h -1.40625 v 4.84375 q 0,0.60938 0.0625,0.78125 0.0781,0.17188 0.25,0.28125 0.17188,0.0937 0.48438,0.0937 0.23437,0 0.60937,-0.0625 z m 0.82032,-1.21875 1.39062,-0.21875 q 0.10938,0.84375 0.64063,1.29688 0.54687,0.4375 1.5,0.4375 0.96875,0 1.4375,-0.39063 0.46875,-0.40625 0.46875,-0.9375 0,-0.46875 -0.40625,-0.75 -0.29688,-0.1875 -1.4375,-0.46875 -1.54688,-0.39062 -2.15625,-0.67187 -0.59375,-0.29688 -0.90625,-0.79688 -0.29688,-0.5 -0.29688,-1.10937 0,-0.5625 0.25,-1.03125 0.25,-0.46875 0.6875,-0.78125 0.32813,-0.25 0.89063,-0.40625 0.57812,-0.17188 1.21875,-0.17188 0.98437,0 1.71875,0.28125 0.73437,0.28125 1.07812,0.76563 0.35938,0.46875 0.5,1.28125 l -1.375,0.1875 q -0.0937,-0.64063 -0.54687,-1 -0.45313,-0.35938 -1.26563,-0.35938 -0.96875,0 -1.39062,0.32813 -0.40625,0.3125 -0.40625,0.73437 0,0.28125 0.17187,0.5 0.17188,0.21875 0.53125,0.375 0.21875,0.0781 1.25,0.35938 1.48438,0.39062 2.07813,0.65625 0.59375,0.25 0.92187,0.73437 0.34375,0.48438 0.34375,1.20313 0,0.70312 -0.42187,1.32812 -0.40625,0.60938 -1.1875,0.95313 -0.76563,0.34375 -1.73438,0.34375 -1.625,0 -2.46875,-0.67188 -0.84375,-0.67187 -1.07812,-2 z"
       id="path29"
       inkscape:connector-curvature="0"
       style="fill:#000000;fill-rule:nonzero" />
    <path
       d="M 23.062992,167.1811 H 368.00789 v 51.87401 H 23.062992 Z"
       id="path31"
       inkscape:connector-curvature="0"
       style="fill:#fff2cc;fill-rule:evenodd" />
    <path
       d="M 23.062992,167.1811 H 368.00789 v 51.87401 H 23.062992 Z"
       id="path33"
       inkscape:connector-curvature="0"
       style="fill-rule:evenodd;stroke:#434343;stroke-width:1;stroke-linecap:butt;stroke-linejoin:round" />
    <path
       d="m 115.42493,174.17188 h 160.22049 v 32 H 115.42493 Z"
       id="path35"
       inkscape:connector-curvature="0"
       style="fill:#000000;fill-opacity:0;fill-rule:evenodd" />
    <path
       d="m 142.46095,194.84438 1.4375,-0.125 q 0.0937,0.85937 0.46875,1.42187 0.375,0.54688 1.15625,0.89063 0.78125,0.32812 1.75,0.32812 0.875,0 1.53125,-0.25 0.67187,-0.26562 0.98437,-0.70312 0.32813,-0.45313 0.32813,-0.98438 0,-0.54687 -0.3125,-0.9375 -0.3125,-0.40625 -1.03125,-0.6875 -0.45313,-0.17187 -2.03125,-0.54687 -1.57813,-0.39063 -2.21875,-0.71875 -0.8125,-0.4375 -1.21875,-1.0625 -0.40625,-0.64063 -0.40625,-1.4375 0,-0.85938 0.48437,-1.60938 0.5,-0.76562 1.4375,-1.15625 0.95313,-0.39062 2.10938,-0.39062 1.28125,0 2.25,0.42187 0.96875,0.40625 1.48437,1.20313 0.53125,0.79687 0.57813,1.79687 l -1.45313,0.10938 q -0.125,-1.07813 -0.79687,-1.625 -0.67188,-0.5625 -2,-0.5625 -1.375,0 -2,0.5 -0.625,0.5 -0.625,1.21875 0,0.60937 0.4375,1.01562 0.4375,0.39063 2.28125,0.8125 1.85937,0.42188 2.54687,0.73438 1,0.45312 1.46875,1.17187 0.48438,0.70313 0.48438,1.625 0,0.90625 -0.53125,1.71875 -0.51563,0.8125 -1.5,1.26563 -0.98438,0.45312 -2.20313,0.45312 -1.5625,0 -2.60937,-0.45312 -1.04688,-0.46875 -1.65625,-1.375 -0.59375,-0.90625 -0.625,-2.0625 z m 11.01562,3.6875 V 190.235 h 1.25 v 1.15625 q 0.39063,-0.60937 1.03125,-0.96875 0.65625,-0.375 1.48438,-0.375 0.92187,0 1.51562,0.39063 0.59375,0.375 0.82813,1.0625 0.98437,-1.45313 2.5625,-1.45313 1.23437,0 1.89062,0.6875 0.67188,0.67188 0.67188,2.09375 v 5.70313 h -1.39063 v -5.23438 q 0,-0.84375 -0.14062,-1.20312 -0.14063,-0.375 -0.5,-0.59375 -0.35938,-0.23438 -0.84375,-0.23438 -0.875,0 -1.45313,0.57813 -0.57812,0.57812 -0.57812,1.85937 v 4.82813 h -1.40625 v -5.39063 q 0,-0.9375 -0.34375,-1.40625 -0.34375,-0.46875 -1.125,-0.46875 -0.59375,0 -1.09375,0.3125 -0.5,0.3125 -0.73438,0.92188 -0.21875,0.59375 -0.21875,1.71875 v 4.3125 z m 18.73438,-1.03125 q -0.78125,0.67187 -1.5,0.95312 -0.71875,0.26563 -1.54688,0.26563 -1.375,0 -2.10937,-0.67188 -0.73438,-0.67187 -0.73438,-1.70312 0,-0.60938 0.28125,-1.10938 0.28125,-0.51562 0.71875,-0.8125 0.45313,-0.3125 1.01563,-0.46875 0.42187,-0.10937 1.25,-0.20312 1.70312,-0.20313 2.51562,-0.48438 0,-0.29687 0,-0.375 0,-0.85937 -0.39062,-1.20312 -0.54688,-0.48438 -1.60938,-0.48438 -0.98437,0 -1.46875,0.35938 -0.46875,0.34375 -0.6875,1.21875 l -1.375,-0.1875 q 0.1875,-0.875 0.60938,-1.42188 0.4375,-0.54687 1.25,-0.82812 0.8125,-0.29688 1.875,-0.29688 1.0625,0 1.71875,0.25 0.67187,0.25 0.98437,0.625 0.3125,0.375 0.4375,0.95313 0.0781,0.35937 0.0781,1.29687 v 1.875 q 0,1.96875 0.0781,2.48438 0.0937,0.51562 0.35938,1 h -1.46875 q -0.21875,-0.4375 -0.28125,-1.03125 z M 172.10157,194.36 q -0.76562,0.3125 -2.29687,0.53125 -0.875,0.125 -1.23438,0.28125 -0.35937,0.15625 -0.5625,0.46875 -0.1875,0.29688 -0.1875,0.65625 0,0.5625 0.42188,0.9375 0.4375,0.375 1.25,0.375 0.8125,0 1.4375,-0.34375 0.64062,-0.35937 0.9375,-0.98437 0.23437,-0.46875 0.23437,-1.40625 z m 3.58594,4.17188 V 190.235 h 1.26563 v 1.25 q 0.48437,-0.875 0.89062,-1.15625 0.40625,-0.28125 0.90625,-0.28125 0.70313,0 1.4375,0.45313 l -0.48437,1.29687 q -0.51563,-0.29687 -1.03125,-0.29687 -0.45313,0 -0.82813,0.28125 -0.35937,0.26562 -0.51562,0.76562 -0.23438,0.75 -0.23438,1.64063 v 4.34375 z m 8.40625,-1.26563 0.20313,1.25 q -0.59375,0.125 -1.0625,0.125 -0.76563,0 -1.1875,-0.23437 -0.42188,-0.25 -0.59375,-0.64063 -0.17188,-0.40625 -0.17188,-1.67187 v -4.76563 h -1.03125 V 190.235 h 1.03125 v -2.0625 l 1.40625,-0.84375 v 2.90625 h 1.40625 v 1.09375 h -1.40625 v 4.84375 q 0,0.60938 0.0625,0.78125 0.0781,0.17188 0.25,0.28125 0.17188,0.0937 0.48438,0.0937 0.23437,0 0.60937,-0.0625 z m 14.17188,-2.75 1.51562,0.375 q -0.46875,1.875 -1.71875,2.85938 -1.23437,0.98437 -3.01562,0.98437 -1.85938,0 -3.01563,-0.75 -1.15625,-0.76562 -1.76562,-2.1875 -0.60938,-1.4375 -0.60938,-3.07812 0,-1.79688 0.6875,-3.125 0.6875,-1.32813 1.9375,-2.01563 1.26563,-0.70312 2.78125,-0.70312 1.71875,0 2.89063,0.875 1.17187,0.875 1.64062,2.46875 l -1.5,0.34375 q -0.39062,-1.25 -1.15625,-1.8125 -0.75,-0.57813 -1.90625,-0.57813 -1.3125,0 -2.20312,0.64063 -0.89063,0.625 -1.25,1.70312 -0.35938,1.0625 -0.35938,2.1875 0,1.46875 0.42188,2.5625 0.4375,1.07813 1.32812,1.625 0.90625,0.53125 1.95313,0.53125 1.26562,0 2.14062,-0.73437 0.89063,-0.73438 1.20313,-2.17188 z m 2.67968,-0.14062 q 0,-2.29688 1.28125,-3.40625 1.07813,-0.92188 2.60938,-0.92188 1.71875,0 2.79687,1.125 1.09375,1.10938 1.09375,3.09375 0,1.59375 -0.48437,2.51563 -0.48438,0.92187 -1.40625,1.4375 -0.90625,0.5 -2,0.5 -1.73438,0 -2.8125,-1.10938 -1.07813,-1.125 -1.07813,-3.23437 z m 1.45313,0 q 0,1.59375 0.6875,2.39062 0.70312,0.79688 1.75,0.79688 1.04687,0 1.73437,-0.79688 0.70313,-0.79687 0.70313,-2.4375 0,-1.53125 -0.70313,-2.32812 -0.6875,-0.79688 -1.73437,-0.79688 -1.04688,0 -1.75,0.79688 -0.6875,0.78125 -0.6875,2.375 z m 7.97656,4.15625 V 190.235 h 1.26563 v 1.17188 q 0.90625,-1.35938 2.64062,-1.35938 0.75,0 1.375,0.26563 0.625,0.26562 0.9375,0.70312 0.3125,0.4375 0.4375,1.04688 0.0781,0.39062 0.0781,1.35937 v 5.10938 h -1.40625 V 193.485 q 0,-0.85937 -0.17188,-1.28125 -0.15625,-0.4375 -0.57812,-0.6875 -0.40625,-0.25 -0.96875,-0.25 -0.90625,0 -1.5625,0.57813 -0.64063,0.5625 -0.64063,2.15625 v 4.53125 z m 11.96094,-1.26563 0.20312,1.25 q -0.59375,0.125 -1.0625,0.125 -0.76562,0 -1.1875,-0.23437 -0.42187,-0.25 -0.59375,-0.64063 -0.17187,-0.40625 -0.17187,-1.67187 v -4.76563 H 218.4922 V 190.235 h 1.03125 v -2.0625 l 1.40625,-0.84375 v 2.90625 h 1.40625 v 1.09375 h -1.40625 v 4.84375 q 0,0.60938 0.0625,0.78125 0.0781,0.17188 0.25,0.28125 0.17187,0.0937 0.48437,0.0937 0.23438,0 0.60938,-0.0625 z m 1.36719,1.26563 V 190.235 h 1.26562 v 1.25 q 0.48438,-0.875 0.89063,-1.15625 0.40625,-0.28125 0.90625,-0.28125 0.70312,0 1.4375,0.45313 l -0.48438,1.29687 q -0.51562,-0.29687 -1.03125,-0.29687 -0.45312,0 -0.82812,0.28125 -0.35938,0.26562 -0.51563,0.76562 -0.23437,0.75 -0.23437,1.64063 v 4.34375 z m 10.75,-1.03125 q -0.78125,0.67187 -1.5,0.95312 -0.71875,0.26563 -1.54688,0.26563 -1.375,0 -2.10937,-0.67188 -0.73438,-0.67187 -0.73438,-1.70312 0,-0.60938 0.28125,-1.10938 0.28125,-0.51562 0.71875,-0.8125 0.45313,-0.3125 1.01563,-0.46875 0.42187,-0.10937 1.25,-0.20312 1.70312,-0.20313 2.51562,-0.48438 0,-0.29687 0,-0.375 0,-0.85937 -0.39062,-1.20312 -0.54688,-0.48438 -1.60938,-0.48438 -0.98437,0 -1.46875,0.35938 -0.46875,0.34375 -0.6875,1.21875 l -1.375,-0.1875 q 0.1875,-0.875 0.60938,-1.42188 0.4375,-0.54687 1.25,-0.82812 0.8125,-0.29688 1.875,-0.29688 1.0625,0 1.71875,0.25 0.67187,0.25 0.98437,0.625 0.3125,0.375 0.4375,0.95313 0.0781,0.35937 0.0781,1.29687 v 1.875 q 0,1.96875 0.0781,2.48438 0.0937,0.51562 0.35938,1 h -1.46875 q -0.21875,-0.4375 -0.28125,-1.03125 z M 234.34376,194.36 q -0.76562,0.3125 -2.29687,0.53125 -0.875,0.125 -1.23438,0.28125 -0.35937,0.15625 -0.5625,0.46875 -0.1875,0.29688 -0.1875,0.65625 0,0.5625 0.42188,0.9375 0.4375,0.375 1.25,0.375 0.8125,0 1.4375,-0.34375 0.64062,-0.35937 0.9375,-0.98437 0.23437,-0.46875 0.23437,-1.40625 z m 9.00781,1.125 1.39061,0.1875 q -0.23437,1.42188 -1.17187,2.23438 -0.92186,0.8125 -2.28124,0.8125 -1.70312,0 -2.75,-1.10938 -1.03125,-1.125 -1.03125,-3.20312 0,-1.34375 0.4375,-2.34375 0.45313,-1.01563 1.35938,-1.51563 0.92187,-0.5 1.98437,-0.5 1.35938,0 2.21874,0.6875 0.85937,0.67188 1.09375,1.9375 l -1.35936,0.20313 q -0.20313,-0.82813 -0.70313,-1.25 -0.48437,-0.42188 -1.1875,-0.42188 -1.0625,0 -1.73437,0.76563 -0.65625,0.75 -0.65625,2.40625 0,1.67187 0.64062,2.4375 0.64063,0.75 1.67188,0.75 0.82812,0 1.375,-0.5 0.5625,-0.51563 0.70312,-1.57813 z m 5.65624,1.78125 0.20312,1.25 q -0.59375,0.125 -1.0625,0.125 -0.76562,0 -1.1875,-0.23437 -0.42187,-0.25 -0.59375,-0.64063 -0.17187,-0.40625 -0.17187,-1.67187 v -4.76563 h -1.03125 V 190.235 h 1.03125 v -2.0625 l 1.40625,-0.84375 v 2.90625 h 1.40625 v 1.09375 h -1.40625 v 4.84375 q 0,0.60938 0.0625,0.78125 0.0781,0.17188 0.25,0.28125 0.17187,0.0937 0.48437,0.0937 0.23438,0 0.60938,-0.0625 z"
       id="path37"
       inkscape:connector-curvature="0"
       style="fill:#000000;fill-rule:nonzero" />
    <path
       d="m 196.36899,206.16995 v 41.32283"
       id="path39"
       inkscape:connector-curvature="0"
       style="fill:#000000;fill-opacity:0;fill-rule:evenodd" />
    <path
       d="m 196.36899,212.16995 v 29.32283"
       id="path41"
       inkscape:connector-curvature="0"
       style="fill-rule:evenodd;stroke:#000000;stroke-width:1;stroke-linecap:butt;stroke-linejoin:round" />
    <path
       d="m 198.02072,212.16995 -1.65173,-4.5381 -1.65174,4.5381 z"
       id="path43"
       inkscape:connector-curvature="0"
       style="fill:#000000;fill-rule:evenodd;stroke:#000000;stroke-width:1;stroke-linecap:butt" />
    <path
       d="m 194.71725,241.49278 1.65173,4.5381 1.65174,-4.5381 z"
       id="path45"
       inkscape:connector-curvature="0"
       style="fill:#000000;fill-rule:evenodd;stroke:#000000;stroke-width:1;stroke-linecap:butt" />
    <path
       d="m 78.6322,310.35178 v 41.32281"
       id="path47"
       inkscape:connector-curvature="0"
       style="fill:#000000;fill-opacity:0;fill-rule:evenodd" />
    <path
       d="m 78.6322,316.35178 v 29.32284"
       id="path49"
       inkscape:connector-curvature="0"
       style="fill-rule:evenodd;stroke:#000000;stroke-width:1;stroke-linecap:butt;stroke-linejoin:round" />
    <path
       d="m 80.283936,316.35178 -1.651733,-4.53812 -1.651734,4.53812 z"
       id="path51"
       inkscape:connector-curvature="0"
       style="fill:#000000;fill-rule:evenodd;stroke:#000000;stroke-width:1;stroke-linecap:butt" />
    <path
       d="m 76.98047,345.67462 1.651733,4.53809 1.651734,-4.53809 z"
       id="path53"
       inkscape:connector-curvature="0"
       style="fill:#000000;fill-rule:evenodd;stroke:#000000;stroke-width:1;stroke-linecap:butt" />
    <path
       d="m 195.52872,310.35178 v 41.32281"
       id="path55"
       inkscape:connector-curvature="0"
       style="fill:#000000;fill-opacity:0;fill-rule:evenodd" />
    <path
       d="m 195.5287,316.35178 v 29.32284"
       id="path57"
       inkscape:connector-curvature="0"
       style="fill-rule:evenodd;stroke:#000000;stroke-width:1;stroke-linecap:butt;stroke-linejoin:round" />
    <path
       d="m 197.18044,316.35178 -1.65173,-4.53812 -1.65174,4.53812 z"
       id="path59"
       inkscape:connector-curvature="0"
       style="fill:#000000;fill-rule:evenodd;stroke:#000000;stroke-width:1;stroke-linecap:butt" />
    <path
       d="m 193.87697,345.67462 1.65173,4.53809 1.65174,-4.53809 z"
       id="path61"
       inkscape:connector-curvature="0"
       style="fill:#000000;fill-rule:evenodd;stroke:#000000;stroke-width:1;stroke-linecap:butt" />
    <path
       d="m 256.85602,336.69846 h 111.1496 v 51.87402 h -111.1496 z"
       id="path63"
       inkscape:connector-curvature="0"
       style="fill:#d9d9d9;fill-rule:evenodd" />
    <path
       d="m 256.85602,336.69846 h 111.1496 v 51.87402 h -111.1496 z"
       id="path65"
       inkscape:connector-curvature="0"
       style="fill-rule:evenodd;stroke:#434343;stroke-width:1;stroke-linecap:butt;stroke-linejoin:round" />
    <path
       d="m 260.30716,343.69043 h 105.92127 v 32 H 260.30716 Z"
       id="path67"
       inkscape:connector-curvature="0"
       style="fill:#000000;fill-opacity:0;fill-rule:evenodd" />
    <path
       d="m 305.18967,363.5504 v -1.34375 h 4.85937 v 4.25 q -1.125,0.89063 -2.3125,1.34375 -1.1875,0.45313 -2.4375,0.45313 -1.6875,0 -3.0625,-0.71875 -1.375,-0.73438 -2.07812,-2.09375 -0.70313,-1.375 -0.70313,-3.0625 0,-1.67188 0.6875,-3.125 0.70313,-1.45313 2.01563,-2.15625 1.3125,-0.70313 3.03125,-0.70313 1.23437,0 2.23437,0.40625 1.01563,0.40625 1.57813,1.125 0.57812,0.71875 0.875,1.875 l -1.375,0.375 q -0.25,-0.875 -0.64063,-1.375 -0.375,-0.5 -1.09375,-0.79687 -0.70312,-0.3125 -1.57812,-0.3125 -1.03125,0 -1.79688,0.32812 -0.75,0.3125 -1.21875,0.82813 -0.46875,0.51562 -0.71875,1.125 -0.4375,1.0625 -0.4375,2.3125 0,1.53125 0.51563,2.5625 0.53125,1.03125 1.53125,1.53125 1.01562,0.5 2.15625,0.5 0.98437,0 1.92187,-0.375 0.9375,-0.39063 1.42188,-0.8125 v -2.14063 z m 12.32031,3.46875 q -0.78125,0.67188 -1.5,0.95313 -0.71875,0.26562 -1.54687,0.26562 -1.375,0 -2.10938,-0.67187 -0.73437,-0.67188 -0.73437,-1.70313 0,-0.60937 0.28125,-1.10937 0.28125,-0.51563 0.71875,-0.8125 0.45312,-0.3125 1.01562,-0.46875 0.42188,-0.10938 1.25,-0.20313 1.70313,-0.20312 2.51563,-0.48437 0,-0.29688 0,-0.375 0,-0.85938 -0.39063,-1.20313 -0.54687,-0.48437 -1.60937,-0.48437 -0.98438,0 -1.46875,0.35937 -0.46875,0.34375 -0.6875,1.21875 l -1.375,-0.1875 q 0.1875,-0.875 0.60937,-1.42187 0.4375,-0.54688 1.25,-0.82813 0.8125,-0.29687 1.875,-0.29687 1.0625,0 1.71875,0.25 0.67188,0.25 0.98438,0.625 0.3125,0.375 0.4375,0.95312 0.0781,0.35938 0.0781,1.29688 v 1.875 q 0,1.96875 0.0781,2.48437 0.0937,0.51563 0.35937,1 h -1.46875 q -0.21875,-0.4375 -0.28125,-1.03125 z m -0.10937,-3.14062 q -0.76563,0.3125 -2.29688,0.53125 -0.875,0.125 -1.23437,0.28125 -0.35938,0.15625 -0.5625,0.46875 -0.1875,0.29687 -0.1875,0.65625 0,0.5625 0.42187,0.9375 0.4375,0.375 1.25,0.375 0.8125,0 1.4375,-0.34375 0.64063,-0.35938 0.9375,-0.98438 0.23438,-0.46875 0.23438,-1.40625 z m 3.03906,1.6875 1.39062,-0.21875 q 0.10938,0.84375 0.64063,1.29687 0.54687,0.4375 1.5,0.4375 0.96875,0 1.4375,-0.39062 0.46875,-0.40625 0.46875,-0.9375 0,-0.46875 -0.40625,-0.75 -0.29688,-0.1875 -1.4375,-0.46875 -1.54688,-0.39063 -2.15625,-0.67188 -0.59375,-0.29687 -0.90625,-0.79687 -0.29688,-0.5 -0.29688,-1.10938 0,-0.5625 0.25,-1.03125 0.25,-0.46875 0.6875,-0.78125 0.32813,-0.25 0.89063,-0.40625 0.57812,-0.17187 1.21875,-0.17187 0.98437,0 1.71875,0.28125 0.73437,0.28125 1.07812,0.76562 0.35938,0.46875 0.5,1.28125 l -1.375,0.1875 q -0.0937,-0.64062 -0.54687,-1 -0.45313,-0.35937 -1.26563,-0.35937 -0.96875,0 -1.39062,0.32812 -0.40625,0.3125 -0.40625,0.73438 0,0.28125 0.17187,0.5 0.17188,0.21875 0.53125,0.375 0.21875,0.0781 1.25,0.35937 1.48438,0.39063 2.07813,0.65625 0.59375,0.25 0.92187,0.73438 0.34375,0.48437 0.34375,1.20312 0,0.70313 -0.42187,1.32813 -0.40625,0.60937 -1.1875,0.95312 -0.76563,0.34375 -1.73438,0.34375 -1.625,0 -2.46875,-0.67187 -0.84375,-0.67188 -1.07812,-2 z"
       id="path69"
       inkscape:connector-curvature="0"
       style="fill:#000000;fill-rule:nonzero" />
    <path
       d="m 312.42233,310.35178 v 41.32281"
       id="path71"
       inkscape:connector-curvature="0"
       style="fill:#000000;fill-opacity:0;fill-rule:evenodd" />
    <path
       d="m 312.42233,316.35178 v 29.32284"
       id="path73"
       inkscape:connector-curvature="0"
       style="fill-rule:evenodd;stroke:#000000;stroke-width:1;stroke-linecap:butt;stroke-linejoin:round" />
    <path
       d="m 314.07407,316.35178 -1.65173,-4.53812 -1.65174,4.53812 z"
       id="path75"
       inkscape:connector-curvature="0"
       style="fill:#000000;fill-rule:evenodd;stroke:#000000;stroke-width:1;stroke-linecap:butt" />
    <path
       d="m 310.7706,345.67462 1.65173,4.53809 1.65174,-4.53809 z"
       id="path77"
       inkscape:connector-curvature="0"
       style="fill:#000000;fill-rule:evenodd;stroke:#000000;stroke-width:1;stroke-linecap:butt" />
    <path
       d="m 57.72966,394.6273 h 277.25983 v 32 H 57.72966 Z"
       id="path79"
       inkscape:connector-curvature="0"
       style="fill:#000000;fill-opacity:0;fill-rule:evenodd" />
    <path
       d="m 151.78146,413.40918 q 0,-2.85938 1.53125,-4.46875 1.53125,-1.60938 3.95312,-1.60938 1.57813,0 2.84375,0.76563 1.28125,0.75 1.95313,2.10937 0.67187,1.34375 0.67187,3.0625 0,1.75 -0.70312,3.125 -0.70313,1.375 -2,2.09375 -1.28125,0.70313 -2.78125,0.70313 -1.60938,0 -2.89063,-0.78125 -1.26562,-0.79688 -1.92187,-2.14063 -0.65625,-1.35937 -0.65625,-2.85937 z m 1.5625,0.0156 q 0,2.07813 1.10937,3.26563 1.10938,1.1875 2.79688,1.1875 1.70312,0 2.8125,-1.20313 1.10937,-1.20312 1.10937,-3.40625 0,-1.40625 -0.48437,-2.4375 -0.46875,-1.04687 -1.375,-1.625 -0.90625,-0.57812 -2.04688,-0.57812 -1.60937,0 -2.76562,1.10937 -1.15625,1.10938 -1.15625,3.6875 z m 11.14844,5.5625 v -8.29687 h 1.26562 v 1.25 q 0.48438,-0.875 0.89063,-1.15625 0.40625,-0.28125 0.90625,-0.28125 0.70312,0 1.4375,0.45312 l -0.48438,1.29688 q -0.51562,-0.29688 -1.03125,-0.29688 -0.45312,0 -0.82812,0.28125 -0.35938,0.26563 -0.51563,0.76563 -0.23437,0.75 -0.23437,1.64062 v 4.34375 z m 5.07812,0.6875 1.375,0.20313 q 0.0781,0.64062 0.46875,0.92187 0.53125,0.39063 1.4375,0.39063 0.96875,0 1.5,-0.39063 0.53125,-0.39062 0.71875,-1.09375 0.10938,-0.42187 0.10938,-1.8125 -0.92188,1.09375 -2.29688,1.09375 -1.71875,0 -2.65625,-1.23437 -0.9375,-1.23438 -0.9375,-2.96875 0,-1.1875 0.42188,-2.1875 0.4375,-1 1.25,-1.54688 0.82812,-0.54687 1.92187,-0.54687 1.46875,0 2.42188,1.1875 v -1 h 1.29687 v 7.17187 q 0,1.9375 -0.39062,2.75 -0.39063,0.8125 -1.25,1.28125 -0.85938,0.46875 -2.10938,0.46875 -1.48437,0 -2.40625,-0.67187 -0.90625,-0.67188 -0.875,-2.01563 z m 1.17188,-4.98437 q 0,1.625 0.64062,2.375 0.65625,0.75 1.625,0.75 0.96875,0 1.625,-0.73438 0.65625,-0.75 0.65625,-2.34375 0,-1.53125 -0.67187,-2.29687 -0.67188,-0.78125 -1.625,-0.78125 -0.9375,0 -1.59375,0.76562 -0.65625,0.76563 -0.65625,2.26563 z m 13.39843,3.26562 q -0.78125,0.67188 -1.5,0.95313 -0.71875,0.26562 -1.54687,0.26562 -1.375,0 -2.10938,-0.67187 -0.73437,-0.67188 -0.73437,-1.70313 0,-0.60937 0.28125,-1.10937 0.28125,-0.51563 0.71875,-0.8125 0.45312,-0.3125 1.01562,-0.46875 0.42188,-0.10938 1.25,-0.20313 1.70313,-0.20312 2.51563,-0.48437 0,-0.29688 0,-0.375 0,-0.85938 -0.39063,-1.20313 -0.54687,-0.48437 -1.60937,-0.48437 -0.98438,0 -1.46875,0.35937 -0.46875,0.34375 -0.6875,1.21875 l -1.375,-0.1875 q 0.1875,-0.875 0.60937,-1.42187 0.4375,-0.54688 1.25,-0.82813 0.8125,-0.29687 1.875,-0.29687 1.0625,0 1.71875,0.25 0.67188,0.25 0.98438,0.625 0.3125,0.375 0.4375,0.95312 0.0781,0.35938 0.0781,1.29688 v 1.875 q 0,1.96875 0.0781,2.48437 0.0937,0.51563 0.35937,1 h -1.46875 q -0.21875,-0.4375 -0.28125,-1.03125 z m -0.10937,-3.14062 q -0.76563,0.3125 -2.29688,0.53125 -0.875,0.125 -1.23437,0.28125 -0.35938,0.15625 -0.5625,0.46875 -0.1875,0.29687 -0.1875,0.65625 0,0.5625 0.42187,0.9375 0.4375,0.375 1.25,0.375 0.8125,0 1.4375,-0.34375 0.64063,-0.35938 0.9375,-0.98438 0.23438,-0.46875 0.23438,-1.40625 z m 3.60156,4.17187 v -8.29687 h 1.26563 v 1.17187 q 0.90625,-1.35937 2.64062,-1.35937 0.75,0 1.375,0.26562 0.625,0.26563 0.9375,0.70313 0.3125,0.4375 0.4375,1.04687 0.0781,0.39063 0.0781,1.35938 v 5.10937 h -1.40625 v -5.04687 q 0,-0.85938 -0.17188,-1.28125 -0.15625,-0.4375 -0.57812,-0.6875 -0.40625,-0.25 -0.96875,-0.25 -0.90625,0 -1.5625,0.57812 -0.64063,0.5625 -0.64063,2.15625 v 4.53125 z m 8.89844,-9.84375 v -1.60937 h 1.40625 v 1.60937 z m 0,9.84375 v -8.29687 h 1.40625 v 8.29687 z m 2.80469,0 v -1.14062 l 5.28125,-6.0625 q -0.89063,0.0469 -1.57813,0.0469 h -3.39062 v -1.14062 h 6.78125 v 0.92187 l -4.48438,5.26563 -0.875,0.96875 q 0.95313,-0.0781 1.78125,-0.0781 h 3.82813 v 1.21875 z m 14.15625,-1.03125 q -0.78125,0.67188 -1.5,0.95313 -0.71875,0.26562 -1.54688,0.26562 -1.375,0 -2.10937,-0.67187 -0.73438,-0.67188 -0.73438,-1.70313 0,-0.60937 0.28125,-1.10937 0.28125,-0.51563 0.71875,-0.8125 0.45313,-0.3125 1.01563,-0.46875 0.42187,-0.10938 1.25,-0.20313 1.70312,-0.20312 2.51562,-0.48437 0,-0.29688 0,-0.375 0,-0.85938 -0.39062,-1.20313 -0.54688,-0.48437 -1.60938,-0.48437 -0.98437,0 -1.46875,0.35937 -0.46875,0.34375 -0.6875,1.21875 l -1.375,-0.1875 q 0.1875,-0.875 0.60938,-1.42187 0.4375,-0.54688 1.25,-0.82813 0.8125,-0.29687 1.875,-0.29687 1.0625,0 1.71875,0.25 0.67187,0.25 0.98437,0.625 0.3125,0.375 0.4375,0.95312 0.0781,0.35938 0.0781,1.29688 v 1.875 q 0,1.96875 0.0781,2.48437 0.0937,0.51563 0.35938,1 h -1.46875 q -0.21875,-0.4375 -0.28125,-1.03125 z m -0.10938,-3.14062 q -0.76562,0.3125 -2.29687,0.53125 -0.875,0.125 -1.23438,0.28125 -0.35937,0.15625 -0.5625,0.46875 -0.1875,0.29687 -0.1875,0.65625 0,0.5625 0.42188,0.9375 0.4375,0.375 1.25,0.375 0.8125,0 1.4375,-0.34375 0.64062,-0.35938 0.9375,-0.98438 0.23437,-0.46875 0.23437,-1.40625 z m 6.66406,2.90625 0.20313,1.25 q -0.59375,0.125 -1.0625,0.125 -0.76563,0 -1.1875,-0.23438 -0.42188,-0.25 -0.59375,-0.64062 -0.17188,-0.40625 -0.17188,-1.67188 v -4.76562 h -1.03125 v -1.09375 h 1.03125 v -2.0625 l 1.40625,-0.84375 v 2.90625 h 1.40625 v 1.09375 h -1.40625 v 4.84375 q 0,0.60937 0.0625,0.78125 0.0781,0.17187 0.25,0.28125 0.17188,0.0937 0.48438,0.0937 0.23437,0 0.60937,-0.0625 z m 1.38282,-8.57813 v -1.60937 h 1.40625 v 1.60937 z m 0,9.84375 v -8.29687 h 1.40625 v 8.29687 z m 3.02343,-4.15625 q 0,-2.29687 1.28125,-3.40625 1.07813,-0.92187 2.60938,-0.92187 1.71875,0 2.79687,1.125 1.09375,1.10937 1.09375,3.09375 0,1.59375 -0.48437,2.51562 -0.48438,0.92188 -1.40625,1.4375 -0.90625,0.5 -2,0.5 -1.73438,0 -2.8125,-1.10937 -1.07813,-1.125 -1.07813,-3.23438 z m 1.45313,0 q 0,1.59375 0.6875,2.39063 0.70312,0.79687 1.75,0.79687 1.04687,0 1.73437,-0.79687 0.70313,-0.79688 0.70313,-2.4375 0,-1.53125 -0.70313,-2.32813 -0.6875,-0.79687 -1.73437,-0.79687 -1.04688,0 -1.75,0.79687 -0.6875,0.78125 -0.6875,2.375 z m 7.97656,4.15625 v -8.29687 h 1.26563 v 1.17187 q 0.90625,-1.35937 2.64062,-1.35937 0.75,0 1.375,0.26562 0.625,0.26563 0.9375,0.70313 0.3125,0.4375 0.4375,1.04687 0.0781,0.39063 0.0781,1.35938 v 5.10937 h -1.40625 v -5.04687 q 0,-0.85938 -0.17188,-1.28125 -0.15625,-0.4375 -0.57812,-0.6875 -0.40625,-0.25 -0.96875,-0.25 -0.90625,0 -1.5625,0.57812 -0.64063,0.5625 -0.64063,2.15625 v 4.53125 z"
       id="path81"
       inkscape:connector-curvature="0"
       style="fill:#000000;fill-rule:nonzero" />
  </g>
</svg>
